<ttFont>
    <TTGlyph name="A" xMin="30" yMin="-15" xMax="589" yMax="665">
      <contour>
        <pt x="30" y="0" on="1"/>
        <pt x="217" y="665" on="1"/>
        <pt x="459" y="650" on="1"/>
        <pt x="589" y="0" on="1"/>
        <pt x="499" y="-15" on="1"/>
        <pt x="430" y="151" on="1"/>
        <pt x="164" y="129" on="1"/>
        <pt x="130" y="-15" on="1"/>
      </contour>
      <contour>
        <pt x="261" y="539" on="1"/>
        <pt x="182" y="206" on="1"/>
        <pt x="408" y="204" on="1"/>
        <pt x="269" y="539" on="1"/>
      </contour>
    </TTGlyph>
    <TTGlyph name="AE" xMin="30" yMin="-15" xMax="810" yMax="665">
      <contour>
        <pt x="787" y="277" on="1"/>
        <pt x="529" y="296" on="1"/>
        <pt x="575" y="69" on="1"/>
        <pt x="810" y="103" on="1"/>
        <pt x="806" y="0" on="1"/>
        <pt x="496" y="-9" on="1"/>
        <pt x="430" y="151" on="1"/>
        <pt x="164" y="129" on="1"/>
        <pt x="130" y="-15" on="1"/>
        <pt x="30" y="0" on="1"/>
        <pt x="217" y="665" on="1"/>
        <pt x="428" y="652" on="1"/>
        <pt x="809" y="664" on="1"/>
        <pt x="806" y="597" on="1"/>
        <pt x="477" y="558" on="1"/>
        <pt x="516" y="364" on="1"/>
        <pt x="782" y="367" on="1"/>
      </contour>
      <contour>
        <pt x="264" y="552" on="1"/>
        <pt x="182" y="206" on="1"/>
        <pt x="408" y="204" on="1"/>
      </contour>
    </TTGlyph>
    <TTGlyph name="AEacute" xMin="30" yMin="-15" xMax="810" yMax="903">
      <contour>
        <pt x="787" y="277" on="1"/>
        <pt x="529" y="296" on="1"/>
        <pt x="575" y="69" on="1"/>
        <pt x="810" y="103" on="1"/>
        <pt x="806" y="0" on="1"/>
        <pt x="496" y="-9" on="1"/>
        <pt x="430" y="151" on="1"/>
        <pt x="164" y="129" on="1"/>
        <pt x="130" y="-15" on="1"/>
        <pt x="30" y="0" on="1"/>
        <pt x="217" y="665" on="1"/>
        <pt x="428" y="652" on="1"/>
        <pt x="809" y="664" on="1"/>
        <pt x="806" y="597" on="1"/>
        <pt x="477" y="558" on="1"/>
        <pt x="516" y="364" on="1"/>
        <pt x="782" y="367" on="1"/>
      </contour>
      <contour>
        <pt x="264" y="552" on="1"/>
        <pt x="182" y="206" on="1"/>
        <pt x="408" y="204" on="1"/>
      </contour>
      <contour>
        <pt x="358" y="781" on="1"/>
        <pt x="536" y="903" on="1"/>
        <pt x="596" y="778" on="1"/>
        <pt x="392" y="713" on="1"/>
      </contour>
    </TTGlyph>
    <TTGlyph name="Aacute" xMin="30" yMin="-15" xMax="589" yMax="903">
      <contour>
        <pt x="30" y="0" on="1"/>
        <pt x="217" y="665" on="1"/>
        <pt x="459" y="650" on="1"/>
        <pt x="589" y="0" on="1"/>
        <pt x="499" y="-15" on="1"/>
        <pt x="430" y="151" on="1"/>
        <pt x="164" y="129" on="1"/>
        <pt x="130" y="-15" on="1"/>
      </contour>
      <contour>
        <pt x="261" y="539" on="1"/>
        <pt x="182" y="206" on="1"/>
        <pt x="408" y="204" on="1"/>
        <pt x="269" y="539" on="1"/>
      </contour>
      <contour>
        <pt x="210" y="781" on="1"/>
        <pt x="388" y="903" on="1"/>
        <pt x="448" y="778" on="1"/>
        <pt x="244" y="713" on="1"/>
      </contour>
    </TTGlyph>
    <TTGlyph name="Abreve" xMin="30" yMin="-15" xMax="589" yMax="888">
      <contour>
        <pt x="30" y="0" on="1"/>
        <pt x="217" y="665" on="1"/>
        <pt x="459" y="650" on="1"/>
        <pt x="589" y="0" on="1"/>
        <pt x="499" y="-15" on="1"/>
        <pt x="430" y="151" on="1"/>
        <pt x="164" y="129" on="1"/>
        <pt x="130" y="-15" on="1"/>
      </contour>
      <contour>
        <pt x="261" y="539" on="1"/>
        <pt x="182" y="206" on="1"/>
        <pt x="408" y="204" on="1"/>
        <pt x="269" y="539" on="1"/>
      </contour>
      <contour>
        <pt x="324" y="706" on="1"/>
        <pt x="273" y="706" on="0"/>
        <pt x="239" y="754" on="1"/>
        <pt x="213" y="791" on="0"/>
        <pt x="190" y="849" on="1"/>
        <pt x="243" y="882" on="1"/>
        <pt x="259" y="854" on="0"/>
        <pt x="276" y="829" on="0"/>
        <pt x="307" y="807" on="0"/>
        <pt x="355" y="807" on="0"/>
        <pt x="389" y="849" on="0"/>
        <pt x="405" y="888" on="1"/>
        <pt x="489" y="833" on="1"/>
        <pt x="414" y="706" on="0"/>
      </contour>
    </TTGlyph>
    <TTGlyph name="Acircumflex" xMin="30" yMin="-15" xMax="589" yMax="901">
      <contour>
        <pt x="30" y="0" on="1"/>
        <pt x="217" y="665" on="1"/>
        <pt x="459" y="650" on="1"/>
        <pt x="589" y="0" on="1"/>
        <pt x="499" y="-15" on="1"/>
        <pt x="430" y="151" on="1"/>
        <pt x="164" y="129" on="1"/>
        <pt x="130" y="-15" on="1"/>
      </contour>
      <contour>
        <pt x="261" y="539" on="1"/>
        <pt x="182" y="206" on="1"/>
        <pt x="408" y="204" on="1"/>
        <pt x="269" y="539" on="1"/>
      </contour>
      <contour>
        <pt x="168" y="764" on="1"/>
        <pt x="284" y="901" on="1"/>
        <pt x="471" y="809" on="1"/>
        <pt x="396" y="719" on="1"/>
        <pt x="320" y="781" on="1"/>
        <pt x="202" y="716" on="1"/>
      </contour>
    </TTGlyph>
    <TTGlyph name="Adieresis" xMin="30" yMin="-15" xMax="589" yMax="891">
      <contour>
        <pt x="30" y="0" on="1"/>
        <pt x="217" y="665" on="1"/>
        <pt x="459" y="650" on="1"/>
        <pt x="589" y="0" on="1"/>
        <pt x="499" y="-15" on="1"/>
        <pt x="430" y="151" on="1"/>
        <pt x="164" y="129" on="1"/>
        <pt x="130" y="-15" on="1"/>
      </contour>
      <contour>
        <pt x="261" y="539" on="1"/>
        <pt x="182" y="206" on="1"/>
        <pt x="408" y="204" on="1"/>
        <pt x="269" y="539" on="1"/>
      </contour>
      <contour>
        <pt x="138" y="773" on="0"/>
        <pt x="138" y="841" on="0"/>
        <pt x="183" y="891" on="0"/>
        <pt x="245" y="891" on="0"/>
        <pt x="290" y="841" on="0"/>
        <pt x="290" y="773" on="0"/>
        <pt x="245" y="723" on="0"/>
        <pt x="183" y="723" on="0"/>
      </contour>
      <contour>
        <pt x="348" y="773" on="0"/>
        <pt x="348" y="841" on="0"/>
        <pt x="393" y="891" on="0"/>
        <pt x="455" y="891" on="0"/>
        <pt x="500" y="841" on="0"/>
        <pt x="500" y="773" on="0"/>
        <pt x="455" y="723" on="0"/>
        <pt x="393" y="723" on="0"/>
      </contour>
    </TTGlyph>
    <TTGlyph name="Agrave" xMin="30" yMin="-15" xMax="589" yMax="903">
      <contour>
        <pt x="30" y="0" on="1"/>
        <pt x="217" y="665" on="1"/>
        <pt x="459" y="650" on="1"/>
        <pt x="589" y="0" on="1"/>
        <pt x="499" y="-15" on="1"/>
        <pt x="430" y="151" on="1"/>
        <pt x="164" y="129" on="1"/>
        <pt x="130" y="-15" on="1"/>
      </contour>
      <contour>
        <pt x="261" y="539" on="1"/>
        <pt x="182" y="206" on="1"/>
        <pt x="408" y="204" on="1"/>
        <pt x="269" y="539" on="1"/>
      </contour>
      <contour>
        <pt x="260" y="903" on="1"/>
        <pt x="438" y="781" on="1"/>
        <pt x="404" y="713" on="1"/>
        <pt x="200" y="778" on="1"/>
      </contour>
    </TTGlyph>
    <TTGlyph name="Amacron" xMin="30" yMin="-15" xMax="589" yMax="853">
      <contour>
        <pt x="30" y="0" on="1"/>
        <pt x="217" y="665" on="1"/>
        <pt x="459" y="650" on="1"/>
        <pt x="589" y="0" on="1"/>
        <pt x="499" y="-15" on="1"/>
        <pt x="430" y="151" on="1"/>
        <pt x="164" y="129" on="1"/>
        <pt x="130" y="-15" on="1"/>
      </contour>
      <contour>
        <pt x="261" y="539" on="1"/>
        <pt x="182" y="206" on="1"/>
        <pt x="408" y="204" on="1"/>
        <pt x="269" y="539" on="1"/>
      </contour>
      <contour>
        <pt x="466" y="761" on="1"/>
        <pt x="205" y="734" on="1"/>
        <pt x="212" y="853" on="1"/>
        <pt x="473" y="853" on="1"/>
      </contour>
    </TTGlyph>
    <TTGlyph name="Aogonek" xMin="30" yMin="-202" xMax="679" yMax="665">
      <contour>
        <pt x="30" y="0" on="1"/>
        <pt x="217" y="665" on="1"/>
        <pt x="459" y="650" on="1"/>
        <pt x="589" y="0" on="1"/>
        <pt x="499" y="-15" on="1"/>
        <pt x="430" y="151" on="1"/>
        <pt x="164" y="129" on="1"/>
        <pt x="130" y="-15" on="1"/>
      </contour>
      <contour>
        <pt x="261" y="539" on="1"/>
        <pt x="182" y="206" on="1"/>
        <pt x="408" y="204" on="1"/>
        <pt x="269" y="539" on="1"/>
      </contour>
      <contour>
        <pt x="679" y="-181" on="1"/>
        <pt x="623" y="-202" on="0"/>
        <pt x="514" y="-202" on="0"/>
        <pt x="419" y="-154" on="0"/>
        <pt x="419" y="-102" on="1"/>
        <pt x="419" y="-52" on="0"/>
        <pt x="468" y="-12" on="1"/>
        <pt x="508" y="21" on="0"/>
        <pt x="561" y="50" on="1"/>
        <pt x="589" y="0" on="1"/>
        <pt x="507" y="-42" on="0"/>
        <pt x="480" y="-98" on="1"/>
        <pt x="512" y="-111" on="0"/>
        <pt x="585" y="-111" on="0"/>
        <pt x="645" y="-85" on="1"/>
      </contour>
    </TTGlyph>
    <TTGlyph name="Aring" xMin="30" yMin="-15" xMax="589" yMax="915">
      <contour>
        <pt x="30" y="0" on="1"/>
        <pt x="217" y="665" on="1"/>
        <pt x="459" y="650" on="1"/>
        <pt x="589" y="0" on="1"/>
        <pt x="499" y="-15" on="1"/>
        <pt x="430" y="151" on="1"/>
        <pt x="164" y="129" on="1"/>
        <pt x="130" y="-15" on="1"/>
      </contour>
      <contour>
        <pt x="261" y="539" on="1"/>
        <pt x="182" y="206" on="1"/>
        <pt x="408" y="204" on="1"/>
        <pt x="269" y="539" on="1"/>
      </contour>
      <contour>
        <pt x="411" y="897" on="1"/>
        <pt x="437" y="860" on="0"/>
        <pt x="437" y="752" on="0"/>
        <pt x="374" y="687" on="0"/>
        <pt x="270" y="687" on="0"/>
        <pt x="224" y="705" on="1"/>
        <pt x="198" y="742" on="0"/>
        <pt x="198" y="850" on="0"/>
        <pt x="261" y="915" on="0"/>
        <pt x="364" y="915" on="0"/>
      </contour>
      <contour>
        <pt x="361" y="814" on="1"/>
        <pt x="361" y="840" on="0"/>
        <pt x="354" y="859" on="1"/>
        <pt x="344" y="867" on="0"/>
        <pt x="317" y="867" on="1"/>
        <pt x="273" y="846" on="0"/>
        <pt x="273" y="787" on="1"/>
        <pt x="273" y="763" on="0"/>
        <pt x="280" y="742" on="1"/>
        <pt x="290" y="735" on="0"/>
        <pt x="317" y="735" on="1"/>
        <pt x="361" y="756" on="0"/>
      </contour>
    </TTGlyph>
    <TTGlyph name="Aringacute" xMin="30" yMin="-15" xMax="589" yMax="1003">
      <contour>
        <pt x="30" y="0" on="1"/>
        <pt x="217" y="665" on="1"/>
        <pt x="459" y="650" on="1"/>
        <pt x="589" y="0" on="1"/>
        <pt x="499" y="-15" on="1"/>
        <pt x="430" y="151" on="1"/>
        <pt x="164" y="129" on="1"/>
        <pt x="130" y="-15" on="1"/>
      </contour>
      <contour>
        <pt x="261" y="539" on="1"/>
        <pt x="182" y="206" on="1"/>
        <pt x="408" y="204" on="1"/>
        <pt x="269" y="539" on="1"/>
      </contour>
      <contour>
        <pt x="467" y="864" on="1"/>
        <pt x="476" y="838" on="0"/>
        <pt x="476" y="752" on="0"/>
        <pt x="413" y="687" on="0"/>
        <pt x="310" y="687" on="0"/>
        <pt x="263" y="705" on="1"/>
        <pt x="237" y="742" on="0"/>
        <pt x="237" y="850" on="0"/>
        <pt x="300" y="915" on="0"/>
        <pt x="401" y="915" on="0"/>
        <pt x="421" y="907" on="1"/>
        <pt x="488" y="1003" on="1"/>
        <pt x="559" y="927" on="1"/>
      </contour>
      <contour>
        <pt x="400" y="814" on="1"/>
        <pt x="400" y="840" on="0"/>
        <pt x="393" y="859" on="1"/>
        <pt x="383" y="867" on="0"/>
        <pt x="356" y="867" on="1"/>
        <pt x="312" y="846" on="0"/>
        <pt x="312" y="787" on="1"/>
        <pt x="312" y="763" on="0"/>
        <pt x="319" y="742" on="1"/>
        <pt x="329" y="735" on="0"/>
        <pt x="356" y="735" on="1"/>
        <pt x="400" y="756" on="0"/>
      </contour>
    </TTGlyph>
    <TTGlyph name="Atilde" xMin="30" yMin="-15" xMax="589" yMax="892">
      <contour>
        <pt x="30" y="0" on="1"/>
        <pt x="217" y="665" on="1"/>
        <pt x="459" y="650" on="1"/>
        <pt x="589" y="0" on="1"/>
        <pt x="499" y="-15" on="1"/>
        <pt x="430" y="151" on="1"/>
        <pt x="164" y="129" on="1"/>
        <pt x="130" y="-15" on="1"/>
      </contour>
      <contour>
        <pt x="261" y="539" on="1"/>
        <pt x="182" y="206" on="1"/>
        <pt x="408" y="204" on="1"/>
        <pt x="269" y="539" on="1"/>
      </contour>
      <contour>
        <pt x="383" y="847" on="1"/>
        <pt x="406" y="847" on="0"/>
        <pt x="426" y="892" on="1"/>
        <pt x="486" y="876" on="1"/>
        <pt x="468" y="735" on="0"/>
        <pt x="401" y="735" on="1"/>
        <pt x="385" y="735" on="0"/>
        <pt x="314" y="761" on="0"/>
        <pt x="296" y="761" on="1"/>
        <pt x="273" y="761" on="0"/>
        <pt x="253" y="716" on="1"/>
        <pt x="193" y="732" on="1"/>
        <pt x="211" y="873" on="0"/>
        <pt x="278" y="873" on="1"/>
        <pt x="294" y="873" on="0"/>
        <pt x="365" y="847" on="0"/>
      </contour>
    </TTGlyph>
    <TTGlyph name="B" xMin="98" yMin="-26" xMax="630" yMax="675">
      <contour>
        <pt x="98" y="630" on="1"/>
        <pt x="245" y="675" on="0"/>
        <pt x="504" y="675" on="0"/>
        <pt x="581" y="627" on="1"/>
        <pt x="598" y="576" on="0"/>
        <pt x="598" y="529" on="1"/>
        <pt x="598" y="424" on="0"/>
        <pt x="508" y="357" on="1"/>
        <pt x="565" y="313" on="0"/>
        <pt x="630" y="201" on="0"/>
        <pt x="630" y="153" on="1"/>
        <pt x="630" y="74" on="0"/>
        <pt x="484" y="-26" on="0"/>
        <pt x="329" y="-26" on="1"/>
        <pt x="241" y="-26" on="0"/>
        <pt x="155" y="-14" on="1"/>
      </contour>
      <contour>
        <pt x="262" y="60" on="1"/>
        <pt x="317" y="45" on="0"/>
        <pt x="417" y="45" on="0"/>
        <pt x="433" y="51" on="1"/>
        <pt x="468" y="121" on="0"/>
        <pt x="468" y="264" on="0"/>
        <pt x="435" y="315" on="1"/>
        <pt x="375" y="288" on="0"/>
        <pt x="284" y="267" on="1"/>
      </contour>
      <contour>
        <pt x="436" y="494" on="1"/>
        <pt x="436" y="526" on="0"/>
        <pt x="408" y="593" on="0"/>
        <pt x="383" y="610" on="1"/>
        <pt x="360" y="610" on="0"/>
        <pt x="319" y="598" on="1"/>
        <pt x="290" y="324" on="1"/>
        <pt x="357" y="351" on="0"/>
        <pt x="436" y="446" on="0"/>
      </contour>
    </TTGlyph>
    <TTGlyph name="C" xMin="70" yMin="-24" xMax="502" yMax="700">
      <contour>
        <pt x="267" y="73" on="1"/>
        <pt x="372" y="73" on="0"/>
        <pt x="468" y="109" on="1"/>
        <pt x="502" y="1" on="1"/>
        <pt x="421" y="-24" on="0"/>
        <pt x="253" y="-24" on="0"/>
        <pt x="122" y="12" on="0"/>
        <pt x="87" y="41" on="1"/>
        <pt x="70" y="125" on="0"/>
        <pt x="70" y="207" on="1"/>
        <pt x="70" y="374" on="0"/>
        <pt x="196" y="646" on="0"/>
        <pt x="278" y="700" on="1"/>
        <pt x="471" y="578" on="1"/>
        <pt x="333" y="490" on="0"/>
        <pt x="171" y="218" on="0"/>
        <pt x="171" y="80" on="1"/>
        <pt x="214" y="73" on="0"/>
      </contour>
    </TTGlyph>
    <TTGlyph name="Cacute" xMin="70" yMin="-24" xMax="502" yMax="903">
      <contour>
        <pt x="267" y="73" on="1"/>
        <pt x="372" y="73" on="0"/>
        <pt x="468" y="109" on="1"/>
        <pt x="502" y="1" on="1"/>
        <pt x="421" y="-24" on="0"/>
        <pt x="253" y="-24" on="0"/>
        <pt x="122" y="12" on="0"/>
        <pt x="87" y="41" on="1"/>
        <pt x="70" y="125" on="0"/>
        <pt x="70" y="207" on="1"/>
        <pt x="70" y="374" on="0"/>
        <pt x="196" y="646" on="0"/>
        <pt x="278" y="700" on="1"/>
        <pt x="471" y="578" on="1"/>
        <pt x="333" y="490" on="0"/>
        <pt x="171" y="218" on="0"/>
        <pt x="171" y="80" on="1"/>
        <pt x="214" y="73" on="0"/>
      </contour>
      <contour>
        <pt x="188" y="781" on="1"/>
        <pt x="366" y="903" on="1"/>
        <pt x="426" y="778" on="1"/>
        <pt x="222" y="713" on="1"/>
      </contour>
    </TTGlyph>
    <TTGlyph name="Ccaron" xMin="70" yMin="-24" xMax="502" yMax="891">
      <contour>
        <pt x="267" y="73" on="1"/>
        <pt x="372" y="73" on="0"/>
        <pt x="468" y="109" on="1"/>
        <pt x="502" y="1" on="1"/>
        <pt x="421" y="-24" on="0"/>
        <pt x="253" y="-24" on="0"/>
        <pt x="122" y="12" on="0"/>
        <pt x="87" y="41" on="1"/>
        <pt x="70" y="125" on="0"/>
        <pt x="70" y="207" on="1"/>
        <pt x="70" y="374" on="0"/>
        <pt x="196" y="646" on="0"/>
        <pt x="278" y="700" on="1"/>
        <pt x="471" y="578" on="1"/>
        <pt x="333" y="490" on="0"/>
        <pt x="171" y="218" on="0"/>
        <pt x="171" y="80" on="1"/>
        <pt x="214" y="73" on="0"/>
      </contour>
      <contour>
        <pt x="466" y="798" on="1"/>
        <pt x="279" y="706" on="1"/>
        <pt x="163" y="843" on="1"/>
        <pt x="197" y="891" on="1"/>
        <pt x="315" y="826" on="1"/>
        <pt x="391" y="888" on="1"/>
      </contour>
    </TTGlyph>
    <TTGlyph name="Ccedilla" xMin="70" yMin="-208" xMax="502" yMax="700">
      <contour>
        <pt x="267" y="73" on="1"/>
        <pt x="214" y="73" on="0"/>
        <pt x="171" y="80" on="1"/>
        <pt x="171" y="218" on="0"/>
        <pt x="333" y="490" on="0"/>
        <pt x="471" y="578" on="1"/>
        <pt x="278" y="700" on="1"/>
        <pt x="196" y="646" on="0"/>
        <pt x="70" y="374" on="0"/>
        <pt x="70" y="207" on="1"/>
        <pt x="70" y="125" on="0"/>
        <pt x="87" y="41" on="1"/>
        <pt x="122" y="12" on="0"/>
        <pt x="253" y="-24" on="0"/>
        <pt x="421" y="-24" on="0"/>
        <pt x="502" y="1" on="1"/>
        <pt x="468" y="109" on="1"/>
        <pt x="372" y="73" on="0"/>
      </contour>
      <contour>
        <pt x="155" y="-91" on="1"/>
        <pt x="215" y="-117" on="0"/>
        <pt x="288" y="-117" on="0"/>
        <pt x="320" y="-104" on="1"/>
        <pt x="293" y="-48" on="0"/>
        <pt x="211" y="-6" on="1"/>
        <pt x="239" y="44" on="1"/>
        <pt x="344" y="-14" on="0"/>
        <pt x="369" y="-60" on="1"/>
        <pt x="381" y="-83" on="0"/>
        <pt x="381" y="-108" on="1"/>
        <pt x="381" y="-160" on="0"/>
        <pt x="286" y="-208" on="0"/>
        <pt x="176" y="-208" on="0"/>
        <pt x="121" y="-187" on="1"/>
      </contour>
    </TTGlyph>
    <TTGlyph name="Ccircumflex" xMin="70" yMin="-24" xMax="502" yMax="901">
      <contour>
        <pt x="267" y="73" on="1"/>
        <pt x="372" y="73" on="0"/>
        <pt x="468" y="109" on="1"/>
        <pt x="502" y="1" on="1"/>
        <pt x="421" y="-24" on="0"/>
        <pt x="253" y="-24" on="0"/>
        <pt x="122" y="12" on="0"/>
        <pt x="87" y="41" on="1"/>
        <pt x="70" y="125" on="0"/>
        <pt x="70" y="207" on="1"/>
        <pt x="70" y="374" on="0"/>
        <pt x="196" y="646" on="0"/>
        <pt x="278" y="700" on="1"/>
        <pt x="471" y="578" on="1"/>
        <pt x="333" y="490" on="0"/>
        <pt x="171" y="218" on="0"/>
        <pt x="171" y="80" on="1"/>
        <pt x="214" y="73" on="0"/>
      </contour>
      <contour>
        <pt x="145" y="764" on="1"/>
        <pt x="261" y="901" on="1"/>
        <pt x="448" y="809" on="1"/>
        <pt x="373" y="719" on="1"/>
        <pt x="297" y="781" on="1"/>
        <pt x="179" y="716" on="1"/>
      </contour>
    </TTGlyph>
    <TTGlyph name="Cdotaccent" xMin="70" yMin="-24" xMax="502" yMax="883">
      <contour>
        <pt x="267" y="73" on="1"/>
        <pt x="372" y="73" on="0"/>
        <pt x="468" y="109" on="1"/>
        <pt x="502" y="1" on="1"/>
        <pt x="421" y="-24" on="0"/>
        <pt x="253" y="-24" on="0"/>
        <pt x="122" y="12" on="0"/>
        <pt x="87" y="41" on="1"/>
        <pt x="70" y="125" on="0"/>
        <pt x="70" y="207" on="1"/>
        <pt x="70" y="374" on="0"/>
        <pt x="196" y="646" on="0"/>
        <pt x="278" y="700" on="1"/>
        <pt x="471" y="578" on="1"/>
        <pt x="333" y="490" on="0"/>
        <pt x="171" y="218" on="0"/>
        <pt x="171" y="80" on="1"/>
        <pt x="214" y="73" on="0"/>
      </contour>
      <contour>
        <pt x="376" y="883" on="1"/>
        <pt x="376" y="803" on="0"/>
        <pt x="364" y="755" on="1"/>
        <pt x="319" y="738" on="0"/>
        <pt x="219" y="738" on="0"/>
        <pt x="199" y="743" on="1"/>
        <pt x="199" y="816" on="0"/>
        <pt x="227" y="871" on="1"/>
        <pt x="276" y="883" on="0"/>
      </contour>
    </TTGlyph>
    <TTGlyph name="D" xMin="98" yMin="-14" xMax="624" yMax="677">
      <contour>
        <pt x="98" y="630" on="1"/>
        <pt x="245" y="677" on="0"/>
        <pt x="508" y="677" on="0"/>
        <pt x="591" y="637" on="1"/>
        <pt x="624" y="556" on="0"/>
        <pt x="624" y="468" on="1"/>
        <pt x="624" y="349" on="0"/>
        <pt x="509" y="133" on="0"/>
        <pt x="290" y="-10" on="0"/>
        <pt x="155" y="-14" on="1"/>
      </contour>
      <contour>
        <pt x="446" y="400" on="1"/>
        <pt x="446" y="473" on="0"/>
        <pt x="403" y="587" on="0"/>
        <pt x="363" y="610" on="1"/>
        <pt x="345" y="610" on="0"/>
        <pt x="319" y="603" on="1"/>
        <pt x="264" y="70" on="1"/>
        <pt x="354" y="107" on="0"/>
        <pt x="446" y="292" on="0"/>
      </contour>
    </TTGlyph>
    <TTGlyph name="Dcaron" xMin="98" yMin="-14" xMax="624" yMax="891">
      <contour>
        <pt x="98" y="630" on="1"/>
        <pt x="245" y="677" on="0"/>
        <pt x="508" y="677" on="0"/>
        <pt x="591" y="637" on="1"/>
        <pt x="624" y="556" on="0"/>
        <pt x="624" y="468" on="1"/>
        <pt x="624" y="349" on="0"/>
        <pt x="509" y="133" on="0"/>
        <pt x="290" y="-10" on="0"/>
        <pt x="155" y="-14" on="1"/>
      </contour>
      <contour>
        <pt x="446" y="400" on="1"/>
        <pt x="446" y="473" on="0"/>
        <pt x="403" y="587" on="0"/>
        <pt x="363" y="610" on="1"/>
        <pt x="345" y="610" on="0"/>
        <pt x="319" y="603" on="1"/>
        <pt x="264" y="70" on="1"/>
        <pt x="354" y="107" on="0"/>
        <pt x="446" y="292" on="0"/>
      </contour>
      <contour>
        <pt x="513" y="798" on="1"/>
        <pt x="326" y="706" on="1"/>
        <pt x="210" y="843" on="1"/>
        <pt x="244" y="891" on="1"/>
        <pt x="362" y="826" on="1"/>
        <pt x="438" y="888" on="1"/>
      </contour>
    </TTGlyph>
    <TTGlyph name="Dcroat" xMin="20" yMin="-14" xMax="624" yMax="677">
      <contour>
        <pt x="98" y="630" on="1"/>
        <pt x="245" y="677" on="0"/>
        <pt x="508" y="677" on="0"/>
        <pt x="591" y="637" on="1"/>
        <pt x="624" y="556" on="0"/>
        <pt x="624" y="468" on="1"/>
        <pt x="624" y="349" on="0"/>
        <pt x="509" y="133" on="0"/>
        <pt x="290" y="-10" on="0"/>
        <pt x="155" y="-14" on="1"/>
      </contour>
      <contour>
        <pt x="446" y="400" on="1"/>
        <pt x="446" y="473" on="0"/>
        <pt x="403" y="587" on="0"/>
        <pt x="363" y="610" on="1"/>
        <pt x="345" y="610" on="0"/>
        <pt x="319" y="603" on="1"/>
        <pt x="264" y="70" on="1"/>
        <pt x="354" y="107" on="0"/>
        <pt x="446" y="292" on="0"/>
      </contour>
      <contour>
        <pt x="392" y="316" on="1"/>
        <pt x="20" y="289" on="1"/>
        <pt x="30" y="369" on="1"/>
        <pt x="402" y="369" on="1"/>
      </contour>
    </TTGlyph>
    <TTGlyph name="Delta" xMin="50" yMin="0" xMax="609" yMax="665">
      <contour>
        <pt x="50" y="0" on="1"/>
        <pt x="257" y="665" on="1"/>
        <pt x="399" y="650" on="1"/>
        <pt x="609" y="0" on="1"/>
      </contour>
      <contour>
        <pt x="289" y="584" on="1"/>
        <pt x="151" y="77" on="1"/>
        <pt x="497" y="54" on="1"/>
      </contour>
    </TTGlyph>
    <TTGlyph name="E" xMin="93" yMin="-9" xMax="535" yMax="664">
      <contour>
        <pt x="531" y="0" on="1"/>
        <pt x="140" y="-9" on="1"/>
        <pt x="93" y="650" on="1"/>
        <pt x="534" y="664" on="1"/>
        <pt x="531" y="597" on="1"/>
        <pt x="320" y="572" on="1"/>
        <pt x="294" y="365" on="1"/>
        <pt x="507" y="367" on="1"/>
        <pt x="512" y="277" on="1"/>
        <pt x="286" y="294" on="1"/>
        <pt x="259" y="71" on="1"/>
        <pt x="535" y="103" on="1"/>
      </contour>
    </TTGlyph>
    <TTGlyph name="Eacute" xMin="93" yMin="-9" xMax="535" yMax="903">
      <contour>
        <pt x="531" y="0" on="1"/>
        <pt x="140" y="-9" on="1"/>
        <pt x="93" y="650" on="1"/>
        <pt x="534" y="664" on="1"/>
        <pt x="531" y="597" on="1"/>
        <pt x="320" y="572" on="1"/>
        <pt x="294" y="365" on="1"/>
        <pt x="507" y="367" on="1"/>
        <pt x="512" y="277" on="1"/>
        <pt x="286" y="294" on="1"/>
        <pt x="259" y="71" on="1"/>
        <pt x="535" y="103" on="1"/>
      </contour>
      <contour>
        <pt x="193" y="781" on="1"/>
        <pt x="371" y="903" on="1"/>
        <pt x="431" y="778" on="1"/>
        <pt x="227" y="713" on="1"/>
      </contour>
    </TTGlyph>
    <TTGlyph name="Ebreve" xMin="93" yMin="-9" xMax="535" yMax="888">
      <contour>
        <pt x="531" y="0" on="1"/>
        <pt x="140" y="-9" on="1"/>
        <pt x="93" y="650" on="1"/>
        <pt x="534" y="664" on="1"/>
        <pt x="531" y="597" on="1"/>
        <pt x="320" y="572" on="1"/>
        <pt x="294" y="365" on="1"/>
        <pt x="507" y="367" on="1"/>
        <pt x="512" y="277" on="1"/>
        <pt x="286" y="294" on="1"/>
        <pt x="259" y="71" on="1"/>
        <pt x="535" y="103" on="1"/>
      </contour>
      <contour>
        <pt x="287" y="706" on="1"/>
        <pt x="236" y="706" on="0"/>
        <pt x="202" y="754" on="1"/>
        <pt x="176" y="791" on="0"/>
        <pt x="153" y="849" on="1"/>
        <pt x="206" y="882" on="1"/>
        <pt x="222" y="854" on="0"/>
        <pt x="239" y="829" on="0"/>
        <pt x="270" y="807" on="0"/>
        <pt x="318" y="807" on="0"/>
        <pt x="352" y="849" on="0"/>
        <pt x="368" y="888" on="1"/>
        <pt x="452" y="833" on="1"/>
        <pt x="377" y="706" on="0"/>
      </contour>
    </TTGlyph>
    <TTGlyph name="Ecaron" xMin="93" yMin="-9" xMax="535" yMax="891">
      <contour>
        <pt x="531" y="0" on="1"/>
        <pt x="140" y="-9" on="1"/>
        <pt x="93" y="650" on="1"/>
        <pt x="534" y="664" on="1"/>
        <pt x="531" y="597" on="1"/>
        <pt x="320" y="572" on="1"/>
        <pt x="294" y="365" on="1"/>
        <pt x="507" y="367" on="1"/>
        <pt x="512" y="277" on="1"/>
        <pt x="286" y="294" on="1"/>
        <pt x="259" y="71" on="1"/>
        <pt x="535" y="103" on="1"/>
      </contour>
      <contour>
        <pt x="470" y="798" on="1"/>
        <pt x="283" y="706" on="1"/>
        <pt x="167" y="843" on="1"/>
        <pt x="201" y="891" on="1"/>
        <pt x="319" y="826" on="1"/>
        <pt x="395" y="888" on="1"/>
      </contour>
    </TTGlyph>
    <TTGlyph name="Ecircumflex" xMin="93" yMin="-9" xMax="535" yMax="901">
      <contour>
        <pt x="531" y="0" on="1"/>
        <pt x="140" y="-9" on="1"/>
        <pt x="93" y="650" on="1"/>
        <pt x="534" y="664" on="1"/>
        <pt x="531" y="597" on="1"/>
        <pt x="320" y="572" on="1"/>
        <pt x="294" y="365" on="1"/>
        <pt x="507" y="367" on="1"/>
        <pt x="512" y="277" on="1"/>
        <pt x="286" y="294" on="1"/>
        <pt x="259" y="71" on="1"/>
        <pt x="535" y="103" on="1"/>
      </contour>
      <contour>
        <pt x="151" y="764" on="1"/>
        <pt x="267" y="901" on="1"/>
        <pt x="454" y="809" on="1"/>
        <pt x="379" y="719" on="1"/>
        <pt x="303" y="781" on="1"/>
        <pt x="185" y="716" on="1"/>
      </contour>
    </TTGlyph>
    <TTGlyph name="Edieresis" xMin="93" yMin="-9" xMax="535" yMax="891">
      <contour>
        <pt x="531" y="0" on="1"/>
        <pt x="140" y="-9" on="1"/>
        <pt x="93" y="650" on="1"/>
        <pt x="534" y="664" on="1"/>
        <pt x="531" y="597" on="1"/>
        <pt x="320" y="572" on="1"/>
        <pt x="294" y="365" on="1"/>
        <pt x="507" y="367" on="1"/>
        <pt x="512" y="277" on="1"/>
        <pt x="286" y="294" on="1"/>
        <pt x="259" y="71" on="1"/>
        <pt x="535" y="103" on="1"/>
      </contour>
      <contour>
        <pt x="121" y="773" on="0"/>
        <pt x="121" y="841" on="0"/>
        <pt x="166" y="891" on="0"/>
        <pt x="228" y="891" on="0"/>
        <pt x="273" y="841" on="0"/>
        <pt x="273" y="773" on="0"/>
        <pt x="228" y="723" on="0"/>
        <pt x="166" y="723" on="0"/>
      </contour>
      <contour>
        <pt x="331" y="773" on="0"/>
        <pt x="331" y="841" on="0"/>
        <pt x="376" y="891" on="0"/>
        <pt x="438" y="891" on="0"/>
        <pt x="483" y="841" on="0"/>
        <pt x="483" y="773" on="0"/>
        <pt x="438" y="723" on="0"/>
        <pt x="376" y="723" on="0"/>
      </contour>
    </TTGlyph>
    <TTGlyph name="Edotaccent" xMin="93" yMin="-9" xMax="535" yMax="883">
      <contour>
        <pt x="531" y="0" on="1"/>
        <pt x="140" y="-9" on="1"/>
        <pt x="93" y="650" on="1"/>
        <pt x="534" y="664" on="1"/>
        <pt x="531" y="597" on="1"/>
        <pt x="320" y="572" on="1"/>
        <pt x="294" y="365" on="1"/>
        <pt x="507" y="367" on="1"/>
        <pt x="512" y="277" on="1"/>
        <pt x="286" y="294" on="1"/>
        <pt x="259" y="71" on="1"/>
        <pt x="535" y="103" on="1"/>
      </contour>
      <contour>
        <pt x="391" y="883" on="1"/>
        <pt x="391" y="803" on="0"/>
        <pt x="379" y="755" on="1"/>
        <pt x="334" y="738" on="0"/>
        <pt x="234" y="738" on="0"/>
        <pt x="214" y="743" on="1"/>
        <pt x="214" y="816" on="0"/>
        <pt x="242" y="871" on="1"/>
        <pt x="291" y="883" on="0"/>
      </contour>
    </TTGlyph>
    <TTGlyph name="Egrave" xMin="93" yMin="-9" xMax="535" yMax="903">
      <contour>
        <pt x="531" y="0" on="1"/>
        <pt x="140" y="-9" on="1"/>
        <pt x="93" y="650" on="1"/>
        <pt x="534" y="664" on="1"/>
        <pt x="531" y="597" on="1"/>
        <pt x="320" y="572" on="1"/>
        <pt x="294" y="365" on="1"/>
        <pt x="507" y="367" on="1"/>
        <pt x="512" y="277" on="1"/>
        <pt x="286" y="294" on="1"/>
        <pt x="259" y="71" on="1"/>
        <pt x="535" y="103" on="1"/>
      </contour>
      <contour>
        <pt x="243" y="903" on="1"/>
        <pt x="421" y="781" on="1"/>
        <pt x="387" y="713" on="1"/>
        <pt x="183" y="778" on="1"/>
      </contour>
    </TTGlyph>
    <TTGlyph name="Emacron" xMin="93" yMin="-9" xMax="535" yMax="853">
      <contour>
        <pt x="531" y="0" on="1"/>
        <pt x="140" y="-9" on="1"/>
        <pt x="93" y="650" on="1"/>
        <pt x="534" y="664" on="1"/>
        <pt x="531" y="597" on="1"/>
        <pt x="320" y="572" on="1"/>
        <pt x="294" y="365" on="1"/>
        <pt x="507" y="367" on="1"/>
        <pt x="512" y="277" on="1"/>
        <pt x="286" y="294" on="1"/>
        <pt x="259" y="71" on="1"/>
        <pt x="535" y="103" on="1"/>
      </contour>
      <contour>
        <pt x="429" y="761" on="1"/>
        <pt x="168" y="734" on="1"/>
        <pt x="175" y="853" on="1"/>
        <pt x="436" y="853" on="1"/>
      </contour>
    </TTGlyph>
    <TTGlyph name="Eng" xMin="80" yMin="-208" xMax="642" yMax="665">
      <contour>
        <pt x="591" y="-112" on="0"/>
        <pt x="494" y="-208" on="0"/>
        <pt x="362" y="-208" on="0"/>
        <pt x="296" y="-174" on="1"/>
        <pt x="314" y="-120" on="1"/>
        <pt x="358" y="-134" on="0"/>
        <pt x="383" y="-134" on="1"/>
        <pt x="480" y="-134" on="0"/>
        <pt x="480" y="-45" on="1"/>
        <pt x="480" y="30" on="0"/>
        <pt x="408" y="151" on="1"/>
        <pt x="185" y="519" on="1"/>
        <pt x="177" y="519" on="1"/>
        <pt x="180" y="0" on="1"/>
        <pt x="80" y="-5" on="1"/>
        <pt x="107" y="650" on="1"/>
        <pt x="349" y="665" on="1"/>
        <pt x="525" y="163" on="1"/>
        <pt x="531" y="163" on="1"/>
        <pt x="542" y="655" on="1"/>
        <pt x="642" y="660" on="1"/>
        <pt x="598" y="-7" on="1"/>
      </contour>
    </TTGlyph>
    <TTGlyph name="Eogonek" xMin="93" yMin="-202" xMax="621" yMax="664">
      <contour>
        <pt x="531" y="0" on="1"/>
        <pt x="140" y="-9" on="1"/>
        <pt x="93" y="650" on="1"/>
        <pt x="534" y="664" on="1"/>
        <pt x="531" y="597" on="1"/>
        <pt x="320" y="572" on="1"/>
        <pt x="294" y="365" on="1"/>
        <pt x="507" y="367" on="1"/>
        <pt x="512" y="277" on="1"/>
        <pt x="286" y="294" on="1"/>
        <pt x="259" y="71" on="1"/>
        <pt x="535" y="103" on="1"/>
      </contour>
      <contour>
        <pt x="621" y="-181" on="1"/>
        <pt x="566" y="-202" on="0"/>
        <pt x="456" y="-202" on="0"/>
        <pt x="361" y="-154" on="0"/>
        <pt x="361" y="-102" on="1"/>
        <pt x="361" y="-52" on="0"/>
        <pt x="410" y="-12" on="1"/>
        <pt x="450" y="21" on="0"/>
        <pt x="503" y="50" on="1"/>
        <pt x="531" y="0" on="1"/>
        <pt x="449" y="-42" on="0"/>
        <pt x="422" y="-98" on="1"/>
        <pt x="454" y="-111" on="0"/>
        <pt x="527" y="-111" on="0"/>
        <pt x="587" y="-85" on="1"/>
      </contour>
    </TTGlyph>
    <TTGlyph name="Eth" xMin="20" yMin="-14" xMax="624" yMax="677">
      <contour>
        <pt x="98" y="630" on="1"/>
        <pt x="245" y="677" on="0"/>
        <pt x="508" y="677" on="0"/>
        <pt x="591" y="637" on="1"/>
        <pt x="624" y="556" on="0"/>
        <pt x="624" y="468" on="1"/>
        <pt x="624" y="349" on="0"/>
        <pt x="509" y="133" on="0"/>
        <pt x="290" y="-10" on="0"/>
        <pt x="155" y="-14" on="1"/>
      </contour>
      <contour>
        <pt x="446" y="400" on="1"/>
        <pt x="446" y="473" on="0"/>
        <pt x="403" y="587" on="0"/>
        <pt x="363" y="610" on="1"/>
        <pt x="345" y="610" on="0"/>
        <pt x="319" y="603" on="1"/>
        <pt x="264" y="70" on="1"/>
        <pt x="354" y="107" on="0"/>
        <pt x="446" y="292" on="0"/>
      </contour>
      <contour>
        <pt x="392" y="316" on="1"/>
        <pt x="20" y="289" on="1"/>
        <pt x="30" y="369" on="1"/>
        <pt x="402" y="369" on="1"/>
      </contour>
    </TTGlyph>
    <TTGlyph name="Euro" xMin="0" yMin="-24" xMax="502" yMax="700">
      <contour>
        <pt x="267" y="73" on="1"/>
        <pt x="372" y="73" on="0"/>
        <pt x="468" y="109" on="1"/>
        <pt x="502" y="1" on="1"/>
        <pt x="421" y="-24" on="0"/>
        <pt x="330" y="-24" on="1"/>
        <pt x="182" y="-24" on="0"/>
        <pt x="76" y="60" on="0"/>
        <pt x="71" y="174" on="1"/>
        <pt x="0" y="169" on="1"/>
        <pt x="10" y="249" on="1"/>
        <pt x="71" y="249" on="1"/>
        <pt x="74" y="291" on="0"/>
        <pt x="81" y="323" on="1"/>
        <pt x="20" y="319" on="1"/>
        <pt x="30" y="399" on="1"/>
        <pt x="100" y="399" on="1"/>
        <pt x="133" y="501" on="0"/>
        <pt x="250" y="661" on="0"/>
        <pt x="308" y="700" on="1"/>
        <pt x="501" y="578" on="1"/>
        <pt x="368" y="508" on="0"/>
        <pt x="283" y="399" on="1"/>
        <pt x="402" y="399" on="1"/>
        <pt x="392" y="346" on="1"/>
        <pt x="240" y="335" on="1"/>
        <pt x="216" y="294" on="0"/>
        <pt x="201" y="249" on="1"/>
        <pt x="382" y="249" on="1"/>
        <pt x="372" y="196" on="1"/>
        <pt x="181" y="182" on="1"/>
        <pt x="171" y="133" on="0"/>
        <pt x="171" y="80" on="1"/>
        <pt x="214" y="73" on="0"/>
      </contour>
    </TTGlyph>
    <TTGlyph name="F" xMin="93" yMin="-9" xMax="534" yMax="664">
      <contour>
        <pt x="482" y="247" on="1"/>
        <pt x="282" y="263" on="1"/>
        <pt x="250" y="-4" on="1"/>
        <pt x="140" y="-9" on="1"/>
        <pt x="93" y="650" on="1"/>
        <pt x="534" y="664" on="1"/>
        <pt x="531" y="597" on="1"/>
        <pt x="320" y="572" on="1"/>
        <pt x="291" y="335" on="1"/>
        <pt x="477" y="337" on="1"/>
      </contour>
    </TTGlyph>
    <TTGlyph name="G" xMin="70" yMin="-50" xMax="546" yMax="700">
      <contour>
        <pt x="330" y="-14" on="1"/>
        <pt x="253" y="-14" on="0"/>
        <pt x="122" y="22" on="0"/>
        <pt x="87" y="51" on="1"/>
        <pt x="70" y="131" on="0"/>
        <pt x="70" y="217" on="1"/>
        <pt x="70" y="364" on="0"/>
        <pt x="172" y="623" on="0"/>
        <pt x="278" y="700" on="1"/>
        <pt x="471" y="578" on="1"/>
        <pt x="333" y="490" on="0"/>
        <pt x="171" y="218" on="0"/>
        <pt x="171" y="80" on="1"/>
        <pt x="226" y="69" on="0"/>
        <pt x="333" y="69" on="0"/>
        <pt x="376" y="79" on="1"/>
        <pt x="356" y="298" on="1"/>
        <pt x="546" y="310" on="1"/>
        <pt x="486" y="-42" on="1"/>
        <pt x="388" y="-50" on="1"/>
        <pt x="384" y="-11" on="1"/>
        <pt x="357" y="-14" on="0"/>
      </contour>
    </TTGlyph>
    <TTGlyph name="Gbreve" xMin="70" yMin="-50" xMax="546" yMax="888">
      <contour>
        <pt x="330" y="-14" on="1"/>
        <pt x="253" y="-14" on="0"/>
        <pt x="122" y="22" on="0"/>
        <pt x="87" y="51" on="1"/>
        <pt x="70" y="131" on="0"/>
        <pt x="70" y="217" on="1"/>
        <pt x="70" y="364" on="0"/>
        <pt x="172" y="623" on="0"/>
        <pt x="278" y="700" on="1"/>
        <pt x="471" y="578" on="1"/>
        <pt x="333" y="490" on="0"/>
        <pt x="171" y="218" on="0"/>
        <pt x="171" y="80" on="1"/>
        <pt x="226" y="69" on="0"/>
        <pt x="333" y="69" on="0"/>
        <pt x="376" y="79" on="1"/>
        <pt x="356" y="298" on="1"/>
        <pt x="546" y="310" on="1"/>
        <pt x="486" y="-42" on="1"/>
        <pt x="388" y="-50" on="1"/>
        <pt x="384" y="-11" on="1"/>
        <pt x="357" y="-14" on="0"/>
      </contour>
      <contour>
        <pt x="272" y="706" on="1"/>
        <pt x="221" y="706" on="0"/>
        <pt x="187" y="754" on="1"/>
        <pt x="161" y="791" on="0"/>
        <pt x="138" y="849" on="1"/>
        <pt x="191" y="882" on="1"/>
        <pt x="207" y="854" on="0"/>
        <pt x="224" y="829" on="0"/>
        <pt x="255" y="807" on="0"/>
        <pt x="303" y="807" on="0"/>
        <pt x="337" y="849" on="0"/>
        <pt x="353" y="888" on="1"/>
        <pt x="437" y="833" on="1"/>
        <pt x="362" y="706" on="0"/>
      </contour>
    </TTGlyph>
    <TTGlyph name="Gcircumflex" xMin="70" yMin="-50" xMax="546" yMax="901">
      <contour>
        <pt x="330" y="-14" on="1"/>
        <pt x="253" y="-14" on="0"/>
        <pt x="122" y="22" on="0"/>
        <pt x="87" y="51" on="1"/>
        <pt x="70" y="131" on="0"/>
        <pt x="70" y="217" on="1"/>
        <pt x="70" y="364" on="0"/>
        <pt x="172" y="623" on="0"/>
        <pt x="278" y="700" on="1"/>
        <pt x="471" y="578" on="1"/>
        <pt x="333" y="490" on="0"/>
        <pt x="171" y="218" on="0"/>
        <pt x="171" y="80" on="1"/>
        <pt x="226" y="69" on="0"/>
        <pt x="333" y="69" on="0"/>
        <pt x="376" y="79" on="1"/>
        <pt x="356" y="298" on="1"/>
        <pt x="546" y="310" on="1"/>
        <pt x="486" y="-42" on="1"/>
        <pt x="388" y="-50" on="1"/>
        <pt x="384" y="-11" on="1"/>
        <pt x="357" y="-14" on="0"/>
      </contour>
      <contour>
        <pt x="149" y="764" on="1"/>
        <pt x="265" y="901" on="1"/>
        <pt x="452" y="809" on="1"/>
        <pt x="377" y="719" on="1"/>
        <pt x="301" y="781" on="1"/>
        <pt x="183" y="716" on="1"/>
      </contour>
    </TTGlyph>
    <TTGlyph name="Gdotaccent" xMin="70" yMin="-50" xMax="546" yMax="883">
      <contour>
        <pt x="330" y="-14" on="1"/>
        <pt x="253" y="-14" on="0"/>
        <pt x="122" y="22" on="0"/>
        <pt x="87" y="51" on="1"/>
        <pt x="70" y="131" on="0"/>
        <pt x="70" y="217" on="1"/>
        <pt x="70" y="364" on="0"/>
        <pt x="172" y="623" on="0"/>
        <pt x="278" y="700" on="1"/>
        <pt x="471" y="578" on="1"/>
        <pt x="333" y="490" on="0"/>
        <pt x="171" y="218" on="0"/>
        <pt x="171" y="80" on="1"/>
        <pt x="226" y="69" on="0"/>
        <pt x="333" y="69" on="0"/>
        <pt x="376" y="79" on="1"/>
        <pt x="356" y="298" on="1"/>
        <pt x="546" y="310" on="1"/>
        <pt x="486" y="-42" on="1"/>
        <pt x="388" y="-50" on="1"/>
        <pt x="384" y="-11" on="1"/>
        <pt x="357" y="-14" on="0"/>
      </contour>
      <contour>
        <pt x="389" y="883" on="1"/>
        <pt x="389" y="803" on="0"/>
        <pt x="377" y="755" on="1"/>
        <pt x="332" y="738" on="0"/>
        <pt x="232" y="738" on="0"/>
        <pt x="212" y="743" on="1"/>
        <pt x="212" y="816" on="0"/>
        <pt x="240" y="871" on="1"/>
        <pt x="289" y="883" on="0"/>
      </contour>
    </TTGlyph>
    <TTGlyph name="H" xMin="98" yMin="-16" xMax="684" yMax="665">
      <contour>
        <pt x="513" y="-16" on="1"/>
        <pt x="490" y="246" on="1"/>
        <pt x="279" y="229" on="1"/>
        <pt x="255" y="-4" on="1"/>
        <pt x="155" y="-14" on="1"/>
        <pt x="98" y="650" on="1"/>
        <pt x="326" y="665" on="1"/>
        <pt x="288" y="306" on="1"/>
        <pt x="485" y="304" on="1"/>
        <pt x="456" y="648" on="1"/>
        <pt x="684" y="663" on="1"/>
        <pt x="613" y="-6" on="1"/>
      </contour>
    </TTGlyph>
    <TTGlyph name="Hbar" xMin="21" yMin="-16" xMax="747" yMax="665">
      <contour>
        <pt x="513" y="-16" on="1"/>
        <pt x="490" y="246" on="1"/>
        <pt x="279" y="229" on="1"/>
        <pt x="255" y="-4" on="1"/>
        <pt x="155" y="-14" on="1"/>
        <pt x="98" y="650" on="1"/>
        <pt x="326" y="665" on="1"/>
        <pt x="288" y="306" on="1"/>
        <pt x="485" y="304" on="1"/>
        <pt x="456" y="648" on="1"/>
        <pt x="684" y="663" on="1"/>
        <pt x="613" y="-6" on="1"/>
      </contour>
      <contour>
        <pt x="728" y="447" on="1"/>
        <pt x="21" y="420" on="1"/>
        <pt x="40" y="500" on="1"/>
        <pt x="747" y="500" on="1"/>
      </contour>
    </TTGlyph>
    <TTGlyph name="Hcircumflex" xMin="98" yMin="-16" xMax="684" yMax="901">
      <contour>
        <pt x="513" y="-16" on="1"/>
        <pt x="490" y="246" on="1"/>
        <pt x="279" y="229" on="1"/>
        <pt x="255" y="-4" on="1"/>
        <pt x="155" y="-14" on="1"/>
        <pt x="98" y="650" on="1"/>
        <pt x="326" y="665" on="1"/>
        <pt x="288" y="306" on="1"/>
        <pt x="485" y="304" on="1"/>
        <pt x="456" y="648" on="1"/>
        <pt x="684" y="663" on="1"/>
        <pt x="613" y="-6" on="1"/>
      </contour>
      <contour>
        <pt x="233" y="764" on="1"/>
        <pt x="349" y="901" on="1"/>
        <pt x="536" y="809" on="1"/>
        <pt x="461" y="719" on="1"/>
        <pt x="385" y="781" on="1"/>
        <pt x="267" y="716" on="1"/>
      </contour>
    </TTGlyph>
    <TTGlyph name="I" xMin="98" yMin="-14" xMax="336" yMax="665">
      <contour>
        <pt x="155" y="-14" on="1"/>
        <pt x="98" y="650" on="1"/>
        <pt x="336" y="665" on="1"/>
        <pt x="265" y="-4" on="1"/>
      </contour>
    </TTGlyph>
    <TTGlyph name="IJ" xMin="98" yMin="-24" xMax="777" yMax="665">
      <contour>
        <pt x="155" y="-14" on="1"/>
        <pt x="98" y="650" on="1"/>
        <pt x="336" y="665" on="1"/>
        <pt x="265" y="-4" on="1"/>
      </contour>
      <contour>
        <pt x="550" y="-24" on="1"/>
        <pt x="489" y="-24" on="0"/>
        <pt x="423" y="10" on="1"/>
        <pt x="441" y="64" on="1"/>
        <pt x="485" y="50" on="0"/>
        <pt x="510" y="50" on="1"/>
        <pt x="582" y="50" on="0"/>
        <pt x="582" y="140" on="1"/>
        <pt x="582" y="154" on="0"/>
        <pt x="539" y="650" on="1"/>
        <pt x="777" y="665" on="1"/>
        <pt x="721" y="141" on="1"/>
        <pt x="703" y="-24" on="0"/>
      </contour>
    </TTGlyph>
    <TTGlyph name="Iacute" xMin="98" yMin="-14" xMax="345" yMax="903">
      <contour>
        <pt x="155" y="-14" on="1"/>
        <pt x="98" y="650" on="1"/>
        <pt x="336" y="665" on="1"/>
        <pt x="265" y="-4" on="1"/>
      </contour>
      <contour>
        <pt x="107" y="781" on="1"/>
        <pt x="285" y="903" on="1"/>
        <pt x="345" y="778" on="1"/>
        <pt x="141" y="713" on="1"/>
      </contour>
    </TTGlyph>
    <TTGlyph name="Ibreve" xMin="76" yMin="-14" xMax="375" yMax="888">
      <contour>
        <pt x="155" y="-14" on="1"/>
        <pt x="98" y="650" on="1"/>
        <pt x="336" y="665" on="1"/>
        <pt x="265" y="-4" on="1"/>
      </contour>
      <contour>
        <pt x="210" y="706" on="1"/>
        <pt x="159" y="706" on="0"/>
        <pt x="125" y="754" on="1"/>
        <pt x="99" y="791" on="0"/>
        <pt x="76" y="849" on="1"/>
        <pt x="129" y="882" on="1"/>
        <pt x="145" y="854" on="0"/>
        <pt x="162" y="829" on="0"/>
        <pt x="193" y="807" on="0"/>
        <pt x="241" y="807" on="0"/>
        <pt x="275" y="849" on="0"/>
        <pt x="291" y="888" on="1"/>
        <pt x="375" y="833" on="1"/>
        <pt x="300" y="706" on="0"/>
      </contour>
    </TTGlyph>
    <TTGlyph name="Icircumflex" xMin="64" yMin="-14" xMax="367" yMax="901">
      <contour>
        <pt x="155" y="-14" on="1"/>
        <pt x="98" y="650" on="1"/>
        <pt x="336" y="665" on="1"/>
        <pt x="265" y="-4" on="1"/>
      </contour>
      <contour>
        <pt x="64" y="764" on="1"/>
        <pt x="180" y="901" on="1"/>
        <pt x="367" y="809" on="1"/>
        <pt x="292" y="719" on="1"/>
        <pt x="216" y="781" on="1"/>
        <pt x="98" y="716" on="1"/>
      </contour>
    </TTGlyph>
    <TTGlyph name="Idieresis" xMin="35" yMin="-14" xMax="397" yMax="891">
      <contour>
        <pt x="155" y="-14" on="1"/>
        <pt x="98" y="650" on="1"/>
        <pt x="336" y="665" on="1"/>
        <pt x="265" y="-4" on="1"/>
      </contour>
      <contour>
        <pt x="35" y="773" on="0"/>
        <pt x="35" y="841" on="0"/>
        <pt x="80" y="891" on="0"/>
        <pt x="142" y="891" on="0"/>
        <pt x="187" y="841" on="0"/>
        <pt x="187" y="773" on="0"/>
        <pt x="142" y="723" on="0"/>
        <pt x="80" y="723" on="0"/>
      </contour>
      <contour>
        <pt x="245" y="773" on="0"/>
        <pt x="245" y="841" on="0"/>
        <pt x="290" y="891" on="0"/>
        <pt x="352" y="891" on="0"/>
        <pt x="397" y="841" on="0"/>
        <pt x="397" y="773" on="0"/>
        <pt x="352" y="723" on="0"/>
        <pt x="290" y="723" on="0"/>
      </contour>
    </TTGlyph>
    <TTGlyph name="Idotaccent" xMin="98" yMin="-14" xMax="336" yMax="883">
      <contour>
        <pt x="155" y="-14" on="1"/>
        <pt x="98" y="650" on="1"/>
        <pt x="336" y="665" on="1"/>
        <pt x="265" y="-4" on="1"/>
      </contour>
      <contour>
        <pt x="304" y="883" on="1"/>
        <pt x="304" y="803" on="0"/>
        <pt x="292" y="755" on="1"/>
        <pt x="247" y="738" on="0"/>
        <pt x="147" y="738" on="0"/>
        <pt x="127" y="743" on="1"/>
        <pt x="127" y="816" on="0"/>
        <pt x="155" y="871" on="1"/>
        <pt x="204" y="883" on="0"/>
      </contour>
    </TTGlyph>
    <TTGlyph name="Igrave" xMin="97" yMin="-14" xMax="336" yMax="903">
      <contour>
        <pt x="155" y="-14" on="1"/>
        <pt x="98" y="650" on="1"/>
        <pt x="336" y="665" on="1"/>
        <pt x="265" y="-4" on="1"/>
      </contour>
      <contour>
        <pt x="157" y="903" on="1"/>
        <pt x="335" y="781" on="1"/>
        <pt x="301" y="713" on="1"/>
        <pt x="97" y="778" on="1"/>
      </contour>
    </TTGlyph>
    <TTGlyph name="Imacron" xMin="91" yMin="-14" xMax="359" yMax="853">
      <contour>
        <pt x="155" y="-14" on="1"/>
        <pt x="98" y="650" on="1"/>
        <pt x="336" y="665" on="1"/>
        <pt x="265" y="-4" on="1"/>
      </contour>
      <contour>
        <pt x="352" y="761" on="1"/>
        <pt x="91" y="734" on="1"/>
        <pt x="98" y="853" on="1"/>
        <pt x="359" y="853" on="1"/>
      </contour>
    </TTGlyph>
    <TTGlyph name="Iogonek" xMin="95" yMin="-206" xMax="355" yMax="665">
      <contour>
        <pt x="155" y="-14" on="1"/>
        <pt x="265" y="-4" on="1"/>
        <pt x="336" y="665" on="1"/>
        <pt x="98" y="650" on="1"/>
      </contour>
      <contour>
        <pt x="355" y="-185" on="1"/>
        <pt x="300" y="-206" on="0"/>
        <pt x="190" y="-206" on="0"/>
        <pt x="95" y="-158" on="0"/>
        <pt x="95" y="-106" on="1"/>
        <pt x="95" y="-56" on="0"/>
        <pt x="144" y="-16" on="1"/>
        <pt x="184" y="17" on="0"/>
        <pt x="237" y="46" on="1"/>
        <pt x="265" y="-4" on="1"/>
        <pt x="183" y="-46" on="0"/>
        <pt x="156" y="-102" on="1"/>
        <pt x="188" y="-115" on="0"/>
        <pt x="261" y="-115" on="0"/>
        <pt x="321" y="-89" on="1"/>
      </contour>
    </TTGlyph>
    <TTGlyph name="Itilde" xMin="79" yMin="-14" xMax="372" yMax="892">
      <contour>
        <pt x="155" y="-14" on="1"/>
        <pt x="98" y="650" on="1"/>
        <pt x="336" y="665" on="1"/>
        <pt x="265" y="-4" on="1"/>
      </contour>
      <contour>
        <pt x="269" y="847" on="1"/>
        <pt x="292" y="847" on="0"/>
        <pt x="312" y="892" on="1"/>
        <pt x="372" y="876" on="1"/>
        <pt x="354" y="735" on="0"/>
        <pt x="287" y="735" on="1"/>
        <pt x="271" y="735" on="0"/>
        <pt x="200" y="761" on="0"/>
        <pt x="182" y="761" on="1"/>
        <pt x="159" y="761" on="0"/>
        <pt x="139" y="716" on="1"/>
        <pt x="79" y="732" on="1"/>
        <pt x="97" y="873" on="0"/>
        <pt x="164" y="873" on="1"/>
        <pt x="180" y="873" on="0"/>
        <pt x="251" y="847" on="0"/>
      </contour>
    </TTGlyph>
    <TTGlyph name="J" xMin="-8" yMin="-24" xMax="346" yMax="665">
      <contour>
        <pt x="119" y="-24" on="1"/>
        <pt x="58" y="-24" on="0"/>
        <pt x="-8" y="10" on="1"/>
        <pt x="10" y="64" on="1"/>
        <pt x="54" y="50" on="0"/>
        <pt x="79" y="50" on="1"/>
        <pt x="151" y="50" on="0"/>
        <pt x="151" y="140" on="1"/>
        <pt x="151" y="154" on="0"/>
        <pt x="108" y="650" on="1"/>
        <pt x="346" y="665" on="1"/>
        <pt x="290" y="141" on="1"/>
        <pt x="272" y="-24" on="0"/>
      </contour>
    </TTGlyph>
    <TTGlyph name="Jcircumflex" xMin="-8" yMin="-24" xMax="362" yMax="901">
      <contour>
        <pt x="119" y="-24" on="1"/>
        <pt x="58" y="-24" on="0"/>
        <pt x="-8" y="10" on="1"/>
        <pt x="10" y="64" on="1"/>
        <pt x="54" y="50" on="0"/>
        <pt x="79" y="50" on="1"/>
        <pt x="151" y="50" on="0"/>
        <pt x="151" y="140" on="1"/>
        <pt x="151" y="154" on="0"/>
        <pt x="108" y="650" on="1"/>
        <pt x="346" y="665" on="1"/>
        <pt x="290" y="141" on="1"/>
        <pt x="272" y="-24" on="0"/>
      </contour>
      <contour>
        <pt x="59" y="764" on="1"/>
        <pt x="175" y="901" on="1"/>
        <pt x="362" y="809" on="1"/>
        <pt x="287" y="719" on="1"/>
        <pt x="211" y="781" on="1"/>
        <pt x="93" y="716" on="1"/>
      </contour>
    </TTGlyph>
    <TTGlyph name="K" xMin="98" yMin="-14" xMax="661" yMax="665">
      <contour>
        <pt x="625" y="597" on="1"/>
        <pt x="414" y="376" on="1"/>
        <pt x="661" y="1" on="1"/>
        <pt x="449" y="-14" on="1"/>
        <pt x="314" y="271" on="1"/>
        <pt x="292" y="248" on="1"/>
        <pt x="265" y="-4" on="1"/>
        <pt x="155" y="-14" on="1"/>
        <pt x="98" y="650" on="1"/>
        <pt x="336" y="665" on="1"/>
        <pt x="304" y="363" on="1"/>
        <pt x="536" y="665" on="1"/>
      </contour>
    </TTGlyph>
    <TTGlyph name="L" xMin="93" yMin="-9" xMax="515" yMax="665">
      <contour>
        <pt x="511" y="0" on="1"/>
        <pt x="140" y="-9" on="1"/>
        <pt x="93" y="650" on="1"/>
        <pt x="331" y="665" on="1"/>
        <pt x="259" y="72" on="1"/>
        <pt x="515" y="103" on="1"/>
      </contour>
    </TTGlyph>
    <TTGlyph name="Lacute" xMin="93" yMin="-9" xMax="515" yMax="903">
      <contour>
        <pt x="511" y="0" on="1"/>
        <pt x="140" y="-9" on="1"/>
        <pt x="93" y="650" on="1"/>
        <pt x="331" y="665" on="1"/>
        <pt x="259" y="72" on="1"/>
        <pt x="515" y="103" on="1"/>
      </contour>
      <contour>
        <pt x="99" y="781" on="1"/>
        <pt x="277" y="903" on="1"/>
        <pt x="337" y="778" on="1"/>
        <pt x="133" y="713" on="1"/>
      </contour>
    </TTGlyph>
    <TTGlyph name="Lcaron" xMin="80" yMin="-9" xMax="515" yMax="891">
      <contour>
        <pt x="511" y="0" on="1"/>
        <pt x="140" y="-9" on="1"/>
        <pt x="93" y="650" on="1"/>
        <pt x="331" y="665" on="1"/>
        <pt x="259" y="72" on="1"/>
        <pt x="515" y="103" on="1"/>
      </contour>
      <contour>
        <pt x="383" y="798" on="1"/>
        <pt x="196" y="706" on="1"/>
        <pt x="80" y="843" on="1"/>
        <pt x="114" y="891" on="1"/>
        <pt x="232" y="826" on="1"/>
        <pt x="308" y="888" on="1"/>
      </contour>
    </TTGlyph>
    <TTGlyph name="Ldot" xMin="93" yMin="-9" xMax="547" yMax="665">
      <contour>
        <pt x="511" y="0" on="1"/>
        <pt x="140" y="-9" on="1"/>
        <pt x="93" y="650" on="1"/>
        <pt x="331" y="665" on="1"/>
        <pt x="259" y="72" on="1"/>
        <pt x="515" y="103" on="1"/>
      </contour>
      <contour>
        <pt x="361" y="289" on="0"/>
        <pt x="361" y="367" on="0"/>
        <pt x="406" y="416" on="0"/>
        <pt x="502" y="416" on="0"/>
        <pt x="547" y="367" on="0"/>
        <pt x="547" y="289" on="0"/>
        <pt x="502" y="240" on="0"/>
        <pt x="406" y="240" on="0"/>
      </contour>
    </TTGlyph>
    <TTGlyph name="Lslash" xMin="18" yMin="-9" xMax="515" yMax="665">
      <contour>
        <pt x="511" y="0" on="1"/>
        <pt x="140" y="-9" on="1"/>
        <pt x="93" y="650" on="1"/>
        <pt x="331" y="665" on="1"/>
        <pt x="259" y="72" on="1"/>
        <pt x="515" y="103" on="1"/>
      </contour>
      <contour>
        <pt x="394" y="474" on="1"/>
        <pt x="55" y="281" on="1"/>
        <pt x="18" y="356" on="1"/>
        <pt x="369" y="525" on="1"/>
      </contour>
    </TTGlyph>
    <TTGlyph name="M" xMin="80" yMin="-15" xMax="859" yMax="665">
      <contour>
        <pt x="769" y="-15" on="1"/>
        <pt x="626" y="517" on="1"/>
        <pt x="618" y="517" on="1"/>
        <pt x="509" y="0" on="1"/>
        <pt x="419" y="-15" on="1"/>
        <pt x="202" y="478" on="1"/>
        <pt x="196" y="478" on="1"/>
        <pt x="180" y="0" on="1"/>
        <pt x="80" y="-5" on="1"/>
        <pt x="127" y="650" on="1"/>
        <pt x="369" y="660" on="1"/>
        <pt x="470" y="184" on="1"/>
        <pt x="587" y="665" on="1"/>
        <pt x="829" y="650" on="1"/>
        <pt x="859" y="0" on="1"/>
      </contour>
    </TTGlyph>
    <TTGlyph name="N" xMin="80" yMin="-15" xMax="642" yMax="665">
      <contour>
        <pt x="642" y="660" on="1"/>
        <pt x="599" y="0" on="1"/>
        <pt x="509" y="-15" on="1"/>
        <pt x="185" y="521" on="1"/>
        <pt x="177" y="521" on="1"/>
        <pt x="180" y="0" on="1"/>
        <pt x="80" y="-5" on="1"/>
        <pt x="107" y="650" on="1"/>
        <pt x="349" y="665" on="1"/>
        <pt x="524" y="166" on="1"/>
        <pt x="532" y="166" on="1"/>
        <pt x="542" y="655" on="1"/>
      </contour>
    </TTGlyph>
    <TTGlyph name="Nacute" xMin="80" yMin="-15" xMax="642" yMax="903">
      <contour>
        <pt x="642" y="660" on="1"/>
        <pt x="599" y="0" on="1"/>
        <pt x="509" y="-15" on="1"/>
        <pt x="185" y="521" on="1"/>
        <pt x="177" y="521" on="1"/>
        <pt x="180" y="0" on="1"/>
        <pt x="80" y="-5" on="1"/>
        <pt x="107" y="650" on="1"/>
        <pt x="349" y="665" on="1"/>
        <pt x="524" y="166" on="1"/>
        <pt x="532" y="166" on="1"/>
        <pt x="542" y="655" on="1"/>
      </contour>
      <contour>
        <pt x="267" y="781" on="1"/>
        <pt x="445" y="903" on="1"/>
        <pt x="505" y="778" on="1"/>
        <pt x="301" y="713" on="1"/>
      </contour>
    </TTGlyph>
    <TTGlyph name="Ncaron" xMin="80" yMin="-15" xMax="642" yMax="891">
      <contour>
        <pt x="642" y="660" on="1"/>
        <pt x="599" y="0" on="1"/>
        <pt x="509" y="-15" on="1"/>
        <pt x="185" y="521" on="1"/>
        <pt x="177" y="521" on="1"/>
        <pt x="180" y="0" on="1"/>
        <pt x="80" y="-5" on="1"/>
        <pt x="107" y="650" on="1"/>
        <pt x="349" y="665" on="1"/>
        <pt x="524" y="166" on="1"/>
        <pt x="532" y="166" on="1"/>
        <pt x="542" y="655" on="1"/>
      </contour>
      <contour>
        <pt x="537" y="798" on="1"/>
        <pt x="350" y="706" on="1"/>
        <pt x="234" y="843" on="1"/>
        <pt x="268" y="891" on="1"/>
        <pt x="386" y="826" on="1"/>
        <pt x="462" y="888" on="1"/>
      </contour>
    </TTGlyph>
    <TTGlyph name="Ntilde" xMin="80" yMin="-15" xMax="642" yMax="892">
      <contour>
        <pt x="642" y="660" on="1"/>
        <pt x="599" y="0" on="1"/>
        <pt x="509" y="-15" on="1"/>
        <pt x="185" y="521" on="1"/>
        <pt x="177" y="521" on="1"/>
        <pt x="180" y="0" on="1"/>
        <pt x="80" y="-5" on="1"/>
        <pt x="107" y="650" on="1"/>
        <pt x="349" y="665" on="1"/>
        <pt x="524" y="166" on="1"/>
        <pt x="532" y="166" on="1"/>
        <pt x="542" y="655" on="1"/>
      </contour>
      <contour>
        <pt x="429" y="847" on="1"/>
        <pt x="452" y="847" on="0"/>
        <pt x="472" y="892" on="1"/>
        <pt x="532" y="876" on="1"/>
        <pt x="514" y="735" on="0"/>
        <pt x="447" y="735" on="1"/>
        <pt x="431" y="735" on="0"/>
        <pt x="360" y="761" on="0"/>
        <pt x="342" y="761" on="1"/>
        <pt x="319" y="761" on="0"/>
        <pt x="299" y="716" on="1"/>
        <pt x="239" y="732" on="1"/>
        <pt x="257" y="873" on="0"/>
        <pt x="324" y="873" on="1"/>
        <pt x="340" y="873" on="0"/>
        <pt x="411" y="847" on="0"/>
      </contour>
    </TTGlyph>
    <TTGlyph name="O" xMin="60" yMin="-25" xMax="539" yMax="690">
      <contour>
        <pt x="539" y="207" on="1"/>
        <pt x="539" y="146" on="0"/>
        <pt x="519" y="65" on="0"/>
        <pt x="493" y="34" on="1"/>
        <pt x="443" y="-24" on="0"/>
        <pt x="156" y="-24" on="0"/>
        <pt x="77" y="41" on="1"/>
        <pt x="60" y="125" on="0"/>
        <pt x="60" y="207" on="1"/>
        <pt x="60" y="373" on="0"/>
        <pt x="185" y="635" on="0"/>
        <pt x="268" y="690" on="1"/>
        <pt x="385" y="642" on="0"/>
        <pt x="539" y="379" on="0"/>
      </contour>
      <contour>
        <pt x="418" y="252" on="1"/>
        <pt x="418" y="406" on="0"/>
        <pt x="367" y="516" on="1"/>
        <pt x="270" y="427" on="0"/>
        <pt x="161" y="193" on="0"/>
        <pt x="161" y="80" on="1"/>
        <pt x="195" y="73" on="0"/>
        <pt x="242" y="73" on="1"/>
        <pt x="334" y="73" on="0"/>
        <pt x="400" y="96" on="1"/>
        <pt x="418" y="174" on="0"/>
      </contour>
    </TTGlyph>
    <TTGlyph name="OE" xMin="60" yMin="-24" xMax="778" yMax="690">
      <contour>
        <pt x="300" y="-24" on="1"/>
        <pt x="156" y="-24" on="0"/>
        <pt x="77" y="41" on="1"/>
        <pt x="60" y="125" on="0"/>
        <pt x="60" y="207" on="1"/>
        <pt x="60" y="373" on="0"/>
        <pt x="185" y="635" on="0"/>
        <pt x="268" y="690" on="1"/>
        <pt x="303" y="675" on="0"/>
        <pt x="338" y="650" on="1"/>
        <pt x="777" y="664" on="1"/>
        <pt x="774" y="597" on="1"/>
        <pt x="563" y="572" on="1"/>
        <pt x="537" y="365" on="1"/>
        <pt x="750" y="367" on="1"/>
        <pt x="755" y="277" on="1"/>
        <pt x="529" y="294" on="1"/>
        <pt x="502" y="71" on="1"/>
        <pt x="778" y="103" on="1"/>
        <pt x="774" y="0" on="1"/>
        <pt x="424" y="-8" on="1"/>
        <pt x="373" y="-24" on="0"/>
      </contour>
      <contour>
        <pt x="161" y="80" on="1"/>
        <pt x="199" y="72" on="0"/>
        <pt x="308" y="72" on="0"/>
        <pt x="376" y="89" on="1"/>
        <pt x="347" y="497" on="1"/>
        <pt x="259" y="409" on="0"/>
        <pt x="161" y="187" on="0"/>
      </contour>
    </TTGlyph>
    <TTGlyph name="Oacute" xMin="60" yMin="-25" xMax="539" yMax="903">
      <contour>
        <pt x="539" y="207" on="1"/>
        <pt x="539" y="146" on="0"/>
        <pt x="519" y="65" on="0"/>
        <pt x="493" y="34" on="1"/>
        <pt x="443" y="-24" on="0"/>
        <pt x="156" y="-24" on="0"/>
        <pt x="77" y="41" on="1"/>
        <pt x="60" y="125" on="0"/>
        <pt x="60" y="207" on="1"/>
        <pt x="60" y="373" on="0"/>
        <pt x="185" y="635" on="0"/>
        <pt x="268" y="690" on="1"/>
        <pt x="385" y="642" on="0"/>
        <pt x="539" y="379" on="0"/>
      </contour>
      <contour>
        <pt x="418" y="252" on="1"/>
        <pt x="418" y="406" on="0"/>
        <pt x="367" y="516" on="1"/>
        <pt x="270" y="427" on="0"/>
        <pt x="161" y="193" on="0"/>
        <pt x="161" y="80" on="1"/>
        <pt x="195" y="73" on="0"/>
        <pt x="242" y="73" on="1"/>
        <pt x="334" y="73" on="0"/>
        <pt x="400" y="96" on="1"/>
        <pt x="418" y="174" on="0"/>
      </contour>
      <contour>
        <pt x="185" y="781" on="1"/>
        <pt x="363" y="903" on="1"/>
        <pt x="423" y="778" on="1"/>
        <pt x="219" y="713" on="1"/>
      </contour>
    </TTGlyph>
    <TTGlyph name="Obreve" xMin="60" yMin="-25" xMax="539" yMax="888">
      <contour>
        <pt x="539" y="207" on="1"/>
        <pt x="539" y="146" on="0"/>
        <pt x="519" y="65" on="0"/>
        <pt x="493" y="34" on="1"/>
        <pt x="443" y="-24" on="0"/>
        <pt x="156" y="-24" on="0"/>
        <pt x="77" y="41" on="1"/>
        <pt x="60" y="125" on="0"/>
        <pt x="60" y="207" on="1"/>
        <pt x="60" y="373" on="0"/>
        <pt x="185" y="635" on="0"/>
        <pt x="268" y="690" on="1"/>
        <pt x="385" y="642" on="0"/>
        <pt x="539" y="379" on="0"/>
      </contour>
      <contour>
        <pt x="418" y="252" on="1"/>
        <pt x="418" y="406" on="0"/>
        <pt x="367" y="516" on="1"/>
        <pt x="270" y="427" on="0"/>
        <pt x="161" y="193" on="0"/>
        <pt x="161" y="80" on="1"/>
        <pt x="195" y="73" on="0"/>
        <pt x="242" y="73" on="1"/>
        <pt x="334" y="73" on="0"/>
        <pt x="400" y="96" on="1"/>
        <pt x="418" y="174" on="0"/>
      </contour>
      <contour>
        <pt x="279" y="706" on="1"/>
        <pt x="228" y="706" on="0"/>
        <pt x="194" y="754" on="1"/>
        <pt x="168" y="791" on="0"/>
        <pt x="145" y="849" on="1"/>
        <pt x="198" y="882" on="1"/>
        <pt x="214" y="854" on="0"/>
        <pt x="231" y="829" on="0"/>
        <pt x="262" y="807" on="0"/>
        <pt x="310" y="807" on="0"/>
        <pt x="344" y="849" on="0"/>
        <pt x="360" y="888" on="1"/>
        <pt x="444" y="833" on="1"/>
        <pt x="369" y="706" on="0"/>
      </contour>
    </TTGlyph>
    <TTGlyph name="Ocircumflex" xMin="60" yMin="-25" xMax="539" yMax="901">
      <contour>
        <pt x="539" y="207" on="1"/>
        <pt x="539" y="146" on="0"/>
        <pt x="519" y="65" on="0"/>
        <pt x="493" y="34" on="1"/>
        <pt x="443" y="-24" on="0"/>
        <pt x="156" y="-24" on="0"/>
        <pt x="77" y="41" on="1"/>
        <pt x="60" y="125" on="0"/>
        <pt x="60" y="207" on="1"/>
        <pt x="60" y="373" on="0"/>
        <pt x="185" y="635" on="0"/>
        <pt x="268" y="690" on="1"/>
        <pt x="385" y="642" on="0"/>
        <pt x="539" y="379" on="0"/>
      </contour>
      <contour>
        <pt x="418" y="252" on="1"/>
        <pt x="418" y="406" on="0"/>
        <pt x="367" y="516" on="1"/>
        <pt x="270" y="427" on="0"/>
        <pt x="161" y="193" on="0"/>
        <pt x="161" y="80" on="1"/>
        <pt x="195" y="73" on="0"/>
        <pt x="242" y="73" on="1"/>
        <pt x="334" y="73" on="0"/>
        <pt x="400" y="96" on="1"/>
        <pt x="418" y="174" on="0"/>
      </contour>
      <contour>
        <pt x="143" y="764" on="1"/>
        <pt x="259" y="901" on="1"/>
        <pt x="446" y="809" on="1"/>
        <pt x="371" y="719" on="1"/>
        <pt x="295" y="781" on="1"/>
        <pt x="177" y="716" on="1"/>
      </contour>
    </TTGlyph>
    <TTGlyph name="Odieresis" xMin="60" yMin="-25" xMax="539" yMax="891">
      <contour>
        <pt x="539" y="207" on="1"/>
        <pt x="539" y="146" on="0"/>
        <pt x="519" y="65" on="0"/>
        <pt x="493" y="34" on="1"/>
        <pt x="443" y="-24" on="0"/>
        <pt x="156" y="-24" on="0"/>
        <pt x="77" y="41" on="1"/>
        <pt x="60" y="125" on="0"/>
        <pt x="60" y="207" on="1"/>
        <pt x="60" y="373" on="0"/>
        <pt x="185" y="635" on="0"/>
        <pt x="268" y="690" on="1"/>
        <pt x="385" y="642" on="0"/>
        <pt x="539" y="379" on="0"/>
      </contour>
      <contour>
        <pt x="418" y="252" on="1"/>
        <pt x="418" y="406" on="0"/>
        <pt x="367" y="516" on="1"/>
        <pt x="270" y="427" on="0"/>
        <pt x="161" y="193" on="0"/>
        <pt x="161" y="80" on="1"/>
        <pt x="195" y="73" on="0"/>
        <pt x="242" y="73" on="1"/>
        <pt x="334" y="73" on="0"/>
        <pt x="400" y="96" on="1"/>
        <pt x="418" y="174" on="0"/>
      </contour>
      <contour>
        <pt x="113" y="773" on="0"/>
        <pt x="113" y="841" on="0"/>
        <pt x="158" y="891" on="0"/>
        <pt x="220" y="891" on="0"/>
        <pt x="265" y="841" on="0"/>
        <pt x="265" y="773" on="0"/>
        <pt x="220" y="723" on="0"/>
        <pt x="158" y="723" on="0"/>
      </contour>
      <contour>
        <pt x="323" y="773" on="0"/>
        <pt x="323" y="841" on="0"/>
        <pt x="368" y="891" on="0"/>
        <pt x="430" y="891" on="0"/>
        <pt x="475" y="841" on="0"/>
        <pt x="475" y="773" on="0"/>
        <pt x="430" y="723" on="0"/>
        <pt x="368" y="723" on="0"/>
      </contour>
    </TTGlyph>
    <TTGlyph name="Ograve" xMin="60" yMin="-25" xMax="539" yMax="903">
      <contour>
        <pt x="539" y="207" on="1"/>
        <pt x="539" y="146" on="0"/>
        <pt x="519" y="65" on="0"/>
        <pt x="493" y="34" on="1"/>
        <pt x="443" y="-24" on="0"/>
        <pt x="156" y="-24" on="0"/>
        <pt x="77" y="41" on="1"/>
        <pt x="60" y="125" on="0"/>
        <pt x="60" y="207" on="1"/>
        <pt x="60" y="373" on="0"/>
        <pt x="185" y="635" on="0"/>
        <pt x="268" y="690" on="1"/>
        <pt x="385" y="642" on="0"/>
        <pt x="539" y="379" on="0"/>
      </contour>
      <contour>
        <pt x="418" y="252" on="1"/>
        <pt x="418" y="406" on="0"/>
        <pt x="367" y="516" on="1"/>
        <pt x="270" y="427" on="0"/>
        <pt x="161" y="193" on="0"/>
        <pt x="161" y="80" on="1"/>
        <pt x="195" y="73" on="0"/>
        <pt x="242" y="73" on="1"/>
        <pt x="334" y="73" on="0"/>
        <pt x="400" y="96" on="1"/>
        <pt x="418" y="174" on="0"/>
      </contour>
      <contour>
        <pt x="235" y="903" on="1"/>
        <pt x="413" y="781" on="1"/>
        <pt x="379" y="713" on="1"/>
        <pt x="175" y="778" on="1"/>
      </contour>
    </TTGlyph>
    <TTGlyph name="Ohungarumlaut" xMin="60" yMin="-25" xMax="540" yMax="906">
      <contour>
        <pt x="539" y="207" on="1"/>
        <pt x="539" y="146" on="0"/>
        <pt x="519" y="65" on="0"/>
        <pt x="493" y="34" on="1"/>
        <pt x="443" y="-24" on="0"/>
        <pt x="156" y="-24" on="0"/>
        <pt x="77" y="41" on="1"/>
        <pt x="60" y="125" on="0"/>
        <pt x="60" y="207" on="1"/>
        <pt x="60" y="373" on="0"/>
        <pt x="185" y="635" on="0"/>
        <pt x="268" y="690" on="1"/>
        <pt x="385" y="642" on="0"/>
        <pt x="539" y="379" on="0"/>
      </contour>
      <contour>
        <pt x="418" y="252" on="1"/>
        <pt x="418" y="406" on="0"/>
        <pt x="367" y="516" on="1"/>
        <pt x="270" y="427" on="0"/>
        <pt x="161" y="193" on="0"/>
        <pt x="161" y="80" on="1"/>
        <pt x="195" y="73" on="0"/>
        <pt x="242" y="73" on="1"/>
        <pt x="334" y="73" on="0"/>
        <pt x="400" y="96" on="1"/>
        <pt x="418" y="174" on="0"/>
      </contour>
      <contour>
        <pt x="109" y="759" on="1"/>
        <pt x="243" y="906" on="1"/>
        <pt x="320" y="803" on="1"/>
        <pt x="145" y="708" on="1"/>
      </contour>
      <contour>
        <pt x="329" y="759" on="1"/>
        <pt x="463" y="906" on="1"/>
        <pt x="540" y="803" on="1"/>
        <pt x="365" y="708" on="1"/>
      </contour>
    </TTGlyph>
    <TTGlyph name="Omacron" xMin="60" yMin="-25" xMax="539" yMax="853">
      <contour>
        <pt x="539" y="207" on="1"/>
        <pt x="539" y="146" on="0"/>
        <pt x="519" y="65" on="0"/>
        <pt x="493" y="34" on="1"/>
        <pt x="443" y="-24" on="0"/>
        <pt x="156" y="-24" on="0"/>
        <pt x="77" y="41" on="1"/>
        <pt x="60" y="125" on="0"/>
        <pt x="60" y="207" on="1"/>
        <pt x="60" y="373" on="0"/>
        <pt x="185" y="635" on="0"/>
        <pt x="268" y="690" on="1"/>
        <pt x="385" y="642" on="0"/>
        <pt x="539" y="379" on="0"/>
      </contour>
      <contour>
        <pt x="418" y="252" on="1"/>
        <pt x="418" y="406" on="0"/>
        <pt x="367" y="516" on="1"/>
        <pt x="270" y="427" on="0"/>
        <pt x="161" y="193" on="0"/>
        <pt x="161" y="80" on="1"/>
        <pt x="195" y="73" on="0"/>
        <pt x="242" y="73" on="1"/>
        <pt x="334" y="73" on="0"/>
        <pt x="400" y="96" on="1"/>
        <pt x="418" y="174" on="0"/>
      </contour>
      <contour>
        <pt x="421" y="761" on="1"/>
        <pt x="160" y="734" on="1"/>
        <pt x="167" y="853" on="1"/>
        <pt x="428" y="853" on="1"/>
      </contour>
    </TTGlyph>
    <TTGlyph name="Omega" xMin="70" yMin="0" xMax="718" yMax="658">
      <contour>
        <pt x="70" y="454" on="1"/>
        <pt x="70" y="600" on="0"/>
        <pt x="196" y="636" on="1"/>
        <pt x="269" y="658" on="0"/>
        <pt x="457" y="658" on="0"/>
        <pt x="548" y="650" on="0"/>
        <pt x="635" y="624" on="0"/>
        <pt x="661" y="602" on="1"/>
        <pt x="718" y="554" on="0"/>
        <pt x="718" y="369" on="0"/>
        <pt x="608" y="171" on="0"/>
        <pt x="524" y="101" on="1"/>
        <pt x="714" y="74" on="1"/>
        <pt x="717" y="0" on="1"/>
        <pt x="490" y="0" on="1"/>
        <pt x="441" y="113" on="1"/>
        <pt x="485" y="159" on="0"/>
        <pt x="536" y="323" on="0"/>
        <pt x="536" y="471" on="0"/>
        <pt x="466" y="583" on="0"/>
        <pt x="321" y="583" on="0"/>
        <pt x="252" y="471" on="0"/>
        <pt x="252" y="323" on="0"/>
        <pt x="303" y="159" on="0"/>
        <pt x="347" y="113" on="1"/>
        <pt x="298" y="0" on="1"/>
        <pt x="71" y="0" on="1"/>
        <pt x="74" y="74" on="1"/>
        <pt x="263" y="101" on="1"/>
        <pt x="179" y="170" on="0"/>
        <pt x="70" y="369" on="0"/>
      </contour>
    </TTGlyph>
    <TTGlyph name="Oslash" xMin="60" yMin="-126" xMax="539" yMax="734">
      <contour>
        <pt x="471" y="719" on="1"/>
        <pt x="242" y="-126" on="1"/>
        <pt x="176" y="-111" on="1"/>
        <pt x="405" y="734" on="1"/>
      </contour>
      <contour>
        <pt x="539" y="207" on="1"/>
        <pt x="539" y="379" on="0"/>
        <pt x="385" y="642" on="0"/>
        <pt x="268" y="690" on="1"/>
        <pt x="185" y="635" on="0"/>
        <pt x="60" y="373" on="0"/>
        <pt x="60" y="207" on="1"/>
        <pt x="60" y="125" on="0"/>
        <pt x="77" y="41" on="1"/>
        <pt x="156" y="-24" on="0"/>
        <pt x="443" y="-24" on="0"/>
        <pt x="493" y="34" on="1"/>
        <pt x="519" y="65" on="0"/>
        <pt x="539" y="146" on="0"/>
      </contour>
      <contour>
        <pt x="418" y="252" on="1"/>
        <pt x="418" y="174" on="0"/>
        <pt x="400" y="96" on="1"/>
        <pt x="334" y="73" on="0"/>
        <pt x="242" y="73" on="1"/>
        <pt x="195" y="73" on="0"/>
        <pt x="161" y="80" on="1"/>
        <pt x="161" y="193" on="0"/>
        <pt x="270" y="427" on="0"/>
        <pt x="367" y="516" on="1"/>
        <pt x="418" y="406" on="0"/>
      </contour>
    </TTGlyph>
    <TTGlyph name="Oslashacute" xMin="60" yMin="-126" xMax="539" yMax="903">
      <contour>
        <pt x="466" y="700" on="1"/>
        <pt x="242" y="-126" on="1"/>
        <pt x="176" y="-111" on="1"/>
        <pt x="400" y="715" on="1"/>
      </contour>
      <contour>
        <pt x="539" y="207" on="1"/>
        <pt x="539" y="379" on="0"/>
        <pt x="385" y="642" on="0"/>
        <pt x="268" y="690" on="1"/>
        <pt x="185" y="635" on="0"/>
        <pt x="60" y="373" on="0"/>
        <pt x="60" y="207" on="1"/>
        <pt x="60" y="125" on="0"/>
        <pt x="77" y="41" on="1"/>
        <pt x="156" y="-24" on="0"/>
        <pt x="443" y="-24" on="0"/>
        <pt x="493" y="34" on="1"/>
        <pt x="519" y="65" on="0"/>
        <pt x="539" y="146" on="0"/>
      </contour>
      <contour>
        <pt x="418" y="252" on="1"/>
        <pt x="418" y="174" on="0"/>
        <pt x="400" y="96" on="1"/>
        <pt x="334" y="73" on="0"/>
        <pt x="242" y="73" on="1"/>
        <pt x="195" y="73" on="0"/>
        <pt x="161" y="80" on="1"/>
        <pt x="161" y="193" on="0"/>
        <pt x="270" y="427" on="0"/>
        <pt x="367" y="516" on="1"/>
        <pt x="418" y="406" on="0"/>
      </contour>
      <contour>
        <pt x="185" y="781" on="1"/>
        <pt x="363" y="903" on="1"/>
        <pt x="423" y="778" on="1"/>
        <pt x="219" y="713" on="1"/>
      </contour>
    </TTGlyph>
    <TTGlyph name="Otilde" xMin="60" yMin="-25" xMax="539" yMax="892">
      <contour>
        <pt x="539" y="207" on="1"/>
        <pt x="539" y="146" on="0"/>
        <pt x="519" y="65" on="0"/>
        <pt x="493" y="34" on="1"/>
        <pt x="443" y="-24" on="0"/>
        <pt x="156" y="-24" on="0"/>
        <pt x="77" y="41" on="1"/>
        <pt x="60" y="125" on="0"/>
        <pt x="60" y="207" on="1"/>
        <pt x="60" y="373" on="0"/>
        <pt x="185" y="635" on="0"/>
        <pt x="268" y="690" on="1"/>
        <pt x="385" y="642" on="0"/>
        <pt x="539" y="379" on="0"/>
      </contour>
      <contour>
        <pt x="418" y="252" on="1"/>
        <pt x="418" y="406" on="0"/>
        <pt x="367" y="516" on="1"/>
        <pt x="270" y="427" on="0"/>
        <pt x="161" y="193" on="0"/>
        <pt x="161" y="80" on="1"/>
        <pt x="195" y="73" on="0"/>
        <pt x="242" y="73" on="1"/>
        <pt x="334" y="73" on="0"/>
        <pt x="400" y="96" on="1"/>
        <pt x="418" y="174" on="0"/>
      </contour>
      <contour>
        <pt x="348" y="847" on="1"/>
        <pt x="371" y="847" on="0"/>
        <pt x="391" y="892" on="1"/>
        <pt x="451" y="876" on="1"/>
        <pt x="433" y="735" on="0"/>
        <pt x="366" y="735" on="1"/>
        <pt x="350" y="735" on="0"/>
        <pt x="279" y="761" on="0"/>
        <pt x="261" y="761" on="1"/>
        <pt x="238" y="761" on="0"/>
        <pt x="218" y="716" on="1"/>
        <pt x="158" y="732" on="1"/>
        <pt x="176" y="873" on="0"/>
        <pt x="243" y="873" on="1"/>
        <pt x="259" y="873" on="0"/>
        <pt x="330" y="847" on="0"/>
      </contour>
    </TTGlyph>
    <TTGlyph name="P" xMin="98" yMin="-14" xMax="619" yMax="675">
      <contour>
        <pt x="98" y="630" on="1"/>
        <pt x="238" y="675" on="0"/>
        <pt x="524" y="675" on="0"/>
        <pt x="601" y="627" on="1"/>
        <pt x="619" y="573" on="0"/>
        <pt x="619" y="524" on="1"/>
        <pt x="619" y="409" on="0"/>
        <pt x="429" y="254" on="0"/>
        <pt x="279" y="220" on="1"/>
        <pt x="255" y="-4" on="1"/>
        <pt x="155" y="-14" on="1"/>
      </contour>
      <contour>
        <pt x="426" y="495" on="1"/>
        <pt x="426" y="572" on="0"/>
        <pt x="363" y="610" on="1"/>
        <pt x="345" y="610" on="0"/>
        <pt x="319" y="603" on="1"/>
        <pt x="286" y="288" on="1"/>
        <pt x="351" y="324" on="0"/>
        <pt x="426" y="438" on="0"/>
      </contour>
    </TTGlyph>
    <TTGlyph name="Q" xMin="60" yMin="-165" xMax="539" yMax="690">
      <contour>
        <pt x="539" y="207" on="1"/>
        <pt x="539" y="115" on="0"/>
        <pt x="488" y="11" on="0"/>
        <pt x="420" y="-9" on="1"/>
        <pt x="532" y="-152" on="1"/>
        <pt x="352" y="-165" on="1"/>
        <pt x="295" y="-24" on="1"/>
        <pt x="153" y="-23" on="0"/>
        <pt x="77" y="41" on="1"/>
        <pt x="60" y="125" on="0"/>
        <pt x="60" y="207" on="1"/>
        <pt x="60" y="373" on="0"/>
        <pt x="185" y="635" on="0"/>
        <pt x="268" y="690" on="1"/>
        <pt x="385" y="642" on="0"/>
        <pt x="539" y="379" on="0"/>
      </contour>
      <contour>
        <pt x="418" y="252" on="1"/>
        <pt x="418" y="406" on="0"/>
        <pt x="367" y="516" on="1"/>
        <pt x="270" y="427" on="0"/>
        <pt x="161" y="193" on="0"/>
        <pt x="161" y="80" on="1"/>
        <pt x="195" y="73" on="0"/>
        <pt x="242" y="73" on="1"/>
        <pt x="334" y="73" on="0"/>
        <pt x="400" y="96" on="1"/>
        <pt x="418" y="174" on="0"/>
      </contour>
    </TTGlyph>
    <TTGlyph name="R" xMin="98" yMin="-38" xMax="652" yMax="675">
      <contour>
        <pt x="311" y="254" on="1"/>
        <pt x="293" y="248" on="0"/>
        <pt x="282" y="248" on="1"/>
        <pt x="255" y="-4" on="1"/>
        <pt x="155" y="-14" on="1"/>
        <pt x="98" y="630" on="1"/>
        <pt x="151" y="647" on="0"/>
        <pt x="326" y="675" on="0"/>
        <pt x="406" y="675" on="1"/>
        <pt x="534" y="675" on="0"/>
        <pt x="611" y="627" on="1"/>
        <pt x="629" y="573" on="0"/>
        <pt x="629" y="528" on="1"/>
        <pt x="629" y="402" on="0"/>
        <pt x="484" y="320" on="1"/>
        <pt x="652" y="1" on="1"/>
        <pt x="582" y="-38" on="1"/>
      </contour>
      <contour>
        <pt x="436" y="501" on="1"/>
        <pt x="436" y="572" on="0"/>
        <pt x="373" y="610" on="1"/>
        <pt x="349" y="610" on="0"/>
        <pt x="319" y="600" on="1"/>
        <pt x="289" y="312" on="1"/>
        <pt x="358" y="343" on="0"/>
        <pt x="436" y="448" on="0"/>
      </contour>
    </TTGlyph>
    <TTGlyph name="Racute" xMin="98" yMin="-38" xMax="652" yMax="903">
      <contour>
        <pt x="311" y="254" on="1"/>
        <pt x="293" y="248" on="0"/>
        <pt x="282" y="248" on="1"/>
        <pt x="255" y="-4" on="1"/>
        <pt x="155" y="-14" on="1"/>
        <pt x="98" y="630" on="1"/>
        <pt x="151" y="647" on="0"/>
        <pt x="326" y="675" on="0"/>
        <pt x="406" y="675" on="1"/>
        <pt x="534" y="675" on="0"/>
        <pt x="611" y="627" on="1"/>
        <pt x="629" y="573" on="0"/>
        <pt x="629" y="528" on="1"/>
        <pt x="629" y="402" on="0"/>
        <pt x="484" y="320" on="1"/>
        <pt x="652" y="1" on="1"/>
        <pt x="582" y="-38" on="1"/>
      </contour>
      <contour>
        <pt x="436" y="501" on="1"/>
        <pt x="436" y="572" on="0"/>
        <pt x="373" y="610" on="1"/>
        <pt x="349" y="610" on="0"/>
        <pt x="319" y="600" on="1"/>
        <pt x="289" y="312" on="1"/>
        <pt x="358" y="343" on="0"/>
        <pt x="436" y="448" on="0"/>
      </contour>
      <contour>
        <pt x="254" y="781" on="1"/>
        <pt x="432" y="903" on="1"/>
        <pt x="492" y="778" on="1"/>
        <pt x="288" y="713" on="1"/>
      </contour>
    </TTGlyph>
    <TTGlyph name="Rcaron" xMin="98" yMin="-38" xMax="652" yMax="891">
      <contour>
        <pt x="311" y="254" on="1"/>
        <pt x="293" y="248" on="0"/>
        <pt x="282" y="248" on="1"/>
        <pt x="255" y="-4" on="1"/>
        <pt x="155" y="-14" on="1"/>
        <pt x="98" y="630" on="1"/>
        <pt x="151" y="647" on="0"/>
        <pt x="326" y="675" on="0"/>
        <pt x="406" y="675" on="1"/>
        <pt x="534" y="675" on="0"/>
        <pt x="611" y="627" on="1"/>
        <pt x="629" y="573" on="0"/>
        <pt x="629" y="528" on="1"/>
        <pt x="629" y="402" on="0"/>
        <pt x="484" y="320" on="1"/>
        <pt x="652" y="1" on="1"/>
        <pt x="582" y="-38" on="1"/>
      </contour>
      <contour>
        <pt x="436" y="501" on="1"/>
        <pt x="436" y="572" on="0"/>
        <pt x="373" y="610" on="1"/>
        <pt x="349" y="610" on="0"/>
        <pt x="319" y="600" on="1"/>
        <pt x="289" y="312" on="1"/>
        <pt x="358" y="343" on="0"/>
        <pt x="436" y="448" on="0"/>
      </contour>
      <contour>
        <pt x="524" y="798" on="1"/>
        <pt x="337" y="706" on="1"/>
        <pt x="221" y="843" on="1"/>
        <pt x="255" y="891" on="1"/>
        <pt x="373" y="826" on="1"/>
        <pt x="449" y="888" on="1"/>
      </contour>
    </TTGlyph>
    <TTGlyph name="S" xMin="49" yMin="-45" xMax="382" yMax="700">
      <contour>
        <pt x="49" y="440" on="1"/>
        <pt x="49" y="581" on="0"/>
        <pt x="199" y="700" on="1"/>
        <pt x="382" y="578" on="1"/>
        <pt x="258" y="500" on="0"/>
        <pt x="258" y="413" on="1"/>
        <pt x="258" y="376" on="0"/>
        <pt x="308" y="294" on="0"/>
        <pt x="359" y="214" on="0"/>
        <pt x="359" y="179" on="1"/>
        <pt x="359" y="34" on="0"/>
        <pt x="159" y="-45" on="1"/>
        <pt x="111" y="20" on="1"/>
        <pt x="160" y="47" on="0"/>
        <pt x="198" y="97" on="0"/>
        <pt x="198" y="157" on="0"/>
        <pt x="151" y="232" on="0"/>
        <pt x="96" y="294" on="0"/>
        <pt x="49" y="390" on="0"/>
      </contour>
    </TTGlyph>
    <TTGlyph name="Sacute" xMin="49" yMin="-45" xMax="382" yMax="903">
      <contour>
        <pt x="49" y="440" on="1"/>
        <pt x="49" y="581" on="0"/>
        <pt x="199" y="700" on="1"/>
        <pt x="382" y="578" on="1"/>
        <pt x="258" y="500" on="0"/>
        <pt x="258" y="413" on="1"/>
        <pt x="258" y="376" on="0"/>
        <pt x="308" y="294" on="0"/>
        <pt x="359" y="214" on="0"/>
        <pt x="359" y="179" on="1"/>
        <pt x="359" y="34" on="0"/>
        <pt x="159" y="-45" on="1"/>
        <pt x="111" y="20" on="1"/>
        <pt x="160" y="47" on="0"/>
        <pt x="198" y="97" on="0"/>
        <pt x="198" y="157" on="0"/>
        <pt x="151" y="232" on="0"/>
        <pt x="96" y="294" on="0"/>
        <pt x="49" y="390" on="0"/>
      </contour>
      <contour>
        <pt x="117" y="781" on="1"/>
        <pt x="295" y="903" on="1"/>
        <pt x="355" y="778" on="1"/>
        <pt x="151" y="713" on="1"/>
      </contour>
    </TTGlyph>
    <TTGlyph name="Scaron" xMin="49" yMin="-75" xMax="387" yMax="891">
      <contour>
        <pt x="49" y="410" on="1"/>
        <pt x="49" y="551" on="0"/>
        <pt x="199" y="670" on="1"/>
        <pt x="382" y="548" on="1"/>
        <pt x="258" y="470" on="0"/>
        <pt x="258" y="383" on="1"/>
        <pt x="258" y="346" on="0"/>
        <pt x="308" y="264" on="0"/>
        <pt x="359" y="184" on="0"/>
        <pt x="359" y="149" on="1"/>
        <pt x="359" y="4" on="0"/>
        <pt x="159" y="-75" on="1"/>
        <pt x="111" y="-10" on="1"/>
        <pt x="160" y="17" on="0"/>
        <pt x="198" y="67" on="0"/>
        <pt x="198" y="127" on="0"/>
        <pt x="151" y="202" on="0"/>
        <pt x="96" y="264" on="0"/>
        <pt x="49" y="360" on="0"/>
      </contour>
      <contour>
        <pt x="387" y="798" on="1"/>
        <pt x="200" y="706" on="1"/>
        <pt x="84" y="843" on="1"/>
        <pt x="118" y="891" on="1"/>
        <pt x="236" y="826" on="1"/>
        <pt x="312" y="888" on="1"/>
      </contour>
    </TTGlyph>
    <TTGlyph name="Scedilla" xMin="49" yMin="-208" xMax="382" yMax="700">
      <contour>
        <pt x="93" y="-91" on="1"/>
        <pt x="153" y="-117" on="0"/>
        <pt x="226" y="-117" on="0"/>
        <pt x="258" y="-104" on="1"/>
        <pt x="234" y="-46" on="0"/>
        <pt x="111" y="15" on="1"/>
        <pt x="198" y="64" on="0"/>
        <pt x="198" y="126" on="1"/>
        <pt x="198" y="179" on="0"/>
        <pt x="124" y="263" on="1"/>
        <pt x="96" y="294" on="0"/>
        <pt x="49" y="390" on="0"/>
        <pt x="49" y="440" on="1"/>
        <pt x="49" y="581" on="0"/>
        <pt x="199" y="700" on="1"/>
        <pt x="382" y="578" on="1"/>
        <pt x="258" y="500" on="0"/>
        <pt x="258" y="413" on="1"/>
        <pt x="258" y="376" on="0"/>
        <pt x="308" y="294" on="0"/>
        <pt x="359" y="214" on="0"/>
        <pt x="359" y="179" on="1"/>
        <pt x="359" y="71" on="0"/>
        <pt x="248" y="0" on="1"/>
        <pt x="319" y="-51" on="0"/>
        <pt x="319" y="-160" on="0"/>
        <pt x="224" y="-208" on="0"/>
        <pt x="114" y="-208" on="0"/>
        <pt x="59" y="-187" on="1"/>
      </contour>
    </TTGlyph>
    <TTGlyph name="Scircumflex" xMin="49" yMin="-45" xMax="387" yMax="901">
      <contour>
        <pt x="49" y="440" on="1"/>
        <pt x="49" y="581" on="0"/>
        <pt x="199" y="700" on="1"/>
        <pt x="382" y="578" on="1"/>
        <pt x="258" y="500" on="0"/>
        <pt x="258" y="413" on="1"/>
        <pt x="258" y="376" on="0"/>
        <pt x="308" y="294" on="0"/>
        <pt x="359" y="214" on="0"/>
        <pt x="359" y="179" on="1"/>
        <pt x="359" y="34" on="0"/>
        <pt x="159" y="-45" on="1"/>
        <pt x="111" y="20" on="1"/>
        <pt x="160" y="47" on="0"/>
        <pt x="198" y="97" on="0"/>
        <pt x="198" y="157" on="0"/>
        <pt x="151" y="232" on="0"/>
        <pt x="96" y="294" on="0"/>
        <pt x="49" y="390" on="0"/>
      </contour>
      <contour>
        <pt x="84" y="764" on="1"/>
        <pt x="200" y="901" on="1"/>
        <pt x="387" y="809" on="1"/>
        <pt x="312" y="719" on="1"/>
        <pt x="236" y="781" on="1"/>
        <pt x="118" y="716" on="1"/>
      </contour>
    </TTGlyph>
    <TTGlyph name="T" xMin="40" yMin="-14" xMax="551" yMax="665">
      <contour>
        <pt x="40" y="651" on="1"/>
        <pt x="551" y="665" on="1"/>
        <pt x="548" y="598" on="1"/>
        <pt x="408" y="584" on="1"/>
        <pt x="346" y="-4" on="1"/>
        <pt x="236" y="-14" on="1"/>
        <pt x="186" y="562" on="1"/>
        <pt x="46" y="548" on="1"/>
      </contour>
    </TTGlyph>
    <TTGlyph name="Tbar" xMin="25" yMin="-14" xMax="536" yMax="665">
      <contour>
        <pt x="25" y="651" on="1"/>
        <pt x="536" y="665" on="1"/>
        <pt x="533" y="598" on="1"/>
        <pt x="393" y="584" on="1"/>
        <pt x="331" y="-4" on="1"/>
        <pt x="221" y="-14" on="1"/>
        <pt x="171" y="562" on="1"/>
        <pt x="31" y="548" on="1"/>
      </contour>
      <contour>
        <pt x="472" y="316" on="1"/>
        <pt x="26" y="289" on="1"/>
        <pt x="38" y="369" on="1"/>
        <pt x="484" y="369" on="1"/>
      </contour>
    </TTGlyph>
    <TTGlyph name="Tcaron" xMin="25" yMin="-14" xMax="536" yMax="891">
      <contour>
        <pt x="25" y="651" on="1"/>
        <pt x="536" y="665" on="1"/>
        <pt x="533" y="598" on="1"/>
        <pt x="393" y="584" on="1"/>
        <pt x="331" y="-4" on="1"/>
        <pt x="221" y="-14" on="1"/>
        <pt x="171" y="562" on="1"/>
        <pt x="31" y="548" on="1"/>
      </contour>
      <contour>
        <pt x="427" y="798" on="1"/>
        <pt x="240" y="706" on="1"/>
        <pt x="124" y="843" on="1"/>
        <pt x="158" y="891" on="1"/>
        <pt x="276" y="826" on="1"/>
        <pt x="352" y="888" on="1"/>
      </contour>
    </TTGlyph>
    <TTGlyph name="Thorn" xMin="98" yMin="-14" xMax="619" yMax="665">
      <contour>
        <pt x="413" y="562" on="1"/>
        <pt x="505" y="562" on="0"/>
        <pt x="601" y="507" on="1"/>
        <pt x="619" y="453" on="0"/>
        <pt x="619" y="404" on="1"/>
        <pt x="619" y="286" on="0"/>
        <pt x="421" y="130" on="0"/>
        <pt x="265" y="97" on="1"/>
        <pt x="255" y="-4" on="1"/>
        <pt x="155" y="-14" on="1"/>
        <pt x="98" y="630" on="1"/>
        <pt x="326" y="665" on="1"/>
        <pt x="314" y="551" on="1"/>
        <pt x="371" y="562" on="0"/>
      </contour>
      <contour>
        <pt x="426" y="375" on="1"/>
        <pt x="426" y="452" on="0"/>
        <pt x="363" y="490" on="1"/>
        <pt x="337" y="490" on="0"/>
        <pt x="306" y="479" on="1"/>
        <pt x="272" y="162" on="1"/>
        <pt x="344" y="196" on="0"/>
        <pt x="426" y="315" on="0"/>
      </contour>
    </TTGlyph>
    <TTGlyph name="U" xMin="75" yMin="-24" xMax="611" yMax="665">
      <contour>
        <pt x="342" y="-24" on="1"/>
        <pt x="253" y="-24" on="0"/>
        <pt x="136" y="86" on="0"/>
        <pt x="123" y="207" on="1"/>
        <pt x="75" y="650" on="1"/>
        <pt x="313" y="665" on="1"/>
        <pt x="272" y="183" on="0"/>
        <pt x="272" y="168" on="1"/>
        <pt x="272" y="54" on="0"/>
        <pt x="381" y="54" on="1"/>
        <pt x="431" y="54" on="0"/>
        <pt x="501" y="115" on="0"/>
        <pt x="502" y="191" on="1"/>
        <pt x="511" y="655" on="1"/>
        <pt x="611" y="660" on="1"/>
        <pt x="581" y="190" on="1"/>
        <pt x="568" y="-24" on="0"/>
      </contour>
    </TTGlyph>
    <TTGlyph name="Uacute" xMin="75" yMin="-24" xMax="611" yMax="903">
      <contour>
        <pt x="342" y="-24" on="1"/>
        <pt x="253" y="-24" on="0"/>
        <pt x="136" y="86" on="0"/>
        <pt x="123" y="207" on="1"/>
        <pt x="75" y="650" on="1"/>
        <pt x="313" y="665" on="1"/>
        <pt x="272" y="183" on="0"/>
        <pt x="272" y="168" on="1"/>
        <pt x="272" y="54" on="0"/>
        <pt x="381" y="54" on="1"/>
        <pt x="431" y="54" on="0"/>
        <pt x="501" y="115" on="0"/>
        <pt x="502" y="191" on="1"/>
        <pt x="511" y="655" on="1"/>
        <pt x="611" y="660" on="1"/>
        <pt x="581" y="190" on="1"/>
        <pt x="568" y="-24" on="0"/>
      </contour>
      <contour>
        <pt x="276" y="781" on="1"/>
        <pt x="454" y="903" on="1"/>
        <pt x="514" y="778" on="1"/>
        <pt x="310" y="713" on="1"/>
      </contour>
    </TTGlyph>
    <TTGlyph name="Ubreve" xMin="75" yMin="-24" xMax="611" yMax="888">
      <contour>
        <pt x="342" y="-24" on="1"/>
        <pt x="253" y="-24" on="0"/>
        <pt x="136" y="86" on="0"/>
        <pt x="123" y="207" on="1"/>
        <pt x="75" y="650" on="1"/>
        <pt x="313" y="665" on="1"/>
        <pt x="272" y="183" on="0"/>
        <pt x="272" y="168" on="1"/>
        <pt x="272" y="54" on="0"/>
        <pt x="381" y="54" on="1"/>
        <pt x="431" y="54" on="0"/>
        <pt x="501" y="115" on="0"/>
        <pt x="502" y="191" on="1"/>
        <pt x="511" y="655" on="1"/>
        <pt x="611" y="660" on="1"/>
        <pt x="581" y="190" on="1"/>
        <pt x="568" y="-24" on="0"/>
      </contour>
      <contour>
        <pt x="369" y="706" on="1"/>
        <pt x="318" y="706" on="0"/>
        <pt x="284" y="754" on="1"/>
        <pt x="258" y="791" on="0"/>
        <pt x="235" y="849" on="1"/>
        <pt x="288" y="882" on="1"/>
        <pt x="304" y="854" on="0"/>
        <pt x="321" y="829" on="0"/>
        <pt x="352" y="807" on="0"/>
        <pt x="400" y="807" on="0"/>
        <pt x="434" y="849" on="0"/>
        <pt x="450" y="888" on="1"/>
        <pt x="534" y="833" on="1"/>
        <pt x="459" y="706" on="0"/>
      </contour>
    </TTGlyph>
    <TTGlyph name="Ucircumflex" xMin="75" yMin="-24" xMax="611" yMax="901">
      <contour>
        <pt x="342" y="-24" on="1"/>
        <pt x="253" y="-24" on="0"/>
        <pt x="136" y="86" on="0"/>
        <pt x="123" y="207" on="1"/>
        <pt x="75" y="650" on="1"/>
        <pt x="313" y="665" on="1"/>
        <pt x="272" y="183" on="0"/>
        <pt x="272" y="168" on="1"/>
        <pt x="272" y="54" on="0"/>
        <pt x="381" y="54" on="1"/>
        <pt x="431" y="54" on="0"/>
        <pt x="501" y="115" on="0"/>
        <pt x="502" y="191" on="1"/>
        <pt x="511" y="655" on="1"/>
        <pt x="611" y="660" on="1"/>
        <pt x="581" y="190" on="1"/>
        <pt x="568" y="-24" on="0"/>
      </contour>
      <contour>
        <pt x="226" y="764" on="1"/>
        <pt x="342" y="901" on="1"/>
        <pt x="529" y="809" on="1"/>
        <pt x="454" y="719" on="1"/>
        <pt x="378" y="781" on="1"/>
        <pt x="260" y="716" on="1"/>
      </contour>
    </TTGlyph>
    <TTGlyph name="Udieresis" xMin="75" yMin="-24" xMax="611" yMax="891">
      <contour>
        <pt x="342" y="-24" on="1"/>
        <pt x="253" y="-24" on="0"/>
        <pt x="136" y="86" on="0"/>
        <pt x="123" y="207" on="1"/>
        <pt x="75" y="650" on="1"/>
        <pt x="313" y="665" on="1"/>
        <pt x="272" y="183" on="0"/>
        <pt x="272" y="168" on="1"/>
        <pt x="272" y="54" on="0"/>
        <pt x="381" y="54" on="1"/>
        <pt x="431" y="54" on="0"/>
        <pt x="501" y="115" on="0"/>
        <pt x="502" y="191" on="1"/>
        <pt x="511" y="655" on="1"/>
        <pt x="611" y="660" on="1"/>
        <pt x="581" y="190" on="1"/>
        <pt x="568" y="-24" on="0"/>
      </contour>
      <contour>
        <pt x="202" y="773" on="0"/>
        <pt x="202" y="841" on="0"/>
        <pt x="247" y="891" on="0"/>
        <pt x="309" y="891" on="0"/>
        <pt x="354" y="841" on="0"/>
        <pt x="354" y="773" on="0"/>
        <pt x="309" y="723" on="0"/>
        <pt x="247" y="723" on="0"/>
      </contour>
      <contour>
        <pt x="412" y="773" on="0"/>
        <pt x="412" y="841" on="0"/>
        <pt x="457" y="891" on="0"/>
        <pt x="519" y="891" on="0"/>
        <pt x="564" y="841" on="0"/>
        <pt x="564" y="773" on="0"/>
        <pt x="519" y="723" on="0"/>
        <pt x="457" y="723" on="0"/>
      </contour>
    </TTGlyph>
    <TTGlyph name="Ugrave" xMin="75" yMin="-24" xMax="611" yMax="903">
      <contour>
        <pt x="342" y="-24" on="1"/>
        <pt x="253" y="-24" on="0"/>
        <pt x="136" y="86" on="0"/>
        <pt x="123" y="207" on="1"/>
        <pt x="75" y="650" on="1"/>
        <pt x="313" y="665" on="1"/>
        <pt x="272" y="183" on="0"/>
        <pt x="272" y="168" on="1"/>
        <pt x="272" y="54" on="0"/>
        <pt x="381" y="54" on="1"/>
        <pt x="431" y="54" on="0"/>
        <pt x="501" y="115" on="0"/>
        <pt x="502" y="191" on="1"/>
        <pt x="511" y="655" on="1"/>
        <pt x="611" y="660" on="1"/>
        <pt x="581" y="190" on="1"/>
        <pt x="568" y="-24" on="0"/>
      </contour>
      <contour>
        <pt x="320" y="903" on="1"/>
        <pt x="498" y="781" on="1"/>
        <pt x="464" y="713" on="1"/>
        <pt x="260" y="778" on="1"/>
      </contour>
    </TTGlyph>
    <TTGlyph name="Uhungarumlaut" xMin="75" yMin="-24" xMax="613" yMax="906">
      <contour>
        <pt x="342" y="-24" on="1"/>
        <pt x="253" y="-24" on="0"/>
        <pt x="136" y="86" on="0"/>
        <pt x="123" y="207" on="1"/>
        <pt x="75" y="650" on="1"/>
        <pt x="313" y="665" on="1"/>
        <pt x="272" y="183" on="0"/>
        <pt x="272" y="168" on="1"/>
        <pt x="272" y="54" on="0"/>
        <pt x="381" y="54" on="1"/>
        <pt x="431" y="54" on="0"/>
        <pt x="501" y="115" on="0"/>
        <pt x="502" y="191" on="1"/>
        <pt x="511" y="655" on="1"/>
        <pt x="611" y="660" on="1"/>
        <pt x="581" y="190" on="1"/>
        <pt x="568" y="-24" on="0"/>
      </contour>
      <contour>
        <pt x="182" y="759" on="1"/>
        <pt x="316" y="906" on="1"/>
        <pt x="393" y="803" on="1"/>
        <pt x="218" y="708" on="1"/>
      </contour>
      <contour>
        <pt x="402" y="759" on="1"/>
        <pt x="536" y="906" on="1"/>
        <pt x="613" y="803" on="1"/>
        <pt x="438" y="708" on="1"/>
      </contour>
    </TTGlyph>
    <TTGlyph name="Umacron" xMin="75" yMin="-24" xMax="611" yMax="853">
      <contour>
        <pt x="342" y="-24" on="1"/>
        <pt x="253" y="-24" on="0"/>
        <pt x="136" y="86" on="0"/>
        <pt x="123" y="207" on="1"/>
        <pt x="75" y="650" on="1"/>
        <pt x="313" y="665" on="1"/>
        <pt x="272" y="183" on="0"/>
        <pt x="272" y="168" on="1"/>
        <pt x="272" y="54" on="0"/>
        <pt x="381" y="54" on="1"/>
        <pt x="431" y="54" on="0"/>
        <pt x="501" y="115" on="0"/>
        <pt x="502" y="191" on="1"/>
        <pt x="511" y="655" on="1"/>
        <pt x="611" y="660" on="1"/>
        <pt x="581" y="190" on="1"/>
        <pt x="568" y="-24" on="0"/>
      </contour>
      <contour>
        <pt x="512" y="761" on="1"/>
        <pt x="251" y="734" on="1"/>
        <pt x="258" y="853" on="1"/>
        <pt x="519" y="853" on="1"/>
      </contour>
    </TTGlyph>
    <TTGlyph name="Uogonek" xMin="75" yMin="-208" xMax="611" yMax="665">
      <contour>
        <pt x="342" y="-24" on="1"/>
        <pt x="253" y="-24" on="0"/>
        <pt x="136" y="86" on="0"/>
        <pt x="123" y="207" on="1"/>
        <pt x="75" y="650" on="1"/>
        <pt x="313" y="665" on="1"/>
        <pt x="272" y="183" on="0"/>
        <pt x="272" y="168" on="1"/>
        <pt x="272" y="54" on="0"/>
        <pt x="381" y="54" on="1"/>
        <pt x="431" y="54" on="0"/>
        <pt x="501" y="115" on="0"/>
        <pt x="502" y="191" on="1"/>
        <pt x="511" y="655" on="1"/>
        <pt x="611" y="660" on="1"/>
        <pt x="581" y="190" on="1"/>
        <pt x="568" y="-24" on="0"/>
      </contour>
      <contour>
        <pt x="544" y="-187" on="1"/>
        <pt x="488" y="-208" on="0"/>
        <pt x="379" y="-208" on="0"/>
        <pt x="284" y="-160" on="0"/>
        <pt x="284" y="-108" on="1"/>
        <pt x="284" y="-58" on="0"/>
        <pt x="332" y="-18" on="1"/>
        <pt x="373" y="15" on="0"/>
        <pt x="426" y="44" on="1"/>
        <pt x="454" y="-6" on="1"/>
        <pt x="372" y="-48" on="0"/>
        <pt x="345" y="-104" on="1"/>
        <pt x="377" y="-117" on="0"/>
        <pt x="450" y="-117" on="0"/>
        <pt x="510" y="-91" on="1"/>
      </contour>
    </TTGlyph>
    <TTGlyph name="Uring" xMin="75" yMin="-24" xMax="611" yMax="915">
      <contour>
        <pt x="342" y="-24" on="1"/>
        <pt x="253" y="-24" on="0"/>
        <pt x="136" y="86" on="0"/>
        <pt x="123" y="207" on="1"/>
        <pt x="75" y="650" on="1"/>
        <pt x="313" y="665" on="1"/>
        <pt x="272" y="183" on="0"/>
        <pt x="272" y="168" on="1"/>
        <pt x="272" y="54" on="0"/>
        <pt x="381" y="54" on="1"/>
        <pt x="431" y="54" on="0"/>
        <pt x="501" y="115" on="0"/>
        <pt x="502" y="191" on="1"/>
        <pt x="511" y="655" on="1"/>
        <pt x="611" y="660" on="1"/>
        <pt x="581" y="190" on="1"/>
        <pt x="568" y="-24" on="0"/>
      </contour>
      <contour>
        <pt x="475" y="897" on="1"/>
        <pt x="501" y="860" on="0"/>
        <pt x="501" y="752" on="0"/>
        <pt x="438" y="687" on="0"/>
        <pt x="335" y="687" on="0"/>
        <pt x="288" y="705" on="1"/>
        <pt x="262" y="742" on="0"/>
        <pt x="262" y="850" on="0"/>
        <pt x="325" y="915" on="0"/>
        <pt x="428" y="915" on="0"/>
      </contour>
      <contour>
        <pt x="425" y="814" on="1"/>
        <pt x="425" y="840" on="0"/>
        <pt x="418" y="859" on="1"/>
        <pt x="408" y="867" on="0"/>
        <pt x="381" y="867" on="1"/>
        <pt x="337" y="846" on="0"/>
        <pt x="337" y="787" on="1"/>
        <pt x="337" y="763" on="0"/>
        <pt x="344" y="742" on="1"/>
        <pt x="354" y="735" on="0"/>
        <pt x="381" y="735" on="1"/>
        <pt x="425" y="756" on="0"/>
      </contour>
    </TTGlyph>
    <TTGlyph name="Utilde" xMin="75" yMin="-24" xMax="611" yMax="892">
      <contour>
        <pt x="342" y="-24" on="1"/>
        <pt x="253" y="-24" on="0"/>
        <pt x="136" y="86" on="0"/>
        <pt x="123" y="207" on="1"/>
        <pt x="75" y="650" on="1"/>
        <pt x="313" y="665" on="1"/>
        <pt x="272" y="183" on="0"/>
        <pt x="272" y="168" on="1"/>
        <pt x="272" y="54" on="0"/>
        <pt x="381" y="54" on="1"/>
        <pt x="431" y="54" on="0"/>
        <pt x="501" y="115" on="0"/>
        <pt x="502" y="191" on="1"/>
        <pt x="511" y="655" on="1"/>
        <pt x="611" y="660" on="1"/>
        <pt x="581" y="190" on="1"/>
        <pt x="568" y="-24" on="0"/>
      </contour>
      <contour>
        <pt x="426" y="847" on="1"/>
        <pt x="449" y="847" on="0"/>
        <pt x="469" y="892" on="1"/>
        <pt x="529" y="876" on="1"/>
        <pt x="511" y="735" on="0"/>
        <pt x="444" y="735" on="1"/>
        <pt x="428" y="735" on="0"/>
        <pt x="357" y="761" on="0"/>
        <pt x="339" y="761" on="1"/>
        <pt x="316" y="761" on="0"/>
        <pt x="296" y="716" on="1"/>
        <pt x="236" y="732" on="1"/>
        <pt x="254" y="873" on="0"/>
        <pt x="321" y="873" on="1"/>
        <pt x="337" y="873" on="0"/>
        <pt x="408" y="847" on="0"/>
      </contour>
    </TTGlyph>
    <TTGlyph name="V" xMin="15" yMin="-15" xMax="569" yMax="665">
      <contour>
        <pt x="244" y="665" on="1"/>
        <pt x="325" y="163" on="1"/>
        <pt x="334" y="163" on="1"/>
        <pt x="479" y="665" on="1"/>
        <pt x="569" y="641" on="1"/>
        <pt x="352" y="0" on="1"/>
        <pt x="262" y="-15" on="1"/>
        <pt x="15" y="638" on="1"/>
      </contour>
    </TTGlyph>
    <TTGlyph name="W" xMin="29" yMin="-15" xMax="883" yMax="665">
      <contour>
        <pt x="258" y="665" on="1"/>
        <pt x="327" y="161" on="1"/>
        <pt x="335" y="161" on="1"/>
        <pt x="486" y="635" on="1"/>
        <pt x="566" y="611" on="1"/>
        <pt x="670" y="157" on="1"/>
        <pt x="678" y="157" on="1"/>
        <pt x="793" y="665" on="1"/>
        <pt x="883" y="641" on="1"/>
        <pt x="706" y="0" on="1"/>
        <pt x="616" y="-15" on="1"/>
        <pt x="463" y="322" on="1"/>
        <pt x="349" y="0" on="1"/>
        <pt x="239" y="-15" on="1"/>
        <pt x="29" y="638" on="1"/>
      </contour>
    </TTGlyph>
    <TTGlyph name="Wacute" xMin="29" yMin="-15" xMax="883" yMax="903">
      <contour>
        <pt x="258" y="665" on="1"/>
        <pt x="327" y="161" on="1"/>
        <pt x="335" y="161" on="1"/>
        <pt x="486" y="635" on="1"/>
        <pt x="566" y="611" on="1"/>
        <pt x="670" y="157" on="1"/>
        <pt x="678" y="157" on="1"/>
        <pt x="793" y="665" on="1"/>
        <pt x="883" y="641" on="1"/>
        <pt x="706" y="0" on="1"/>
        <pt x="616" y="-15" on="1"/>
        <pt x="463" y="322" on="1"/>
        <pt x="349" y="0" on="1"/>
        <pt x="239" y="-15" on="1"/>
        <pt x="29" y="638" on="1"/>
      </contour>
      <contour>
        <pt x="399" y="781" on="1"/>
        <pt x="577" y="903" on="1"/>
        <pt x="637" y="778" on="1"/>
        <pt x="433" y="713" on="1"/>
      </contour>
    </TTGlyph>
    <TTGlyph name="Wcircumflex" xMin="29" yMin="-15" xMax="883" yMax="901">
      <contour>
        <pt x="258" y="665" on="1"/>
        <pt x="327" y="161" on="1"/>
        <pt x="335" y="161" on="1"/>
        <pt x="486" y="635" on="1"/>
        <pt x="566" y="611" on="1"/>
        <pt x="670" y="157" on="1"/>
        <pt x="678" y="157" on="1"/>
        <pt x="793" y="665" on="1"/>
        <pt x="883" y="641" on="1"/>
        <pt x="706" y="0" on="1"/>
        <pt x="616" y="-15" on="1"/>
        <pt x="463" y="322" on="1"/>
        <pt x="349" y="0" on="1"/>
        <pt x="239" y="-15" on="1"/>
        <pt x="29" y="638" on="1"/>
      </contour>
      <contour>
        <pt x="367" y="764" on="1"/>
        <pt x="483" y="901" on="1"/>
        <pt x="670" y="809" on="1"/>
        <pt x="595" y="719" on="1"/>
        <pt x="519" y="781" on="1"/>
        <pt x="401" y="716" on="1"/>
      </contour>
    </TTGlyph>
    <TTGlyph name="Wdieresis" xMin="29" yMin="-15" xMax="883" yMax="891">
      <contour>
        <pt x="258" y="665" on="1"/>
        <pt x="327" y="161" on="1"/>
        <pt x="335" y="161" on="1"/>
        <pt x="486" y="635" on="1"/>
        <pt x="566" y="611" on="1"/>
        <pt x="670" y="157" on="1"/>
        <pt x="678" y="157" on="1"/>
        <pt x="793" y="665" on="1"/>
        <pt x="883" y="641" on="1"/>
        <pt x="706" y="0" on="1"/>
        <pt x="616" y="-15" on="1"/>
        <pt x="463" y="322" on="1"/>
        <pt x="349" y="0" on="1"/>
        <pt x="239" y="-15" on="1"/>
        <pt x="29" y="638" on="1"/>
      </contour>
      <contour>
        <pt x="335" y="773" on="0"/>
        <pt x="335" y="841" on="0"/>
        <pt x="380" y="891" on="0"/>
        <pt x="442" y="891" on="0"/>
        <pt x="487" y="841" on="0"/>
        <pt x="487" y="773" on="0"/>
        <pt x="442" y="723" on="0"/>
        <pt x="380" y="723" on="0"/>
      </contour>
      <contour>
        <pt x="545" y="773" on="0"/>
        <pt x="545" y="841" on="0"/>
        <pt x="590" y="891" on="0"/>
        <pt x="652" y="891" on="0"/>
        <pt x="697" y="841" on="0"/>
        <pt x="697" y="773" on="0"/>
        <pt x="652" y="723" on="0"/>
        <pt x="590" y="723" on="0"/>
      </contour>
    </TTGlyph>
    <TTGlyph name="Wgrave" xMin="29" yMin="-15" xMax="883" yMax="903">
      <contour>
        <pt x="258" y="665" on="1"/>
        <pt x="327" y="161" on="1"/>
        <pt x="335" y="161" on="1"/>
        <pt x="486" y="635" on="1"/>
        <pt x="566" y="611" on="1"/>
        <pt x="670" y="157" on="1"/>
        <pt x="678" y="157" on="1"/>
        <pt x="793" y="665" on="1"/>
        <pt x="883" y="641" on="1"/>
        <pt x="706" y="0" on="1"/>
        <pt x="616" y="-15" on="1"/>
        <pt x="463" y="322" on="1"/>
        <pt x="349" y="0" on="1"/>
        <pt x="239" y="-15" on="1"/>
        <pt x="29" y="638" on="1"/>
      </contour>
      <contour>
        <pt x="427" y="903" on="1"/>
        <pt x="605" y="781" on="1"/>
        <pt x="571" y="713" on="1"/>
        <pt x="367" y="778" on="1"/>
      </contour>
    </TTGlyph>
    <TTGlyph name="X" xMin="30" yMin="-15" xMax="601" yMax="665">
      <contour>
        <pt x="30" y="13" on="1"/>
        <pt x="224" y="323" on="1"/>
        <pt x="50" y="637" on="1"/>
        <pt x="281" y="665" on="1"/>
        <pt x="369" y="418" on="1"/>
        <pt x="483" y="665" on="1"/>
        <pt x="598" y="638" on="1"/>
        <pt x="404" y="329" on="1"/>
        <pt x="601" y="15" on="1"/>
        <pt x="370" y="-14" on="1"/>
        <pt x="262" y="239" on="1"/>
        <pt x="145" y="-15" on="1"/>
      </contour>
    </TTGlyph>
    <TTGlyph name="Y" xMin="4" yMin="-14" xMax="543" yMax="665">
      <contour>
        <pt x="229" y="665" on="1"/>
        <pt x="309" y="303" on="1"/>
        <pt x="318" y="303" on="1"/>
        <pt x="462" y="662" on="1"/>
        <pt x="543" y="640" on="1"/>
        <pt x="371" y="235" on="1"/>
        <pt x="333" y="-4" on="1"/>
        <pt x="233" y="-14" on="1"/>
        <pt x="202" y="209" on="1"/>
        <pt x="4" y="638" on="1"/>
      </contour>
    </TTGlyph>
    <TTGlyph name="Yacute" xMin="4" yMin="-14" xMax="543" yMax="903">
      <contour>
        <pt x="229" y="665" on="1"/>
        <pt x="309" y="303" on="1"/>
        <pt x="318" y="303" on="1"/>
        <pt x="462" y="662" on="1"/>
        <pt x="543" y="640" on="1"/>
        <pt x="371" y="235" on="1"/>
        <pt x="333" y="-4" on="1"/>
        <pt x="233" y="-14" on="1"/>
        <pt x="202" y="209" on="1"/>
        <pt x="4" y="638" on="1"/>
      </contour>
      <contour>
        <pt x="190" y="781" on="1"/>
        <pt x="368" y="903" on="1"/>
        <pt x="428" y="778" on="1"/>
        <pt x="224" y="713" on="1"/>
      </contour>
    </TTGlyph>
    <TTGlyph name="Ycircumflex" xMin="4" yMin="-14" xMax="543" yMax="901">
      <contour>
        <pt x="229" y="665" on="1"/>
        <pt x="309" y="303" on="1"/>
        <pt x="318" y="303" on="1"/>
        <pt x="462" y="662" on="1"/>
        <pt x="543" y="640" on="1"/>
        <pt x="371" y="235" on="1"/>
        <pt x="333" y="-4" on="1"/>
        <pt x="233" y="-14" on="1"/>
        <pt x="202" y="209" on="1"/>
        <pt x="4" y="638" on="1"/>
      </contour>
      <contour>
        <pt x="167" y="764" on="1"/>
        <pt x="283" y="901" on="1"/>
        <pt x="470" y="809" on="1"/>
        <pt x="395" y="719" on="1"/>
        <pt x="319" y="781" on="1"/>
        <pt x="201" y="716" on="1"/>
      </contour>
    </TTGlyph>
    <TTGlyph name="Ydieresis" xMin="4" yMin="-14" xMax="543" yMax="891">
      <contour>
        <pt x="229" y="665" on="1"/>
        <pt x="309" y="303" on="1"/>
        <pt x="318" y="303" on="1"/>
        <pt x="462" y="662" on="1"/>
        <pt x="543" y="640" on="1"/>
        <pt x="371" y="235" on="1"/>
        <pt x="333" y="-4" on="1"/>
        <pt x="233" y="-14" on="1"/>
        <pt x="202" y="209" on="1"/>
        <pt x="4" y="638" on="1"/>
      </contour>
      <contour>
        <pt x="133" y="773" on="0"/>
        <pt x="133" y="841" on="0"/>
        <pt x="178" y="891" on="0"/>
        <pt x="240" y="891" on="0"/>
        <pt x="285" y="841" on="0"/>
        <pt x="285" y="773" on="0"/>
        <pt x="240" y="723" on="0"/>
        <pt x="178" y="723" on="0"/>
      </contour>
      <contour>
        <pt x="343" y="773" on="0"/>
        <pt x="343" y="841" on="0"/>
        <pt x="388" y="891" on="0"/>
        <pt x="450" y="891" on="0"/>
        <pt x="495" y="841" on="0"/>
        <pt x="495" y="773" on="0"/>
        <pt x="450" y="723" on="0"/>
        <pt x="388" y="723" on="0"/>
      </contour>
    </TTGlyph>
    <TTGlyph name="Ygrave" xMin="4" yMin="-14" xMax="543" yMax="903">
      <contour>
        <pt x="229" y="665" on="1"/>
        <pt x="309" y="303" on="1"/>
        <pt x="318" y="303" on="1"/>
        <pt x="462" y="662" on="1"/>
        <pt x="543" y="640" on="1"/>
        <pt x="371" y="235" on="1"/>
        <pt x="333" y="-4" on="1"/>
        <pt x="233" y="-14" on="1"/>
        <pt x="202" y="209" on="1"/>
        <pt x="4" y="638" on="1"/>
      </contour>
      <contour>
        <pt x="249" y="903" on="1"/>
        <pt x="427" y="781" on="1"/>
        <pt x="393" y="713" on="1"/>
        <pt x="189" y="778" on="1"/>
      </contour>
    </TTGlyph>
    <TTGlyph name="Z" xMin="20" yMin="-9" xMax="520" yMax="660">
      <contour>
        <pt x="55" y="660" on="1"/>
        <pt x="506" y="650" on="1"/>
        <pt x="520" y="546" on="1"/>
        <pt x="130" y="68" on="1"/>
        <pt x="503" y="103" on="1"/>
        <pt x="509" y="0" on="1"/>
        <pt x="20" y="-9" on="1"/>
        <pt x="23" y="58" on="1"/>
        <pt x="296" y="569" on="1"/>
        <pt x="58" y="593" on="1"/>
      </contour>
    </TTGlyph>
    <TTGlyph name="Zacute" xMin="20" yMin="-9" xMax="520" yMax="903">
      <contour>
        <pt x="55" y="660" on="1"/>
        <pt x="506" y="650" on="1"/>
        <pt x="520" y="546" on="1"/>
        <pt x="130" y="68" on="1"/>
        <pt x="503" y="103" on="1"/>
        <pt x="509" y="0" on="1"/>
        <pt x="20" y="-9" on="1"/>
        <pt x="23" y="58" on="1"/>
        <pt x="296" y="569" on="1"/>
        <pt x="58" y="593" on="1"/>
      </contour>
      <contour>
        <pt x="161" y="781" on="1"/>
        <pt x="339" y="903" on="1"/>
        <pt x="399" y="778" on="1"/>
        <pt x="195" y="713" on="1"/>
      </contour>
    </TTGlyph>
    <TTGlyph name="Zcaron" xMin="20" yMin="-9" xMax="520" yMax="891">
      <contour>
        <pt x="55" y="660" on="1"/>
        <pt x="506" y="650" on="1"/>
        <pt x="520" y="546" on="1"/>
        <pt x="130" y="68" on="1"/>
        <pt x="503" y="103" on="1"/>
        <pt x="509" y="0" on="1"/>
        <pt x="20" y="-9" on="1"/>
        <pt x="23" y="58" on="1"/>
        <pt x="296" y="569" on="1"/>
        <pt x="58" y="593" on="1"/>
      </contour>
      <contour>
        <pt x="454" y="798" on="1"/>
        <pt x="267" y="706" on="1"/>
        <pt x="151" y="843" on="1"/>
        <pt x="185" y="891" on="1"/>
        <pt x="303" y="826" on="1"/>
        <pt x="379" y="888" on="1"/>
      </contour>
    </TTGlyph>
    <TTGlyph name="Zdotaccent" xMin="20" yMin="-9" xMax="520" yMax="883">
      <contour>
        <pt x="55" y="660" on="1"/>
        <pt x="506" y="650" on="1"/>
        <pt x="520" y="546" on="1"/>
        <pt x="130" y="68" on="1"/>
        <pt x="503" y="103" on="1"/>
        <pt x="509" y="0" on="1"/>
        <pt x="20" y="-9" on="1"/>
        <pt x="23" y="58" on="1"/>
        <pt x="296" y="569" on="1"/>
        <pt x="58" y="593" on="1"/>
      </contour>
      <contour>
        <pt x="386" y="883" on="1"/>
        <pt x="386" y="803" on="0"/>
        <pt x="374" y="755" on="1"/>
        <pt x="329" y="738" on="0"/>
        <pt x="229" y="738" on="0"/>
        <pt x="209" y="743" on="1"/>
        <pt x="209" y="816" on="0"/>
        <pt x="237" y="871" on="1"/>
        <pt x="286" y="883" on="0"/>
      </contour>
    </TTGlyph>
    <TTGlyph name="a" xMin="35" yMin="-23" xMax="519" yMax="512">
      <contour>
        <pt x="135" y="-23" on="1"/>
        <pt x="118" y="-23" on="0"/>
        <pt x="110" y="-22" on="1"/>
        <pt x="76" y="1" on="0"/>
        <pt x="35" y="92" on="0"/>
        <pt x="35" y="141" on="1"/>
        <pt x="35" y="205" on="0"/>
        <pt x="132" y="263" on="0"/>
        <pt x="262" y="263" on="1"/>
        <pt x="310" y="263" on="0"/>
        <pt x="362" y="256" on="1"/>
        <pt x="360" y="278" on="1"/>
        <pt x="356" y="318" on="0"/>
        <pt x="288" y="365" on="0"/>
        <pt x="182" y="365" on="0"/>
        <pt x="129" y="332" on="1"/>
        <pt x="85" y="477" on="1"/>
        <pt x="171" y="512" on="0"/>
        <pt x="391" y="512" on="0"/>
        <pt x="519" y="413" on="0"/>
        <pt x="519" y="308" on="1"/>
        <pt x="519" y="284" on="0"/>
        <pt x="517" y="270" on="1"/>
        <pt x="489" y="-6" on="1"/>
        <pt x="390" y="-15" on="1"/>
        <pt x="375" y="130" on="1"/>
        <pt x="367" y="130" on="1"/>
        <pt x="333" y="58" on="0"/>
        <pt x="213" y="-23" on="0"/>
      </contour>
      <contour>
        <pt x="366" y="214" on="1"/>
        <pt x="313" y="215" on="1"/>
        <pt x="247" y="215" on="0"/>
        <pt x="205" y="208" on="1"/>
        <pt x="191" y="180" on="0"/>
        <pt x="191" y="136" on="0"/>
        <pt x="203" y="96" on="0"/>
        <pt x="210" y="89" on="1"/>
        <pt x="330" y="108" on="0"/>
      </contour>
    </TTGlyph>
    <TTGlyph name="aacute" xMin="35" yMin="-23" xMax="519" yMax="753">
      <contour>
        <pt x="135" y="-23" on="1"/>
        <pt x="118" y="-23" on="0"/>
        <pt x="110" y="-22" on="1"/>
        <pt x="76" y="1" on="0"/>
        <pt x="35" y="92" on="0"/>
        <pt x="35" y="141" on="1"/>
        <pt x="35" y="205" on="0"/>
        <pt x="132" y="263" on="0"/>
        <pt x="262" y="263" on="1"/>
        <pt x="310" y="263" on="0"/>
        <pt x="362" y="256" on="1"/>
        <pt x="360" y="278" on="1"/>
        <pt x="356" y="318" on="0"/>
        <pt x="288" y="365" on="0"/>
        <pt x="182" y="365" on="0"/>
        <pt x="129" y="332" on="1"/>
        <pt x="85" y="477" on="1"/>
        <pt x="171" y="512" on="0"/>
        <pt x="391" y="512" on="0"/>
        <pt x="519" y="413" on="0"/>
        <pt x="519" y="308" on="1"/>
        <pt x="519" y="284" on="0"/>
        <pt x="517" y="270" on="1"/>
        <pt x="489" y="-6" on="1"/>
        <pt x="390" y="-15" on="1"/>
        <pt x="375" y="130" on="1"/>
        <pt x="367" y="130" on="1"/>
        <pt x="333" y="58" on="0"/>
        <pt x="213" y="-23" on="0"/>
      </contour>
      <contour>
        <pt x="366" y="214" on="1"/>
        <pt x="313" y="215" on="1"/>
        <pt x="247" y="215" on="0"/>
        <pt x="205" y="208" on="1"/>
        <pt x="191" y="180" on="0"/>
        <pt x="191" y="136" on="0"/>
        <pt x="203" y="96" on="0"/>
        <pt x="210" y="89" on="1"/>
        <pt x="330" y="108" on="0"/>
      </contour>
      <contour>
        <pt x="171" y="631" on="1"/>
        <pt x="349" y="753" on="1"/>
        <pt x="409" y="628" on="1"/>
        <pt x="205" y="563" on="1"/>
      </contour>
    </TTGlyph>
    <TTGlyph name="abreve" xMin="35" yMin="-23" xMax="519" yMax="738">
      <contour>
        <pt x="135" y="-23" on="1"/>
        <pt x="118" y="-23" on="0"/>
        <pt x="110" y="-22" on="1"/>
        <pt x="76" y="1" on="0"/>
        <pt x="35" y="92" on="0"/>
        <pt x="35" y="141" on="1"/>
        <pt x="35" y="205" on="0"/>
        <pt x="132" y="263" on="0"/>
        <pt x="262" y="263" on="1"/>
        <pt x="310" y="263" on="0"/>
        <pt x="362" y="256" on="1"/>
        <pt x="360" y="278" on="1"/>
        <pt x="356" y="318" on="0"/>
        <pt x="288" y="365" on="0"/>
        <pt x="182" y="365" on="0"/>
        <pt x="129" y="332" on="1"/>
        <pt x="85" y="477" on="1"/>
        <pt x="171" y="512" on="0"/>
        <pt x="391" y="512" on="0"/>
        <pt x="519" y="413" on="0"/>
        <pt x="519" y="308" on="1"/>
        <pt x="519" y="284" on="0"/>
        <pt x="517" y="270" on="1"/>
        <pt x="489" y="-6" on="1"/>
        <pt x="390" y="-15" on="1"/>
        <pt x="375" y="130" on="1"/>
        <pt x="367" y="130" on="1"/>
        <pt x="333" y="58" on="0"/>
        <pt x="213" y="-23" on="0"/>
      </contour>
      <contour>
        <pt x="366" y="214" on="1"/>
        <pt x="313" y="215" on="1"/>
        <pt x="247" y="215" on="0"/>
        <pt x="205" y="208" on="1"/>
        <pt x="191" y="180" on="0"/>
        <pt x="191" y="136" on="0"/>
        <pt x="203" y="96" on="0"/>
        <pt x="210" y="89" on="1"/>
        <pt x="330" y="108" on="0"/>
      </contour>
      <contour>
        <pt x="294" y="556" on="1"/>
        <pt x="243" y="556" on="0"/>
        <pt x="209" y="604" on="1"/>
        <pt x="183" y="641" on="0"/>
        <pt x="160" y="699" on="1"/>
        <pt x="213" y="732" on="1"/>
        <pt x="229" y="704" on="0"/>
        <pt x="246" y="679" on="0"/>
        <pt x="277" y="657" on="0"/>
        <pt x="325" y="657" on="0"/>
        <pt x="359" y="699" on="0"/>
        <pt x="375" y="738" on="1"/>
        <pt x="459" y="683" on="1"/>
        <pt x="384" y="556" on="0"/>
      </contour>
    </TTGlyph>
    <TTGlyph name="acircumflex" xMin="35" yMin="-23" xMax="519" yMax="751">
      <contour>
        <pt x="135" y="-23" on="1"/>
        <pt x="118" y="-23" on="0"/>
        <pt x="110" y="-22" on="1"/>
        <pt x="76" y="1" on="0"/>
        <pt x="35" y="92" on="0"/>
        <pt x="35" y="141" on="1"/>
        <pt x="35" y="205" on="0"/>
        <pt x="132" y="263" on="0"/>
        <pt x="262" y="263" on="1"/>
        <pt x="310" y="263" on="0"/>
        <pt x="362" y="256" on="1"/>
        <pt x="360" y="278" on="1"/>
        <pt x="356" y="318" on="0"/>
        <pt x="288" y="365" on="0"/>
        <pt x="182" y="365" on="0"/>
        <pt x="129" y="332" on="1"/>
        <pt x="85" y="477" on="1"/>
        <pt x="171" y="512" on="0"/>
        <pt x="391" y="512" on="0"/>
        <pt x="519" y="413" on="0"/>
        <pt x="519" y="308" on="1"/>
        <pt x="519" y="284" on="0"/>
        <pt x="517" y="270" on="1"/>
        <pt x="489" y="-6" on="1"/>
        <pt x="390" y="-15" on="1"/>
        <pt x="375" y="130" on="1"/>
        <pt x="367" y="130" on="1"/>
        <pt x="333" y="58" on="0"/>
        <pt x="213" y="-23" on="0"/>
      </contour>
      <contour>
        <pt x="366" y="214" on="1"/>
        <pt x="313" y="215" on="1"/>
        <pt x="247" y="215" on="0"/>
        <pt x="205" y="208" on="1"/>
        <pt x="191" y="180" on="0"/>
        <pt x="191" y="136" on="0"/>
        <pt x="203" y="96" on="0"/>
        <pt x="210" y="89" on="1"/>
        <pt x="330" y="108" on="0"/>
      </contour>
      <contour>
        <pt x="145" y="614" on="1"/>
        <pt x="261" y="751" on="1"/>
        <pt x="448" y="659" on="1"/>
        <pt x="373" y="569" on="1"/>
        <pt x="297" y="631" on="1"/>
        <pt x="179" y="566" on="1"/>
      </contour>
    </TTGlyph>
    <TTGlyph name="acute" xMin="130" yMin="563" xMax="368" yMax="753">
      <contour>
        <pt x="130" y="631" on="1"/>
        <pt x="308" y="753" on="1"/>
        <pt x="368" y="628" on="1"/>
        <pt x="164" y="563" on="1"/>
      </contour>
    </TTGlyph>
    <TTGlyph name="acute.case" xMin="140" yMin="713" xMax="378" yMax="903">
      <contour>
        <pt x="140" y="781" on="1"/>
        <pt x="318" y="903" on="1"/>
        <pt x="378" y="778" on="1"/>
        <pt x="174" y="713" on="1"/>
      </contour>
    </TTGlyph>
    <TTGlyph name="adieresis" xMin="35" yMin="-23" xMax="519" yMax="741">
      <contour>
        <pt x="135" y="-23" on="1"/>
        <pt x="118" y="-23" on="0"/>
        <pt x="110" y="-22" on="1"/>
        <pt x="76" y="1" on="0"/>
        <pt x="35" y="92" on="0"/>
        <pt x="35" y="141" on="1"/>
        <pt x="35" y="205" on="0"/>
        <pt x="132" y="263" on="0"/>
        <pt x="262" y="263" on="1"/>
        <pt x="310" y="263" on="0"/>
        <pt x="362" y="256" on="1"/>
        <pt x="360" y="278" on="1"/>
        <pt x="356" y="318" on="0"/>
        <pt x="288" y="365" on="0"/>
        <pt x="182" y="365" on="0"/>
        <pt x="129" y="332" on="1"/>
        <pt x="85" y="477" on="1"/>
        <pt x="171" y="512" on="0"/>
        <pt x="391" y="512" on="0"/>
        <pt x="519" y="413" on="0"/>
        <pt x="519" y="308" on="1"/>
        <pt x="519" y="284" on="0"/>
        <pt x="517" y="270" on="1"/>
        <pt x="489" y="-6" on="1"/>
        <pt x="390" y="-15" on="1"/>
        <pt x="375" y="130" on="1"/>
        <pt x="367" y="130" on="1"/>
        <pt x="333" y="58" on="0"/>
        <pt x="213" y="-23" on="0"/>
      </contour>
      <contour>
        <pt x="366" y="214" on="1"/>
        <pt x="313" y="215" on="1"/>
        <pt x="247" y="215" on="0"/>
        <pt x="205" y="208" on="1"/>
        <pt x="191" y="180" on="0"/>
        <pt x="191" y="136" on="0"/>
        <pt x="203" y="96" on="0"/>
        <pt x="210" y="89" on="1"/>
        <pt x="330" y="108" on="0"/>
      </contour>
      <contour>
        <pt x="109" y="623" on="0"/>
        <pt x="109" y="691" on="0"/>
        <pt x="154" y="741" on="0"/>
        <pt x="216" y="741" on="0"/>
        <pt x="261" y="691" on="0"/>
        <pt x="261" y="623" on="0"/>
        <pt x="216" y="573" on="0"/>
        <pt x="154" y="573" on="0"/>
      </contour>
      <contour>
        <pt x="319" y="623" on="0"/>
        <pt x="319" y="691" on="0"/>
        <pt x="364" y="741" on="0"/>
        <pt x="426" y="741" on="0"/>
        <pt x="471" y="691" on="0"/>
        <pt x="471" y="623" on="0"/>
        <pt x="426" y="573" on="0"/>
        <pt x="364" y="573" on="0"/>
      </contour>
    </TTGlyph>
    <TTGlyph name="ae" xMin="35" yMin="-24" xMax="804" yMax="539">
      <contour>
        <pt x="366" y="214" on="1"/>
        <pt x="366" y="214" on="0"/>
        <pt x="313" y="215" on="1"/>
        <pt x="247" y="215" on="0"/>
        <pt x="205" y="208" on="1"/>
        <pt x="191" y="180" on="0"/>
        <pt x="191" y="136" on="0"/>
        <pt x="203" y="96" on="0"/>
        <pt x="210" y="89" on="1"/>
        <pt x="330" y="108" on="0"/>
      </contour>
      <contour>
        <pt x="562" y="539" on="1"/>
        <pt x="804" y="442" on="0"/>
        <pt x="804" y="298" on="1"/>
        <pt x="804" y="223" on="0"/>
        <pt x="719" y="156" on="0"/>
        <pt x="604" y="156" on="1"/>
        <pt x="531" y="156" on="0"/>
        <pt x="484" y="167" on="1"/>
        <pt x="465" y="120" on="0"/>
        <pt x="465" y="69" on="1"/>
        <pt x="510" y="63" on="0"/>
        <pt x="567" y="63" on="1"/>
        <pt x="671" y="63" on="0"/>
        <pt x="763" y="96" on="1"/>
        <pt x="793" y="-1" on="1"/>
        <pt x="720" y="-24" on="0"/>
        <pt x="629" y="-24" on="1"/>
        <pt x="468" y="-24" on="0"/>
        <pt x="390" y="35" on="1"/>
        <pt x="378" y="90" on="0"/>
        <pt x="375" y="147" on="1"/>
        <pt x="343" y="68" on="0"/>
        <pt x="217" y="-23" on="0"/>
        <pt x="135" y="-23" on="1"/>
        <pt x="118" y="-23" on="0"/>
        <pt x="110" y="-22" on="1"/>
        <pt x="76" y="1" on="0"/>
        <pt x="35" y="92" on="0"/>
        <pt x="35" y="141" on="1"/>
        <pt x="35" y="205" on="0"/>
        <pt x="132" y="263" on="0"/>
        <pt x="262" y="263" on="1"/>
        <pt x="310" y="263" on="0"/>
        <pt x="362" y="256" on="1"/>
        <pt x="360" y="278" on="1"/>
        <pt x="356" y="318" on="0"/>
        <pt x="288" y="365" on="0"/>
        <pt x="182" y="365" on="0"/>
        <pt x="129" y="332" on="1"/>
        <pt x="85" y="477" on="1"/>
        <pt x="171" y="512" on="0"/>
        <pt x="276" y="512" on="1"/>
        <pt x="405" y="512" on="0"/>
        <pt x="466" y="451" on="1"/>
        <pt x="511" y="511" on="0"/>
      </contour>
      <contour>
        <pt x="504" y="214" on="1"/>
        <pt x="517" y="213" on="0"/>
        <pt x="622" y="213" on="0"/>
        <pt x="690" y="227" on="1"/>
        <pt x="693" y="246" on="0"/>
        <pt x="693" y="265" on="1"/>
        <pt x="693" y="325" on="0"/>
        <pt x="660" y="380" on="1"/>
        <pt x="561" y="314" on="0"/>
      </contour>
    </TTGlyph>
    <TTGlyph name="aeacute" xMin="35" yMin="-24" xMax="804" yMax="753">
      <contour>
        <pt x="366" y="214" on="1"/>
        <pt x="366" y="214" on="0"/>
        <pt x="313" y="215" on="1"/>
        <pt x="247" y="215" on="0"/>
        <pt x="205" y="208" on="1"/>
        <pt x="191" y="180" on="0"/>
        <pt x="191" y="136" on="0"/>
        <pt x="203" y="96" on="0"/>
        <pt x="210" y="89" on="1"/>
        <pt x="330" y="108" on="0"/>
      </contour>
      <contour>
        <pt x="562" y="539" on="1"/>
        <pt x="804" y="442" on="0"/>
        <pt x="804" y="298" on="1"/>
        <pt x="804" y="223" on="0"/>
        <pt x="719" y="156" on="0"/>
        <pt x="604" y="156" on="1"/>
        <pt x="531" y="156" on="0"/>
        <pt x="484" y="167" on="1"/>
        <pt x="465" y="120" on="0"/>
        <pt x="465" y="69" on="1"/>
        <pt x="510" y="63" on="0"/>
        <pt x="567" y="63" on="1"/>
        <pt x="671" y="63" on="0"/>
        <pt x="763" y="96" on="1"/>
        <pt x="793" y="-1" on="1"/>
        <pt x="720" y="-24" on="0"/>
        <pt x="629" y="-24" on="1"/>
        <pt x="468" y="-24" on="0"/>
        <pt x="390" y="35" on="1"/>
        <pt x="378" y="90" on="0"/>
        <pt x="375" y="147" on="1"/>
        <pt x="343" y="68" on="0"/>
        <pt x="217" y="-23" on="0"/>
        <pt x="135" y="-23" on="1"/>
        <pt x="118" y="-23" on="0"/>
        <pt x="110" y="-22" on="1"/>
        <pt x="76" y="1" on="0"/>
        <pt x="35" y="92" on="0"/>
        <pt x="35" y="141" on="1"/>
        <pt x="35" y="205" on="0"/>
        <pt x="132" y="263" on="0"/>
        <pt x="262" y="263" on="1"/>
        <pt x="310" y="263" on="0"/>
        <pt x="362" y="256" on="1"/>
        <pt x="360" y="278" on="1"/>
        <pt x="356" y="318" on="0"/>
        <pt x="288" y="365" on="0"/>
        <pt x="182" y="365" on="0"/>
        <pt x="129" y="332" on="1"/>
        <pt x="85" y="477" on="1"/>
        <pt x="171" y="512" on="0"/>
        <pt x="276" y="512" on="1"/>
        <pt x="405" y="512" on="0"/>
        <pt x="466" y="451" on="1"/>
        <pt x="511" y="511" on="0"/>
      </contour>
      <contour>
        <pt x="504" y="214" on="1"/>
        <pt x="517" y="213" on="0"/>
        <pt x="622" y="213" on="0"/>
        <pt x="690" y="227" on="1"/>
        <pt x="693" y="246" on="0"/>
        <pt x="693" y="265" on="1"/>
        <pt x="693" y="325" on="0"/>
        <pt x="660" y="380" on="1"/>
        <pt x="561" y="314" on="0"/>
      </contour>
      <contour>
        <pt x="324" y="631" on="1"/>
        <pt x="502" y="753" on="1"/>
        <pt x="562" y="628" on="1"/>
        <pt x="358" y="563" on="1"/>
      </contour>
    </TTGlyph>
    <TTGlyph name="agrave" xMin="35" yMin="-23" xMax="519" yMax="753">
      <contour>
        <pt x="135" y="-23" on="1"/>
        <pt x="118" y="-23" on="0"/>
        <pt x="110" y="-22" on="1"/>
        <pt x="76" y="1" on="0"/>
        <pt x="35" y="92" on="0"/>
        <pt x="35" y="141" on="1"/>
        <pt x="35" y="205" on="0"/>
        <pt x="132" y="263" on="0"/>
        <pt x="262" y="263" on="1"/>
        <pt x="310" y="263" on="0"/>
        <pt x="362" y="256" on="1"/>
        <pt x="360" y="278" on="1"/>
        <pt x="356" y="318" on="0"/>
        <pt x="288" y="365" on="0"/>
        <pt x="182" y="365" on="0"/>
        <pt x="129" y="332" on="1"/>
        <pt x="85" y="477" on="1"/>
        <pt x="171" y="512" on="0"/>
        <pt x="391" y="512" on="0"/>
        <pt x="519" y="413" on="0"/>
        <pt x="519" y="308" on="1"/>
        <pt x="519" y="284" on="0"/>
        <pt x="517" y="270" on="1"/>
        <pt x="489" y="-6" on="1"/>
        <pt x="390" y="-15" on="1"/>
        <pt x="375" y="130" on="1"/>
        <pt x="367" y="130" on="1"/>
        <pt x="333" y="58" on="0"/>
        <pt x="213" y="-23" on="0"/>
      </contour>
      <contour>
        <pt x="366" y="214" on="1"/>
        <pt x="313" y="215" on="1"/>
        <pt x="247" y="215" on="0"/>
        <pt x="205" y="208" on="1"/>
        <pt x="191" y="180" on="0"/>
        <pt x="191" y="136" on="0"/>
        <pt x="203" y="96" on="0"/>
        <pt x="210" y="89" on="1"/>
        <pt x="330" y="108" on="0"/>
      </contour>
      <contour>
        <pt x="231" y="753" on="1"/>
        <pt x="409" y="631" on="1"/>
        <pt x="375" y="563" on="1"/>
        <pt x="171" y="628" on="1"/>
      </contour>
    </TTGlyph>
    <TTGlyph name="amacron" xMin="35" yMin="-23" xMax="519" yMax="703">
      <contour>
        <pt x="135" y="-23" on="1"/>
        <pt x="118" y="-23" on="0"/>
        <pt x="110" y="-22" on="1"/>
        <pt x="76" y="1" on="0"/>
        <pt x="35" y="92" on="0"/>
        <pt x="35" y="141" on="1"/>
        <pt x="35" y="205" on="0"/>
        <pt x="132" y="263" on="0"/>
        <pt x="262" y="263" on="1"/>
        <pt x="310" y="263" on="0"/>
        <pt x="362" y="256" on="1"/>
        <pt x="360" y="278" on="1"/>
        <pt x="356" y="318" on="0"/>
        <pt x="288" y="365" on="0"/>
        <pt x="182" y="365" on="0"/>
        <pt x="129" y="332" on="1"/>
        <pt x="85" y="477" on="1"/>
        <pt x="171" y="512" on="0"/>
        <pt x="391" y="512" on="0"/>
        <pt x="519" y="413" on="0"/>
        <pt x="519" y="308" on="1"/>
        <pt x="519" y="284" on="0"/>
        <pt x="517" y="270" on="1"/>
        <pt x="489" y="-6" on="1"/>
        <pt x="390" y="-15" on="1"/>
        <pt x="375" y="130" on="1"/>
        <pt x="367" y="130" on="1"/>
        <pt x="333" y="58" on="0"/>
        <pt x="213" y="-23" on="0"/>
      </contour>
      <contour>
        <pt x="366" y="214" on="1"/>
        <pt x="313" y="215" on="1"/>
        <pt x="247" y="215" on="0"/>
        <pt x="205" y="208" on="1"/>
        <pt x="191" y="180" on="0"/>
        <pt x="191" y="136" on="0"/>
        <pt x="203" y="96" on="0"/>
        <pt x="210" y="89" on="1"/>
        <pt x="330" y="108" on="0"/>
      </contour>
      <contour>
        <pt x="437" y="611" on="1"/>
        <pt x="176" y="584" on="1"/>
        <pt x="183" y="703" on="1"/>
        <pt x="444" y="703" on="1"/>
      </contour>
    </TTGlyph>
    <TTGlyph name="ampersand" xMin="70" yMin="-218" xMax="645" yMax="700">
      <contour>
        <pt x="364" y="-13" on="1"/>
        <pt x="330" y="-14" on="1"/>
        <pt x="253" y="-14" on="0"/>
        <pt x="122" y="22" on="0"/>
        <pt x="87" y="51" on="1"/>
        <pt x="70" y="131" on="0"/>
        <pt x="70" y="217" on="1"/>
        <pt x="70" y="364" on="0"/>
        <pt x="172" y="623" on="0"/>
        <pt x="278" y="700" on="1"/>
        <pt x="471" y="578" on="1"/>
        <pt x="323" y="483" on="0"/>
        <pt x="242" y="338" on="1"/>
        <pt x="645" y="354" on="1"/>
        <pt x="642" y="287" on="1"/>
        <pt x="536" y="275" on="1"/>
        <pt x="512" y="131" on="0"/>
        <pt x="451" y="-209" on="1"/>
        <pt x="385" y="-218" on="1"/>
      </contour>
      <contour>
        <pt x="171" y="80" on="1"/>
        <pt x="226" y="69" on="0"/>
        <pt x="319" y="69" on="0"/>
        <pt x="355" y="75" on="1"/>
        <pt x="336" y="252" on="1"/>
        <pt x="197" y="236" on="1"/>
        <pt x="171" y="156" on="0"/>
      </contour>
    </TTGlyph>
    <TTGlyph name="aogonek" xMin="35" yMin="-208" xMax="580" yMax="512">
      <contour>
        <pt x="135" y="-23" on="1"/>
        <pt x="118" y="-23" on="0"/>
        <pt x="110" y="-22" on="1"/>
        <pt x="76" y="1" on="0"/>
        <pt x="35" y="92" on="0"/>
        <pt x="35" y="141" on="1"/>
        <pt x="35" y="205" on="0"/>
        <pt x="132" y="263" on="0"/>
        <pt x="262" y="263" on="1"/>
        <pt x="310" y="263" on="0"/>
        <pt x="362" y="256" on="1"/>
        <pt x="360" y="278" on="1"/>
        <pt x="356" y="318" on="0"/>
        <pt x="288" y="365" on="0"/>
        <pt x="182" y="365" on="0"/>
        <pt x="129" y="332" on="1"/>
        <pt x="85" y="477" on="1"/>
        <pt x="171" y="512" on="0"/>
        <pt x="391" y="512" on="0"/>
        <pt x="519" y="413" on="0"/>
        <pt x="519" y="308" on="1"/>
        <pt x="519" y="284" on="0"/>
        <pt x="517" y="270" on="1"/>
        <pt x="489" y="-6" on="1"/>
        <pt x="390" y="-15" on="1"/>
        <pt x="375" y="130" on="1"/>
        <pt x="367" y="130" on="1"/>
        <pt x="333" y="58" on="0"/>
        <pt x="213" y="-23" on="0"/>
      </contour>
      <contour>
        <pt x="366" y="214" on="1"/>
        <pt x="313" y="215" on="1"/>
        <pt x="247" y="215" on="0"/>
        <pt x="205" y="208" on="1"/>
        <pt x="191" y="180" on="0"/>
        <pt x="191" y="136" on="0"/>
        <pt x="203" y="96" on="0"/>
        <pt x="210" y="89" on="1"/>
        <pt x="330" y="108" on="0"/>
      </contour>
      <contour>
        <pt x="580" y="-187" on="1"/>
        <pt x="524" y="-208" on="0"/>
        <pt x="415" y="-208" on="0"/>
        <pt x="320" y="-160" on="0"/>
        <pt x="320" y="-108" on="1"/>
        <pt x="320" y="-58" on="0"/>
        <pt x="368" y="-18" on="1"/>
        <pt x="409" y="15" on="0"/>
        <pt x="462" y="44" on="1"/>
        <pt x="490" y="-6" on="1"/>
        <pt x="408" y="-48" on="0"/>
        <pt x="381" y="-104" on="1"/>
        <pt x="413" y="-117" on="0"/>
        <pt x="486" y="-117" on="0"/>
        <pt x="546" y="-91" on="1"/>
      </contour>
    </TTGlyph>
    <TTGlyph name="apple" xMin="100" yMin="-114" xMax="823" yMax="608">
      <contour>
        <pt x="589" y="-89" on="1"/>
        <pt x="566" y="-88" on="1"/>
        <pt x="552" y="-88" on="0"/>
        <pt x="517" y="-112" on="0"/>
        <pt x="508" y="-112" on="1"/>
        <pt x="462" y="-102" on="1"/>
        <pt x="454" y="-102" on="0"/>
        <pt x="423" y="-114" on="0"/>
        <pt x="406" y="-114" on="0"/>
        <pt x="374" y="-89" on="0"/>
        <pt x="361" y="-89" on="1"/>
        <pt x="337" y="-91" on="1"/>
        <pt x="322" y="-91" on="0"/>
        <pt x="304" y="-74" on="1"/>
        <pt x="286" y="-55" on="1"/>
        <pt x="274" y="-49" on="0"/>
        <pt x="248" y="-47" on="0"/>
        <pt x="230" y="-36" on="0"/>
        <pt x="216" y="-1" on="0"/>
        <pt x="205" y="8" on="0"/>
        <pt x="177" y="19" on="0"/>
        <pt x="171" y="28" on="1"/>
        <pt x="166" y="37" on="0"/>
        <pt x="162" y="66" on="0"/>
        <pt x="154" y="79" on="0"/>
        <pt x="144" y="86" on="1"/>
        <pt x="122" y="104" on="0"/>
        <pt x="122" y="124" on="1"/>
        <pt x="125" y="149" on="1"/>
        <pt x="125" y="158" on="0"/>
        <pt x="100" y="193" on="0"/>
        <pt x="100" y="211" on="0"/>
        <pt x="112" y="240" on="0"/>
        <pt x="112" y="257" on="0"/>
        <pt x="100" y="283" on="0"/>
        <pt x="100" y="301" on="0"/>
        <pt x="125" y="342" on="0"/>
        <pt x="125" y="351" on="1"/>
        <pt x="124" y="376" on="1"/>
        <pt x="124" y="391" on="0"/>
        <pt x="157" y="420" on="0"/>
        <pt x="162" y="430" on="0"/>
        <pt x="166" y="462" on="0"/>
        <pt x="174" y="474" on="0"/>
        <pt x="205" y="486" on="0"/>
        <pt x="215" y="496" on="0"/>
        <pt x="229" y="527" on="0"/>
        <pt x="242" y="538" on="0"/>
        <pt x="280" y="546" on="0"/>
        <pt x="291" y="552" on="0"/>
        <pt x="321" y="586" on="0"/>
        <pt x="335" y="587" on="1"/>
        <pt x="361" y="585" on="1"/>
        <pt x="374" y="585" on="0"/>
        <pt x="405" y="608" on="0"/>
        <pt x="416" y="608" on="1"/>
        <pt x="460" y="596" on="1"/>
        <pt x="505" y="608" on="1"/>
        <pt x="518" y="608" on="0"/>
        <pt x="550" y="583" on="0"/>
        <pt x="562" y="583" on="1"/>
        <pt x="590" y="586" on="1"/>
        <pt x="606" y="586" on="0"/>
        <pt x="632" y="553" on="0"/>
        <pt x="645" y="546" on="0"/>
        <pt x="675" y="540" on="0"/>
        <pt x="690" y="530" on="0"/>
        <pt x="700" y="502" on="0"/>
        <pt x="711" y="492" on="0"/>
        <pt x="751" y="471" on="0"/>
        <pt x="760" y="455" on="0"/>
        <pt x="761" y="423" on="0"/>
        <pt x="766" y="414" on="0"/>
        <pt x="800" y="385" on="0"/>
        <pt x="800" y="369" on="1"/>
        <pt x="799" y="344" on="1"/>
        <pt x="799" y="331" on="0"/>
        <pt x="823" y="294" on="0"/>
        <pt x="823" y="276" on="0"/>
        <pt x="812" y="250" on="0"/>
        <pt x="812" y="236" on="0"/>
        <pt x="823" y="207" on="0"/>
        <pt x="822" y="191" on="0"/>
        <pt x="798" y="166" on="0"/>
        <pt x="798" y="152" on="1"/>
        <pt x="800" y="120" on="1"/>
        <pt x="800" y="104" on="0"/>
        <pt x="768" y="78" on="0"/>
        <pt x="763" y="68" on="0"/>
        <pt x="754" y="30" on="0"/>
        <pt x="743" y="17" on="0"/>
        <pt x="718" y="6" on="0"/>
        <pt x="708" y="-4" on="0"/>
        <pt x="690" y="-37" on="0"/>
        <pt x="676" y="-47" on="0"/>
        <pt x="641" y="-56" on="0"/>
        <pt x="631" y="-62" on="0"/>
        <pt x="604" y="-89" on="0"/>
      </contour>
      <contour>
        <pt x="462" y="-6" on="1"/>
        <pt x="495" y="-13" on="1"/>
        <pt x="501" y="-13" on="0"/>
        <pt x="512" y="-6" on="1"/>
        <pt x="527" y="4" on="0"/>
        <pt x="539" y="4" on="1"/>
        <pt x="554" y="3" on="1"/>
        <pt x="566" y="3" on="0"/>
        <pt x="584" y="23" on="0"/>
        <pt x="591" y="27" on="0"/>
        <pt x="617" y="34" on="0"/>
        <pt x="628" y="42" on="0"/>
        <pt x="641" y="65" on="0"/>
        <pt x="648" y="72" on="0"/>
        <pt x="666" y="80" on="0"/>
        <pt x="674" y="89" on="0"/>
        <pt x="680" y="117" on="0"/>
        <pt x="685" y="125" on="0"/>
        <pt x="707" y="143" on="0"/>
        <pt x="707" y="157" on="1"/>
        <pt x="706" y="177" on="1"/>
        <pt x="706" y="188" on="0"/>
        <pt x="723" y="207" on="0"/>
        <pt x="724" y="213" on="1"/>
        <pt x="716" y="245" on="1"/>
        <pt x="724" y="273" on="1"/>
        <pt x="724" y="281" on="0"/>
        <pt x="706" y="309" on="0"/>
        <pt x="706" y="318" on="1"/>
        <pt x="707" y="335" on="1"/>
        <pt x="707" y="347" on="0"/>
        <pt x="683" y="367" on="0"/>
        <pt x="679" y="375" on="0"/>
        <pt x="678" y="398" on="0"/>
        <pt x="672" y="409" on="0"/>
        <pt x="643" y="424" on="0"/>
        <pt x="635" y="432" on="0"/>
        <pt x="627" y="452" on="0"/>
        <pt x="617" y="460" on="0"/>
        <pt x="595" y="464" on="0"/>
        <pt x="585" y="469" on="0"/>
        <pt x="567" y="493" on="0"/>
        <pt x="555" y="493" on="1"/>
        <pt x="535" y="491" on="1"/>
        <pt x="526" y="491" on="0"/>
        <pt x="504" y="509" on="0"/>
        <pt x="494" y="509" on="1"/>
        <pt x="461" y="500" on="1"/>
        <pt x="429" y="509" on="1"/>
        <pt x="421" y="509" on="0"/>
        <pt x="397" y="492" on="0"/>
        <pt x="387" y="492" on="1"/>
        <pt x="370" y="493" on="1"/>
        <pt x="359" y="493" on="0"/>
        <pt x="338" y="468" on="0"/>
        <pt x="329" y="463" on="0"/>
        <pt x="303" y="458" on="0"/>
        <pt x="293" y="450" on="0"/>
        <pt x="283" y="428" on="0"/>
        <pt x="275" y="420" on="0"/>
        <pt x="254" y="412" on="0"/>
        <pt x="250" y="407" on="1"/>
        <pt x="248" y="403" on="0"/>
        <pt x="244" y="380" on="0"/>
        <pt x="240" y="372" on="0"/>
        <pt x="216" y="351" on="0"/>
        <pt x="216" y="340" on="1"/>
        <pt x="217" y="324" on="1"/>
        <pt x="217" y="316" on="0"/>
        <pt x="200" y="286" on="0"/>
        <pt x="200" y="278" on="1"/>
        <pt x="208" y="248" on="1"/>
        <pt x="200" y="215" on="1"/>
        <pt x="200" y="207" on="0"/>
        <pt x="217" y="182" on="0"/>
        <pt x="217" y="174" on="1"/>
        <pt x="215" y="158" on="1"/>
        <pt x="215" y="147" on="0"/>
        <pt x="240" y="124" on="0"/>
        <pt x="244" y="116" on="0"/>
        <pt x="247" y="95" on="0"/>
        <pt x="255" y="82" on="0"/>
        <pt x="275" y="74" on="0"/>
        <pt x="283" y="67" on="0"/>
        <pt x="294" y="41" on="0"/>
        <pt x="306" y="33" on="0"/>
        <pt x="325" y="33" on="0"/>
        <pt x="337" y="27" on="0"/>
        <pt x="360" y="2" on="0"/>
        <pt x="371" y="2" on="1"/>
        <pt x="386" y="3" on="1"/>
        <pt x="396" y="3" on="0"/>
        <pt x="420" y="-14" on="0"/>
        <pt x="426" y="-15" on="1"/>
      </contour>
      <contour>
        <pt x="392" y="417" on="0"/>
        <pt x="532" y="417" on="0"/>
        <pt x="632" y="318" on="0"/>
        <pt x="632" y="176" on="0"/>
        <pt x="532" y="77" on="0"/>
        <pt x="392" y="77" on="0"/>
        <pt x="292" y="176" on="0"/>
        <pt x="292" y="318" on="0"/>
      </contour>
      <contour>
        <pt x="505" y="292" on="1"/>
        <pt x="557" y="292" on="1"/>
        <pt x="557" y="360" on="1"/>
        <pt x="366" y="360" on="1"/>
        <pt x="366" y="292" on="1"/>
        <pt x="420" y="292" on="1"/>
        <pt x="420" y="117" on="1"/>
        <pt x="505" y="117" on="1"/>
      </contour>
    </TTGlyph>
    <TTGlyph name="approxequal" xMin="90" yMin="124" xMax="522" yMax="498">
      <contour>
        <pt x="512" y="392" on="1"/>
        <pt x="474" y="415" on="0"/>
        <pt x="380" y="415" on="0"/>
        <pt x="229" y="327" on="0"/>
        <pt x="125" y="327" on="0"/>
        <pt x="90" y="359" on="1"/>
        <pt x="97" y="472" on="1"/>
        <pt x="134" y="441" on="0"/>
        <pt x="230" y="441" on="0"/>
        <pt x="371" y="498" on="0"/>
        <pt x="474" y="498" on="0"/>
        <pt x="522" y="464" on="1"/>
      </contour>
      <contour>
        <pt x="97" y="235" on="1"/>
        <pt x="132" y="209" on="0"/>
        <pt x="226" y="209" on="0"/>
        <pt x="376" y="300" on="0"/>
        <pt x="479" y="300" on="0"/>
        <pt x="522" y="269" on="1"/>
        <pt x="512" y="156" on="1"/>
        <pt x="471" y="188" on="0"/>
        <pt x="375" y="188" on="0"/>
        <pt x="234" y="124" on="0"/>
        <pt x="129" y="124" on="0"/>
        <pt x="90" y="164" on="1"/>
      </contour>
    </TTGlyph>
    <TTGlyph name="aring" xMin="35" yMin="-23" xMax="519" yMax="765">
      <contour>
        <pt x="135" y="-23" on="1"/>
        <pt x="118" y="-23" on="0"/>
        <pt x="110" y="-22" on="1"/>
        <pt x="76" y="1" on="0"/>
        <pt x="35" y="92" on="0"/>
        <pt x="35" y="141" on="1"/>
        <pt x="35" y="205" on="0"/>
        <pt x="132" y="263" on="0"/>
        <pt x="262" y="263" on="1"/>
        <pt x="310" y="263" on="0"/>
        <pt x="362" y="256" on="1"/>
        <pt x="360" y="278" on="1"/>
        <pt x="356" y="318" on="0"/>
        <pt x="288" y="365" on="0"/>
        <pt x="182" y="365" on="0"/>
        <pt x="129" y="332" on="1"/>
        <pt x="85" y="477" on="1"/>
        <pt x="171" y="512" on="0"/>
        <pt x="391" y="512" on="0"/>
        <pt x="519" y="413" on="0"/>
        <pt x="519" y="308" on="1"/>
        <pt x="519" y="284" on="0"/>
        <pt x="517" y="270" on="1"/>
        <pt x="489" y="-6" on="1"/>
        <pt x="390" y="-15" on="1"/>
        <pt x="375" y="130" on="1"/>
        <pt x="367" y="130" on="1"/>
        <pt x="333" y="58" on="0"/>
        <pt x="213" y="-23" on="0"/>
      </contour>
      <contour>
        <pt x="366" y="214" on="1"/>
        <pt x="313" y="215" on="1"/>
        <pt x="247" y="215" on="0"/>
        <pt x="205" y="208" on="1"/>
        <pt x="191" y="180" on="0"/>
        <pt x="191" y="136" on="0"/>
        <pt x="203" y="96" on="0"/>
        <pt x="210" y="89" on="1"/>
        <pt x="330" y="108" on="0"/>
      </contour>
      <contour>
        <pt x="401" y="747" on="1"/>
        <pt x="427" y="710" on="0"/>
        <pt x="427" y="602" on="0"/>
        <pt x="364" y="537" on="0"/>
        <pt x="260" y="537" on="0"/>
        <pt x="214" y="555" on="1"/>
        <pt x="188" y="592" on="0"/>
        <pt x="188" y="700" on="0"/>
        <pt x="251" y="765" on="0"/>
        <pt x="354" y="765" on="0"/>
      </contour>
      <contour>
        <pt x="351" y="664" on="1"/>
        <pt x="351" y="690" on="0"/>
        <pt x="344" y="709" on="1"/>
        <pt x="334" y="717" on="0"/>
        <pt x="307" y="717" on="1"/>
        <pt x="263" y="696" on="0"/>
        <pt x="263" y="637" on="1"/>
        <pt x="263" y="613" on="0"/>
        <pt x="270" y="592" on="1"/>
        <pt x="280" y="585" on="0"/>
        <pt x="307" y="585" on="1"/>
        <pt x="351" y="606" on="0"/>
      </contour>
    </TTGlyph>
    <TTGlyph name="aringacute" xMin="35" yMin="-23" xMax="519" yMax="853">
      <contour>
        <pt x="135" y="-23" on="1"/>
        <pt x="118" y="-23" on="0"/>
        <pt x="110" y="-22" on="1"/>
        <pt x="76" y="1" on="0"/>
        <pt x="35" y="92" on="0"/>
        <pt x="35" y="141" on="1"/>
        <pt x="35" y="205" on="0"/>
        <pt x="132" y="263" on="0"/>
        <pt x="262" y="263" on="1"/>
        <pt x="310" y="263" on="0"/>
        <pt x="362" y="256" on="1"/>
        <pt x="360" y="278" on="1"/>
        <pt x="356" y="318" on="0"/>
        <pt x="288" y="365" on="0"/>
        <pt x="182" y="365" on="0"/>
        <pt x="129" y="332" on="1"/>
        <pt x="85" y="477" on="1"/>
        <pt x="171" y="512" on="0"/>
        <pt x="391" y="512" on="0"/>
        <pt x="519" y="413" on="0"/>
        <pt x="519" y="308" on="1"/>
        <pt x="519" y="284" on="0"/>
        <pt x="517" y="270" on="1"/>
        <pt x="489" y="-6" on="1"/>
        <pt x="390" y="-15" on="1"/>
        <pt x="375" y="130" on="1"/>
        <pt x="367" y="130" on="1"/>
        <pt x="333" y="58" on="0"/>
        <pt x="213" y="-23" on="0"/>
      </contour>
      <contour>
        <pt x="366" y="214" on="1"/>
        <pt x="313" y="215" on="1"/>
        <pt x="247" y="215" on="0"/>
        <pt x="205" y="208" on="1"/>
        <pt x="191" y="180" on="0"/>
        <pt x="191" y="136" on="0"/>
        <pt x="203" y="96" on="0"/>
        <pt x="210" y="89" on="1"/>
        <pt x="330" y="108" on="0"/>
      </contour>
      <contour>
        <pt x="409" y="714" on="1"/>
        <pt x="418" y="688" on="0"/>
        <pt x="418" y="602" on="0"/>
        <pt x="355" y="537" on="0"/>
        <pt x="252" y="537" on="0"/>
        <pt x="205" y="555" on="1"/>
        <pt x="179" y="592" on="0"/>
        <pt x="179" y="700" on="0"/>
        <pt x="242" y="765" on="0"/>
        <pt x="343" y="765" on="0"/>
        <pt x="363" y="757" on="1"/>
        <pt x="430" y="853" on="1"/>
        <pt x="501" y="777" on="1"/>
      </contour>
      <contour>
        <pt x="342" y="664" on="1"/>
        <pt x="342" y="690" on="0"/>
        <pt x="335" y="709" on="1"/>
        <pt x="325" y="717" on="0"/>
        <pt x="298" y="717" on="1"/>
        <pt x="254" y="696" on="0"/>
        <pt x="254" y="637" on="1"/>
        <pt x="254" y="613" on="0"/>
        <pt x="261" y="592" on="1"/>
        <pt x="272" y="585" on="0"/>
        <pt x="298" y="585" on="1"/>
        <pt x="342" y="606" on="0"/>
      </contour>
    </TTGlyph>
    <TTGlyph name="asciicircum" xMin="105" yMin="348" xMax="503" yMax="669">
      <contour>
        <pt x="442" y="362" on="1"/>
        <pt x="298" y="545" on="1"/>
        <pt x="200" y="348" on="1"/>
        <pt x="105" y="406" on="1"/>
        <pt x="267" y="669" on="1"/>
        <pt x="354" y="669" on="1"/>
        <pt x="503" y="386" on="1"/>
      </contour>
    </TTGlyph>
    <TTGlyph name="asciitilde" xMin="90" yMin="227" xMax="522" yMax="398">
      <contour>
        <pt x="512" y="292" on="1"/>
        <pt x="474" y="315" on="0"/>
        <pt x="380" y="315" on="0"/>
        <pt x="229" y="227" on="0"/>
        <pt x="125" y="227" on="0"/>
        <pt x="90" y="259" on="1"/>
        <pt x="97" y="372" on="1"/>
        <pt x="134" y="341" on="0"/>
        <pt x="230" y="341" on="0"/>
        <pt x="371" y="398" on="0"/>
        <pt x="474" y="398" on="0"/>
        <pt x="522" y="364" on="1"/>
      </contour>
    </TTGlyph>
    <TTGlyph name="asterisk" xMin="70" yMin="263" xMax="501" yMax="697">
      <contour>
        <pt x="341" y="697" on="1"/>
        <pt x="320" y="543" on="1"/>
        <pt x="433" y="639" on="1"/>
        <pt x="501" y="540" on="1"/>
        <pt x="357" y="481" on="1"/>
        <pt x="497" y="432" on="1"/>
        <pt x="445" y="323" on="1"/>
        <pt x="323" y="417" on="1"/>
        <pt x="350" y="273" on="1"/>
        <pt x="230" y="263" on="1"/>
        <pt x="250" y="416" on="1"/>
        <pt x="138" y="321" on="1"/>
        <pt x="70" y="420" on="1"/>
        <pt x="213" y="478" on="1"/>
        <pt x="74" y="528" on="1"/>
        <pt x="126" y="637" on="1"/>
        <pt x="247" y="541" on="1"/>
        <pt x="221" y="687" on="1"/>
      </contour>
    </TTGlyph>
    <TTGlyph name="at" xMin="69" yMin="-156" xMax="930" yMax="695">
      <contour>
        <pt x="728" y="119" on="1"/>
        <pt x="777" y="119" on="0"/>
        <pt x="839" y="213" on="0"/>
        <pt x="839" y="376" on="0"/>
        <pt x="805" y="488" on="0"/>
        <pt x="733" y="579" on="0"/>
        <pt x="604" y="629" on="0"/>
        <pt x="438" y="629" on="0"/>
        <pt x="315" y="587" on="0"/>
        <pt x="234" y="516" on="0"/>
        <pt x="208" y="466" on="1"/>
        <pt x="160" y="372" on="0"/>
        <pt x="160" y="242" on="1"/>
        <pt x="160" y="101" on="0"/>
        <pt x="229" y="11" on="1"/>
        <pt x="265" y="-36" on="0"/>
        <pt x="393" y="-89" on="0"/>
        <pt x="480" y="-89" on="1"/>
        <pt x="599" y="-89" on="0"/>
        <pt x="710" y="0" on="1"/>
        <pt x="751" y="-62" on="1"/>
        <pt x="621" y="-156" on="0"/>
        <pt x="477" y="-156" on="1"/>
        <pt x="371" y="-156" on="0"/>
        <pt x="209" y="-91" on="0"/>
        <pt x="162" y="-34" on="1"/>
        <pt x="69" y="77" on="0"/>
        <pt x="69" y="243" on="1"/>
        <pt x="69" y="393" on="0"/>
        <pt x="135" y="504" on="1"/>
        <pt x="170" y="562" on="0"/>
        <pt x="272" y="646" on="0"/>
        <pt x="426" y="695" on="0"/>
        <pt x="627" y="695" on="0"/>
        <pt x="789" y="633" on="0"/>
        <pt x="836" y="578" on="1"/>
        <pt x="930" y="468" on="0"/>
        <pt x="930" y="304" on="1"/>
        <pt x="930" y="241" on="0"/>
        <pt x="895" y="147" on="0"/>
        <pt x="846" y="98" on="0"/>
        <pt x="813" y="83" on="1"/>
        <pt x="765" y="61" on="0"/>
        <pt x="646" y="61" on="0"/>
        <pt x="566" y="138" on="0"/>
        <pt x="558" y="206" on="1"/>
        <pt x="551" y="206" on="1"/>
        <pt x="499" y="74" on="0"/>
        <pt x="381" y="74" on="1"/>
        <pt x="337" y="74" on="0"/>
        <pt x="278" y="214" on="0"/>
        <pt x="278" y="388" on="0"/>
        <pt x="352" y="465" on="0"/>
        <pt x="520" y="465" on="0"/>
        <pt x="581" y="426" on="1"/>
        <pt x="652" y="476" on="1"/>
        <pt x="682" y="453" on="1"/>
        <pt x="666" y="224" on="1"/>
        <pt x="665" y="216" on="0"/>
        <pt x="667" y="162" on="0"/>
        <pt x="694" y="119" on="0"/>
      </contour>
      <contour>
        <pt x="463" y="422" on="1"/>
        <pt x="439" y="422" on="0"/>
        <pt x="411" y="410" on="1"/>
        <pt x="406" y="357" on="0"/>
        <pt x="406" y="277" on="0"/>
        <pt x="420" y="159" on="0"/>
        <pt x="429" y="137" on="1"/>
        <pt x="464" y="145" on="0"/>
        <pt x="500" y="193" on="1"/>
        <pt x="546" y="253" on="0"/>
        <pt x="546" y="399" on="1"/>
        <pt x="513" y="422" on="0"/>
      </contour>
    </TTGlyph>
    <TTGlyph name="atilde" xMin="35" yMin="-23" xMax="519" yMax="742">
      <contour>
        <pt x="135" y="-23" on="1"/>
        <pt x="118" y="-23" on="0"/>
        <pt x="110" y="-22" on="1"/>
        <pt x="76" y="1" on="0"/>
        <pt x="35" y="92" on="0"/>
        <pt x="35" y="141" on="1"/>
        <pt x="35" y="205" on="0"/>
        <pt x="132" y="263" on="0"/>
        <pt x="262" y="263" on="1"/>
        <pt x="310" y="263" on="0"/>
        <pt x="362" y="256" on="1"/>
        <pt x="360" y="278" on="1"/>
        <pt x="356" y="318" on="0"/>
        <pt x="288" y="365" on="0"/>
        <pt x="182" y="365" on="0"/>
        <pt x="129" y="332" on="1"/>
        <pt x="85" y="477" on="1"/>
        <pt x="171" y="512" on="0"/>
        <pt x="391" y="512" on="0"/>
        <pt x="519" y="413" on="0"/>
        <pt x="519" y="308" on="1"/>
        <pt x="519" y="284" on="0"/>
        <pt x="517" y="270" on="1"/>
        <pt x="489" y="-6" on="1"/>
        <pt x="390" y="-15" on="1"/>
        <pt x="375" y="130" on="1"/>
        <pt x="367" y="130" on="1"/>
        <pt x="333" y="58" on="0"/>
        <pt x="213" y="-23" on="0"/>
      </contour>
      <contour>
        <pt x="366" y="214" on="1"/>
        <pt x="313" y="215" on="1"/>
        <pt x="247" y="215" on="0"/>
        <pt x="205" y="208" on="1"/>
        <pt x="191" y="180" on="0"/>
        <pt x="191" y="136" on="0"/>
        <pt x="203" y="96" on="0"/>
        <pt x="210" y="89" on="1"/>
        <pt x="330" y="108" on="0"/>
      </contour>
      <contour>
        <pt x="337" y="697" on="1"/>
        <pt x="360" y="697" on="0"/>
        <pt x="380" y="742" on="1"/>
        <pt x="440" y="726" on="1"/>
        <pt x="422" y="585" on="0"/>
        <pt x="355" y="585" on="1"/>
        <pt x="339" y="585" on="0"/>
        <pt x="268" y="611" on="0"/>
        <pt x="250" y="611" on="1"/>
        <pt x="227" y="611" on="0"/>
        <pt x="207" y="566" on="1"/>
        <pt x="147" y="582" on="1"/>
        <pt x="165" y="723" on="0"/>
        <pt x="232" y="723" on="1"/>
        <pt x="248" y="723" on="0"/>
        <pt x="319" y="697" on="0"/>
      </contour>
    </TTGlyph>
    <TTGlyph name="b" xMin="70" yMin="-24" xMax="582" yMax="716">
      <contour>
        <pt x="465" y="523" on="1"/>
        <pt x="483" y="523" on="0"/>
        <pt x="501" y="517" on="1"/>
        <pt x="537" y="474" on="0"/>
        <pt x="582" y="301" on="0"/>
        <pt x="582" y="207" on="1"/>
        <pt x="582" y="86" on="0"/>
        <pt x="477" y="-24" on="0"/>
        <pt x="336" y="-24" on="1"/>
        <pt x="221" y="-24" on="0"/>
        <pt x="117" y="28" on="1"/>
        <pt x="70" y="683" on="1"/>
        <pt x="284" y="716" on="1"/>
        <pt x="248" y="315" on="1"/>
        <pt x="257" y="315" on="1"/>
        <pt x="297" y="411" on="0"/>
        <pt x="406" y="523" on="0"/>
      </contour>
      <contour>
        <pt x="224" y="43" on="1"/>
        <pt x="251" y="40" on="0"/>
        <pt x="351" y="40" on="0"/>
        <pt x="398" y="52" on="1"/>
        <pt x="413" y="129" on="0"/>
        <pt x="413" y="266" on="0"/>
        <pt x="401" y="382" on="0"/>
        <pt x="393" y="404" on="1"/>
        <pt x="265" y="353" on="0"/>
      </contour>
    </TTGlyph>
    <TTGlyph name="backslash" xMin="80" yMin="-91" xMax="416" yMax="739">
      <contour>
        <pt x="192" y="739" on="1"/>
        <pt x="416" y="-68" on="1"/>
        <pt x="346" y="-91" on="1"/>
        <pt x="80" y="708" on="1"/>
      </contour>
    </TTGlyph>
    <TTGlyph name="bar" xMin="108" yMin="-102" xMax="248" yMax="739">
      <contour>
        <pt x="138" y="-102" on="1"/>
        <pt x="108" y="739" on="1"/>
        <pt x="248" y="739" on="1"/>
        <pt x="217" y="-102" on="1"/>
      </contour>
    </TTGlyph>
    <TTGlyph name="barra" xMin="0" yMin="289" xMax="382" yMax="369">
      <contour>
        <pt x="372" y="316" on="1"/>
        <pt x="0" y="289" on="1"/>
        <pt x="10" y="369" on="1"/>
        <pt x="382" y="369" on="1"/>
      </contour>
    </TTGlyph>
    <TTGlyph name="braceleft" xMin="53" yMin="-90" xMax="396" yMax="718">
      <contour>
        <pt x="230" y="247" on="1"/>
        <pt x="216" y="49" on="1"/>
        <pt x="216" y="20" on="0"/>
        <pt x="247" y="-10" on="0"/>
        <pt x="314" y="-10" on="0"/>
        <pt x="377" y="1" on="1"/>
        <pt x="386" y="-54" on="1"/>
        <pt x="285" y="-90" on="0"/>
        <pt x="182" y="-90" on="0"/>
        <pt x="148" y="-33" on="0"/>
        <pt x="143" y="34" on="1"/>
        <pt x="127" y="263" on="1"/>
        <pt x="58" y="275" on="1"/>
        <pt x="53" y="323" on="1"/>
        <pt x="122" y="351" on="1"/>
        <pt x="109" y="528" on="0"/>
        <pt x="109" y="594" on="0"/>
        <pt x="136" y="657" on="0"/>
        <pt x="179" y="693" on="0"/>
        <pt x="258" y="713" on="0"/>
        <pt x="335" y="718" on="0"/>
        <pt x="396" y="718" on="1"/>
        <pt x="396" y="657" on="1"/>
        <pt x="336" y="657" on="0"/>
        <pt x="263" y="614" on="0"/>
        <pt x="260" y="580" on="1"/>
        <pt x="243" y="393" on="1"/>
        <pt x="238" y="336" on="0"/>
        <pt x="172" y="316" on="1"/>
        <pt x="170" y="308" on="1"/>
        <pt x="230" y="289" on="0"/>
      </contour>
    </TTGlyph>
    <TTGlyph name="braceright" xMin="30" yMin="-90" xMax="373" yMax="718">
      <contour>
        <pt x="210" y="49" on="1"/>
        <pt x="196" y="247" on="1"/>
        <pt x="196" y="289" on="0"/>
        <pt x="256" y="308" on="1"/>
        <pt x="254" y="316" on="1"/>
        <pt x="188" y="336" on="0"/>
        <pt x="183" y="393" on="1"/>
        <pt x="166" y="580" on="1"/>
        <pt x="163" y="614" on="0"/>
        <pt x="90" y="657" on="0"/>
        <pt x="30" y="657" on="1"/>
        <pt x="30" y="718" on="1"/>
        <pt x="91" y="718" on="0"/>
        <pt x="168" y="713" on="0"/>
        <pt x="247" y="693" on="0"/>
        <pt x="268" y="675" on="1"/>
        <pt x="317" y="634" on="0"/>
        <pt x="317" y="548" on="1"/>
        <pt x="317" y="528" on="0"/>
        <pt x="304" y="351" on="1"/>
        <pt x="373" y="323" on="1"/>
        <pt x="368" y="275" on="1"/>
        <pt x="299" y="263" on="1"/>
        <pt x="283" y="34" on="1"/>
        <pt x="278" y="-33" on="0"/>
        <pt x="244" y="-90" on="0"/>
        <pt x="141" y="-90" on="0"/>
        <pt x="40" y="-54" on="1"/>
        <pt x="49" y="1" on="1"/>
        <pt x="112" y="-10" on="0"/>
        <pt x="146" y="-10" on="1"/>
        <pt x="210" y="-10" on="0"/>
      </contour>
    </TTGlyph>
    <TTGlyph name="bracketleft" xMin="100" yMin="-105" xMax="396" yMax="718">
      <contour>
        <pt x="396" y="620" on="1"/>
        <pt x="263" y="620" on="1"/>
        <pt x="211" y="16" on="1"/>
        <pt x="376" y="-4" on="1"/>
        <pt x="386" y="-54" on="1"/>
        <pt x="152" y="-105" on="1"/>
        <pt x="100" y="674" on="1"/>
        <pt x="396" y="718" on="1"/>
      </contour>
    </TTGlyph>
    <TTGlyph name="bracketright" xMin="30" yMin="-105" xMax="326" yMax="718">
      <contour>
        <pt x="30" y="620" on="1"/>
        <pt x="30" y="718" on="1"/>
        <pt x="326" y="674" on="1"/>
        <pt x="274" y="-105" on="1"/>
        <pt x="40" y="-54" on="1"/>
        <pt x="50" y="-4" on="1"/>
        <pt x="215" y="16" on="1"/>
        <pt x="163" y="620" on="1"/>
      </contour>
    </TTGlyph>
    <TTGlyph name="breve" xMin="110" yMin="556" xMax="409" yMax="738">
      <contour>
        <pt x="244" y="556" on="1"/>
        <pt x="193" y="556" on="0"/>
        <pt x="159" y="604" on="1"/>
        <pt x="133" y="641" on="0"/>
        <pt x="110" y="699" on="1"/>
        <pt x="163" y="732" on="1"/>
        <pt x="179" y="704" on="0"/>
        <pt x="196" y="679" on="0"/>
        <pt x="227" y="657" on="0"/>
        <pt x="275" y="657" on="0"/>
        <pt x="309" y="699" on="0"/>
        <pt x="325" y="738" on="1"/>
        <pt x="409" y="683" on="1"/>
        <pt x="334" y="556" on="0"/>
      </contour>
    </TTGlyph>
    <TTGlyph name="breve.case" xMin="110" yMin="706" xMax="409" yMax="888">
      <contour>
        <pt x="244" y="706" on="1"/>
        <pt x="193" y="706" on="0"/>
        <pt x="159" y="754" on="1"/>
        <pt x="133" y="791" on="0"/>
        <pt x="110" y="849" on="1"/>
        <pt x="163" y="882" on="1"/>
        <pt x="179" y="854" on="0"/>
        <pt x="196" y="829" on="0"/>
        <pt x="227" y="807" on="0"/>
        <pt x="275" y="807" on="0"/>
        <pt x="309" y="849" on="0"/>
        <pt x="325" y="888" on="1"/>
        <pt x="409" y="833" on="1"/>
        <pt x="334" y="706" on="0"/>
      </contour>
    </TTGlyph>
    <TTGlyph name="brokenbar" xMin="108" yMin="-102" xMax="248" yMax="739">
      <contour>
        <pt x="248" y="739" on="1"/>
        <pt x="239" y="500" on="1"/>
        <pt x="116" y="500" on="1"/>
        <pt x="108" y="739" on="1"/>
      </contour>
      <contour>
        <pt x="138" y="-102" on="1"/>
        <pt x="127" y="192" on="1"/>
        <pt x="228" y="192" on="1"/>
        <pt x="217" y="-102" on="1"/>
      </contour>
    </TTGlyph>
    <TTGlyph name="bullet" xMin="50" yMin="197" xMax="283" yMax="417">
      <contour>
        <pt x="50" y="258" on="0"/>
        <pt x="50" y="356" on="0"/>
        <pt x="107" y="417" on="0"/>
        <pt x="227" y="417" on="0"/>
        <pt x="283" y="356" on="0"/>
        <pt x="283" y="258" on="0"/>
        <pt x="227" y="197" on="0"/>
        <pt x="107" y="197" on="0"/>
      </contour>
    </TTGlyph>
    <TTGlyph name="c" xMin="50" yMin="-24" xMax="438" yMax="539">
      <contour>
        <pt x="227" y="63" on="1"/>
        <pt x="323" y="63" on="0"/>
        <pt x="408" y="96" on="1"/>
        <pt x="438" y="-1" on="1"/>
        <pt x="368" y="-24" on="0"/>
        <pt x="214" y="-24" on="0"/>
        <pt x="96" y="9" on="0"/>
        <pt x="65" y="35" on="1"/>
        <pt x="50" y="107" on="0"/>
        <pt x="50" y="169" on="1"/>
        <pt x="50" y="294" on="0"/>
        <pt x="163" y="498" on="0"/>
        <pt x="237" y="539" on="1"/>
        <pt x="410" y="426" on="1"/>
        <pt x="284" y="358" on="0"/>
        <pt x="140" y="171" on="0"/>
        <pt x="140" y="69" on="1"/>
        <pt x="182" y="63" on="0"/>
      </contour>
    </TTGlyph>
    <TTGlyph name="cacute" xMin="50" yMin="-24" xMax="438" yMax="753">
      <contour>
        <pt x="227" y="63" on="1"/>
        <pt x="323" y="63" on="0"/>
        <pt x="408" y="96" on="1"/>
        <pt x="438" y="-1" on="1"/>
        <pt x="368" y="-24" on="0"/>
        <pt x="214" y="-24" on="0"/>
        <pt x="96" y="9" on="0"/>
        <pt x="65" y="35" on="1"/>
        <pt x="50" y="107" on="0"/>
        <pt x="50" y="169" on="1"/>
        <pt x="50" y="294" on="0"/>
        <pt x="163" y="498" on="0"/>
        <pt x="237" y="539" on="1"/>
        <pt x="410" y="426" on="1"/>
        <pt x="284" y="358" on="0"/>
        <pt x="140" y="171" on="0"/>
        <pt x="140" y="69" on="1"/>
        <pt x="182" y="63" on="0"/>
      </contour>
      <contour>
        <pt x="144" y="631" on="1"/>
        <pt x="322" y="753" on="1"/>
        <pt x="382" y="628" on="1"/>
        <pt x="178" y="563" on="1"/>
      </contour>
    </TTGlyph>
    <TTGlyph name="caron" xMin="80" yMin="556" xMax="383" yMax="741">
      <contour>
        <pt x="383" y="648" on="1"/>
        <pt x="196" y="556" on="1"/>
        <pt x="80" y="693" on="1"/>
        <pt x="114" y="741" on="1"/>
        <pt x="232" y="676" on="1"/>
        <pt x="308" y="738" on="1"/>
      </contour>
    </TTGlyph>
    <TTGlyph name="caron.case" xMin="80" yMin="706" xMax="383" yMax="891">
      <contour>
        <pt x="383" y="798" on="1"/>
        <pt x="196" y="706" on="1"/>
        <pt x="80" y="843" on="1"/>
        <pt x="114" y="891" on="1"/>
        <pt x="232" y="826" on="1"/>
        <pt x="308" y="888" on="1"/>
      </contour>
    </TTGlyph>
    <TTGlyph name="ccaron" xMin="50" yMin="-24" xMax="438" yMax="741">
      <contour>
        <pt x="227" y="63" on="1"/>
        <pt x="323" y="63" on="0"/>
        <pt x="408" y="96" on="1"/>
        <pt x="438" y="-1" on="1"/>
        <pt x="368" y="-24" on="0"/>
        <pt x="214" y="-24" on="0"/>
        <pt x="96" y="9" on="0"/>
        <pt x="65" y="35" on="1"/>
        <pt x="50" y="107" on="0"/>
        <pt x="50" y="169" on="1"/>
        <pt x="50" y="294" on="0"/>
        <pt x="163" y="498" on="0"/>
        <pt x="237" y="539" on="1"/>
        <pt x="410" y="426" on="1"/>
        <pt x="284" y="358" on="0"/>
        <pt x="140" y="171" on="0"/>
        <pt x="140" y="69" on="1"/>
        <pt x="182" y="63" on="0"/>
      </contour>
      <contour>
        <pt x="422" y="648" on="1"/>
        <pt x="235" y="556" on="1"/>
        <pt x="119" y="693" on="1"/>
        <pt x="153" y="741" on="1"/>
        <pt x="271" y="676" on="1"/>
        <pt x="347" y="738" on="1"/>
      </contour>
    </TTGlyph>
    <TTGlyph name="ccedilla" xMin="50" yMin="-208" xMax="438" yMax="539">
      <contour>
        <pt x="227" y="63" on="1"/>
        <pt x="182" y="63" on="0"/>
        <pt x="140" y="69" on="1"/>
        <pt x="140" y="171" on="0"/>
        <pt x="284" y="358" on="0"/>
        <pt x="410" y="426" on="1"/>
        <pt x="237" y="539" on="1"/>
        <pt x="163" y="498" on="0"/>
        <pt x="50" y="294" on="0"/>
        <pt x="50" y="169" on="1"/>
        <pt x="50" y="107" on="0"/>
        <pt x="65" y="35" on="1"/>
        <pt x="96" y="9" on="0"/>
        <pt x="214" y="-24" on="0"/>
        <pt x="368" y="-24" on="0"/>
        <pt x="438" y="-1" on="1"/>
        <pt x="408" y="96" on="1"/>
        <pt x="323" y="63" on="0"/>
      </contour>
      <contour>
        <pt x="134" y="-91" on="1"/>
        <pt x="194" y="-117" on="0"/>
        <pt x="267" y="-117" on="0"/>
        <pt x="299" y="-104" on="1"/>
        <pt x="272" y="-48" on="0"/>
        <pt x="190" y="-6" on="1"/>
        <pt x="218" y="44" on="1"/>
        <pt x="323" y="-14" on="0"/>
        <pt x="348" y="-60" on="1"/>
        <pt x="360" y="-83" on="0"/>
        <pt x="360" y="-108" on="1"/>
        <pt x="360" y="-160" on="0"/>
        <pt x="265" y="-208" on="0"/>
        <pt x="156" y="-208" on="0"/>
        <pt x="100" y="-187" on="1"/>
      </contour>
    </TTGlyph>
    <TTGlyph name="ccircumflex" xMin="50" yMin="-24" xMax="438" yMax="751">
      <contour>
        <pt x="227" y="63" on="1"/>
        <pt x="323" y="63" on="0"/>
        <pt x="408" y="96" on="1"/>
        <pt x="438" y="-1" on="1"/>
        <pt x="368" y="-24" on="0"/>
        <pt x="214" y="-24" on="0"/>
        <pt x="96" y="9" on="0"/>
        <pt x="65" y="35" on="1"/>
        <pt x="50" y="107" on="0"/>
        <pt x="50" y="169" on="1"/>
        <pt x="50" y="294" on="0"/>
        <pt x="163" y="498" on="0"/>
        <pt x="237" y="539" on="1"/>
        <pt x="410" y="426" on="1"/>
        <pt x="284" y="358" on="0"/>
        <pt x="140" y="171" on="0"/>
        <pt x="140" y="69" on="1"/>
        <pt x="182" y="63" on="0"/>
      </contour>
      <contour>
        <pt x="98" y="614" on="1"/>
        <pt x="214" y="751" on="1"/>
        <pt x="401" y="659" on="1"/>
        <pt x="326" y="569" on="1"/>
        <pt x="250" y="631" on="1"/>
        <pt x="132" y="566" on="1"/>
      </contour>
    </TTGlyph>
    <TTGlyph name="cdotaccent" xMin="50" yMin="-24" xMax="438" yMax="733">
      <contour>
        <pt x="227" y="63" on="1"/>
        <pt x="323" y="63" on="0"/>
        <pt x="408" y="96" on="1"/>
        <pt x="438" y="-1" on="1"/>
        <pt x="368" y="-24" on="0"/>
        <pt x="214" y="-24" on="0"/>
        <pt x="96" y="9" on="0"/>
        <pt x="65" y="35" on="1"/>
        <pt x="50" y="107" on="0"/>
        <pt x="50" y="169" on="1"/>
        <pt x="50" y="294" on="0"/>
        <pt x="163" y="498" on="0"/>
        <pt x="237" y="539" on="1"/>
        <pt x="410" y="426" on="1"/>
        <pt x="284" y="358" on="0"/>
        <pt x="140" y="171" on="0"/>
        <pt x="140" y="69" on="1"/>
        <pt x="182" y="63" on="0"/>
      </contour>
      <contour>
        <pt x="340" y="733" on="1"/>
        <pt x="340" y="653" on="0"/>
        <pt x="328" y="605" on="1"/>
        <pt x="283" y="588" on="0"/>
        <pt x="183" y="588" on="0"/>
        <pt x="163" y="593" on="1"/>
        <pt x="163" y="666" on="0"/>
        <pt x="191" y="721" on="1"/>
        <pt x="240" y="733" on="0"/>
      </contour>
    </TTGlyph>
    <TTGlyph name="cedilla" xMin="124" yMin="-208" xMax="384" yMax="44">
      <contour>
        <pt x="158" y="-91" on="1"/>
        <pt x="218" y="-117" on="0"/>
        <pt x="291" y="-117" on="0"/>
        <pt x="323" y="-104" on="1"/>
        <pt x="296" y="-48" on="0"/>
        <pt x="214" y="-6" on="1"/>
        <pt x="242" y="44" on="1"/>
        <pt x="347" y="-14" on="0"/>
        <pt x="372" y="-60" on="1"/>
        <pt x="384" y="-83" on="0"/>
        <pt x="384" y="-108" on="1"/>
        <pt x="384" y="-160" on="0"/>
        <pt x="289" y="-208" on="0"/>
        <pt x="180" y="-208" on="0"/>
        <pt x="124" y="-187" on="1"/>
      </contour>
    </TTGlyph>
    <TTGlyph name="cent" xMin="50" yMin="-112" xMax="438" yMax="749">
      <contour>
        <pt x="50" y="249" on="1"/>
        <pt x="50" y="359" on="0"/>
        <pt x="138" y="545" on="0"/>
        <pt x="202" y="596" on="1"/>
        <pt x="190" y="749" on="1"/>
        <pt x="290" y="749" on="1"/>
        <pt x="276" y="593" on="1"/>
        <pt x="410" y="506" on="1"/>
        <pt x="284" y="438" on="0"/>
        <pt x="140" y="251" on="0"/>
        <pt x="140" y="149" on="1"/>
        <pt x="182" y="143" on="0"/>
        <pt x="227" y="143" on="1"/>
        <pt x="323" y="143" on="0"/>
        <pt x="408" y="176" on="1"/>
        <pt x="438" y="79" on="1"/>
        <pt x="368" y="56" on="0"/>
        <pt x="275" y="56" on="1"/>
        <pt x="290" y="-112" on="1"/>
        <pt x="190" y="-112" on="1"/>
        <pt x="204" y="62" on="1"/>
        <pt x="111" y="76" on="0"/>
        <pt x="65" y="115" on="1"/>
        <pt x="50" y="187" on="0"/>
      </contour>
    </TTGlyph>
    <TTGlyph name="circumflex" xMin="80" yMin="566" xMax="383" yMax="751">
      <contour>
        <pt x="80" y="614" on="1"/>
        <pt x="196" y="751" on="1"/>
        <pt x="383" y="659" on="1"/>
        <pt x="308" y="569" on="1"/>
        <pt x="232" y="631" on="1"/>
        <pt x="114" y="566" on="1"/>
      </contour>
    </TTGlyph>
    <TTGlyph name="circumflex.case" xMin="80" yMin="716" xMax="383" yMax="901">
      <contour>
        <pt x="80" y="764" on="1"/>
        <pt x="196" y="901" on="1"/>
        <pt x="383" y="809" on="1"/>
        <pt x="308" y="719" on="1"/>
        <pt x="232" y="781" on="1"/>
        <pt x="114" y="716" on="1"/>
      </contour>
    </TTGlyph>
    <TTGlyph name="colon" xMin="50" yMin="-10" xMax="239" yMax="500">
      <contour>
        <pt x="53" y="373" on="0"/>
        <pt x="53" y="451" on="0"/>
        <pt x="98" y="500" on="0"/>
        <pt x="194" y="500" on="0"/>
        <pt x="239" y="451" on="0"/>
        <pt x="239" y="373" on="0"/>
        <pt x="194" y="324" on="0"/>
        <pt x="98" y="324" on="0"/>
      </contour>
      <contour>
        <pt x="50" y="39" on="0"/>
        <pt x="50" y="117" on="0"/>
        <pt x="95" y="166" on="0"/>
        <pt x="191" y="166" on="0"/>
        <pt x="236" y="117" on="0"/>
        <pt x="236" y="39" on="0"/>
        <pt x="191" y="-10" on="0"/>
        <pt x="95" y="-10" on="0"/>
      </contour>
    </TTGlyph>
    <TTGlyph name="comma" xMin="50" yMin="-183" xMax="236" yMax="171">
      <contour>
        <pt x="140" y="-4" on="1"/>
        <pt x="126" y="-15" on="0"/>
        <pt x="80" y="-15" on="0"/>
        <pt x="50" y="35" on="0"/>
        <pt x="50" y="126" on="0"/>
        <pt x="88" y="171" on="0"/>
        <pt x="197" y="171" on="0"/>
        <pt x="229" y="139" on="1"/>
        <pt x="236" y="103" on="0"/>
        <pt x="236" y="55" on="1"/>
        <pt x="236" y="-103" on="0"/>
        <pt x="148" y="-183" on="1"/>
        <pt x="73" y="-123" on="1"/>
        <pt x="131" y="-75" on="0"/>
        <pt x="144" y="-6" on="1"/>
      </contour>
    </TTGlyph>
    <TTGlyph name="commaaccent" xMin="70" yMin="-331" xMax="228" yMax="-51">
      <contour>
        <pt x="146" y="-199" on="1"/>
        <pt x="134" y="-209" on="0"/>
        <pt x="95" y="-209" on="0"/>
        <pt x="70" y="-166" on="0"/>
        <pt x="70" y="-89" on="0"/>
        <pt x="103" y="-51" on="0"/>
        <pt x="197" y="-51" on="0"/>
        <pt x="222" y="-78" on="1"/>
        <pt x="228" y="-111" on="0"/>
        <pt x="228" y="-149" on="1"/>
        <pt x="228" y="-264" on="0"/>
        <pt x="153" y="-331" on="1"/>
        <pt x="99" y="-280" on="1"/>
        <pt x="139" y="-247" on="0"/>
        <pt x="150" y="-201" on="1"/>
      </contour>
    </TTGlyph>
    <TTGlyph name="copyright" xMin="100" yMin="108" xMax="770" yMax="785">
      <contour>
        <pt x="460" y="785" on="1"/>
        <pt x="632" y="785" on="0"/>
        <pt x="704" y="700" on="1"/>
        <pt x="770" y="622" on="0"/>
        <pt x="770" y="502" on="1"/>
        <pt x="770" y="339" on="0"/>
        <pt x="574" y="108" on="0"/>
        <pt x="435" y="108" on="1"/>
        <pt x="100" y="108" on="0"/>
        <pt x="100" y="700" on="1"/>
        <pt x="114" y="719" on="1"/>
        <pt x="313" y="785" on="0"/>
      </contour>
      <contour>
        <pt x="730" y="611" on="0"/>
        <pt x="603" y="745" on="0"/>
        <pt x="327" y="745" on="0"/>
        <pt x="140" y="685" on="1"/>
        <pt x="144" y="148" on="0"/>
        <pt x="435" y="148" on="1"/>
        <pt x="557" y="148" on="0"/>
        <pt x="730" y="355" on="0"/>
        <pt x="730" y="502" on="1"/>
      </contour>
      <contour>
        <pt x="366" y="323" on="1"/>
        <pt x="383" y="320" on="0"/>
        <pt x="485" y="320" on="0"/>
        <pt x="541" y="341" on="1"/>
        <pt x="563" y="272" on="1"/>
        <pt x="514" y="256" on="0"/>
        <pt x="457" y="256" on="1"/>
        <pt x="357" y="256" on="0"/>
        <pt x="309" y="297" on="1"/>
        <pt x="299" y="346" on="0"/>
        <pt x="299" y="396" on="1"/>
        <pt x="299" y="496" on="0"/>
        <pt x="377" y="659" on="0"/>
        <pt x="427" y="693" on="1"/>
        <pt x="548" y="617" on="1"/>
        <pt x="465" y="564" on="0"/>
        <pt x="367" y="404" on="0"/>
      </contour>
    </TTGlyph>
    <TTGlyph name="currency" xMin="50" yMin="58" xMax="628" yMax="636">
      <contour>
        <pt x="512" y="471" on="1"/>
        <pt x="548" y="422" on="0"/>
        <pt x="548" y="271" on="0"/>
        <pt x="512" y="222" on="1"/>
        <pt x="628" y="129" on="1"/>
        <pt x="557" y="58" on="1"/>
        <pt x="461" y="177" on="1"/>
        <pt x="412" y="150" on="0"/>
        <pt x="266" y="150" on="0"/>
        <pt x="217" y="177" on="1"/>
        <pt x="121" y="58" on="1"/>
        <pt x="50" y="129" on="1"/>
        <pt x="166" y="222" on="1"/>
        <pt x="130" y="271" on="0"/>
        <pt x="130" y="422" on="0"/>
        <pt x="166" y="472" on="1"/>
        <pt x="50" y="565" on="1"/>
        <pt x="121" y="636" on="1"/>
        <pt x="217" y="516" on="1"/>
        <pt x="265" y="544" on="0"/>
        <pt x="413" y="544" on="0"/>
        <pt x="461" y="516" on="1"/>
        <pt x="557" y="636" on="1"/>
        <pt x="628" y="565" on="1"/>
      </contour>
      <contour>
        <pt x="358" y="474" on="1"/>
        <pt x="294" y="474" on="0"/>
        <pt x="252" y="415" on="0"/>
        <pt x="252" y="319" on="1"/>
        <pt x="252" y="270" on="0"/>
        <pt x="265" y="234" on="1"/>
        <pt x="287" y="219" on="0"/>
        <pt x="319" y="219" on="1"/>
        <pt x="383" y="219" on="0"/>
        <pt x="424" y="277" on="0"/>
        <pt x="424" y="373" on="1"/>
        <pt x="424" y="422" on="0"/>
        <pt x="412" y="460" on="1"/>
        <pt x="390" y="474" on="0"/>
      </contour>
    </TTGlyph>
    <TTGlyph name="d" xMin="83" yMin="-23" xMax="631" yMax="716">
      <contour>
        <pt x="205" y="-23" on="1"/>
        <pt x="181" y="-23" on="0"/>
        <pt x="165" y="-15" on="1"/>
        <pt x="128" y="23" on="0"/>
        <pt x="83" y="173" on="0"/>
        <pt x="83" y="265" on="1"/>
        <pt x="83" y="384" on="0"/>
        <pt x="176" y="496" on="0"/>
        <pt x="291" y="496" on="1"/>
        <pt x="362" y="496" on="0"/>
        <pt x="432" y="468" on="1"/>
        <pt x="417" y="683" on="1"/>
        <pt x="631" y="716" on="1"/>
        <pt x="567" y="-6" on="1"/>
        <pt x="468" y="-15" on="1"/>
        <pt x="455" y="157" on="1"/>
        <pt x="447" y="157" on="1"/>
        <pt x="370" y="-23" on="0"/>
      </contour>
      <contour>
        <pt x="330" y="436" on="1"/>
        <pt x="293" y="436" on="0"/>
        <pt x="267" y="422" on="1"/>
        <pt x="253" y="350" on="0"/>
        <pt x="253" y="273" on="1"/>
        <pt x="253" y="113" on="0"/>
        <pt x="273" y="58" on="1"/>
        <pt x="322" y="66" on="0"/>
        <pt x="376" y="127" on="1"/>
        <pt x="404" y="159" on="0"/>
        <pt x="441" y="277" on="0"/>
        <pt x="441" y="353" on="1"/>
        <pt x="441" y="368" on="0"/>
        <pt x="439" y="400" on="1"/>
        <pt x="394" y="436" on="0"/>
      </contour>
    </TTGlyph>
    <TTGlyph name="dagger" xMin="50" yMin="-202" xMax="595" yMax="739">
      <contour>
        <pt x="595" y="416" on="1"/>
        <pt x="416" y="434" on="1"/>
        <pt x="361" y="-202" on="1"/>
        <pt x="282" y="-202" on="1"/>
        <pt x="226" y="433" on="1"/>
        <pt x="60" y="416" on="1"/>
        <pt x="50" y="568" on="1"/>
        <pt x="216" y="542" on="1"/>
        <pt x="201" y="719" on="1"/>
        <pt x="443" y="739" on="1"/>
        <pt x="426" y="542" on="1"/>
        <pt x="585" y="568" on="1"/>
      </contour>
    </TTGlyph>
    <TTGlyph name="daggerdbl" xMin="50" yMin="-202" xMax="595" yMax="739">
      <contour>
        <pt x="50" y="121" on="1"/>
        <pt x="248" y="101" on="1"/>
        <pt x="272" y="261" on="1"/>
        <pt x="245" y="435" on="1"/>
        <pt x="60" y="416" on="1"/>
        <pt x="50" y="568" on="1"/>
        <pt x="228" y="541" on="1"/>
        <pt x="201" y="719" on="1"/>
        <pt x="443" y="739" on="1"/>
        <pt x="413" y="540" on="1"/>
        <pt x="585" y="568" on="1"/>
        <pt x="595" y="416" on="1"/>
        <pt x="397" y="435" on="1"/>
        <pt x="373" y="276" on="1"/>
        <pt x="400" y="101" on="1"/>
        <pt x="585" y="121" on="1"/>
        <pt x="595" y="-31" on="1"/>
        <pt x="416" y="-4" on="1"/>
        <pt x="444" y="-182" on="1"/>
        <pt x="202" y="-202" on="1"/>
        <pt x="232" y="-3" on="1"/>
        <pt x="60" y="-31" on="1"/>
      </contour>
    </TTGlyph>
    <TTGlyph name="dcaron" xMin="83" yMin="-23" xMax="840" yMax="819">
      <contour>
        <pt x="205" y="-23" on="1"/>
        <pt x="181" y="-23" on="0"/>
        <pt x="165" y="-15" on="1"/>
        <pt x="128" y="23" on="0"/>
        <pt x="83" y="173" on="0"/>
        <pt x="83" y="265" on="1"/>
        <pt x="83" y="384" on="0"/>
        <pt x="176" y="496" on="0"/>
        <pt x="291" y="496" on="1"/>
        <pt x="362" y="496" on="0"/>
        <pt x="432" y="468" on="1"/>
        <pt x="417" y="683" on="1"/>
        <pt x="631" y="716" on="1"/>
        <pt x="567" y="-6" on="1"/>
        <pt x="468" y="-15" on="1"/>
        <pt x="455" y="157" on="1"/>
        <pt x="447" y="157" on="1"/>
        <pt x="370" y="-23" on="0"/>
      </contour>
      <contour>
        <pt x="330" y="436" on="1"/>
        <pt x="293" y="436" on="0"/>
        <pt x="267" y="422" on="1"/>
        <pt x="253" y="350" on="0"/>
        <pt x="253" y="273" on="1"/>
        <pt x="253" y="113" on="0"/>
        <pt x="273" y="58" on="1"/>
        <pt x="322" y="66" on="0"/>
        <pt x="376" y="127" on="1"/>
        <pt x="404" y="159" on="0"/>
        <pt x="441" y="277" on="0"/>
        <pt x="441" y="353" on="1"/>
        <pt x="441" y="368" on="0"/>
        <pt x="439" y="400" on="1"/>
        <pt x="394" y="436" on="0"/>
      </contour>
      <contour>
        <pt x="758" y="671" on="1"/>
        <pt x="746" y="661" on="0"/>
        <pt x="707" y="661" on="0"/>
        <pt x="682" y="704" on="0"/>
        <pt x="682" y="781" on="0"/>
        <pt x="715" y="819" on="0"/>
        <pt x="809" y="819" on="0"/>
        <pt x="834" y="792" on="1"/>
        <pt x="840" y="759" on="0"/>
        <pt x="840" y="721" on="1"/>
        <pt x="840" y="606" on="0"/>
        <pt x="765" y="539" on="1"/>
        <pt x="711" y="590" on="1"/>
        <pt x="751" y="623" on="0"/>
        <pt x="762" y="669" on="1"/>
      </contour>
    </TTGlyph>
    <TTGlyph name="dcroat" xMin="83" yMin="-23" xMax="709" yMax="716">
      <contour>
        <pt x="205" y="-23" on="1"/>
        <pt x="181" y="-23" on="0"/>
        <pt x="165" y="-15" on="1"/>
        <pt x="128" y="23" on="0"/>
        <pt x="83" y="173" on="0"/>
        <pt x="83" y="265" on="1"/>
        <pt x="83" y="384" on="0"/>
        <pt x="176" y="496" on="0"/>
        <pt x="291" y="496" on="1"/>
        <pt x="362" y="496" on="0"/>
        <pt x="432" y="468" on="1"/>
        <pt x="417" y="683" on="1"/>
        <pt x="631" y="716" on="1"/>
        <pt x="567" y="-6" on="1"/>
        <pt x="468" y="-15" on="1"/>
        <pt x="455" y="157" on="1"/>
        <pt x="447" y="157" on="1"/>
        <pt x="370" y="-23" on="0"/>
      </contour>
      <contour>
        <pt x="330" y="436" on="1"/>
        <pt x="293" y="436" on="0"/>
        <pt x="267" y="422" on="1"/>
        <pt x="253" y="350" on="0"/>
        <pt x="253" y="273" on="1"/>
        <pt x="253" y="113" on="0"/>
        <pt x="273" y="58" on="1"/>
        <pt x="322" y="66" on="0"/>
        <pt x="376" y="127" on="1"/>
        <pt x="404" y="159" on="0"/>
        <pt x="441" y="277" on="0"/>
        <pt x="441" y="353" on="1"/>
        <pt x="441" y="368" on="0"/>
        <pt x="439" y="400" on="1"/>
        <pt x="394" y="436" on="0"/>
      </contour>
      <contour>
        <pt x="699" y="597" on="1"/>
        <pt x="327" y="570" on="1"/>
        <pt x="337" y="650" on="1"/>
        <pt x="709" y="650" on="1"/>
      </contour>
    </TTGlyph>
    <TTGlyph name="degree" xMin="50" yMin="425" xMax="340" yMax="699">
      <contour>
        <pt x="238" y="634" on="1"/>
        <pt x="226" y="637" on="0"/>
        <pt x="173" y="637" on="0"/>
        <pt x="123" y="601" on="0"/>
        <pt x="123" y="524" on="0"/>
        <pt x="151" y="490" on="1"/>
        <pt x="167" y="486" on="0"/>
        <pt x="217" y="486" on="0"/>
        <pt x="265" y="522" on="0"/>
        <pt x="265" y="599" on="0"/>
      </contour>
      <contour>
        <pt x="50" y="501" on="0"/>
        <pt x="50" y="623" on="0"/>
        <pt x="120" y="699" on="0"/>
        <pt x="270" y="699" on="0"/>
        <pt x="340" y="623" on="0"/>
        <pt x="340" y="501" on="0"/>
        <pt x="270" y="425" on="0"/>
        <pt x="120" y="425" on="0"/>
      </contour>
    </TTGlyph>
    <TTGlyph name="dieresis" xMin="38" yMin="573" xMax="400" yMax="741">
      <contour>
        <pt x="38" y="623" on="0"/>
        <pt x="38" y="691" on="0"/>
        <pt x="83" y="741" on="0"/>
        <pt x="145" y="741" on="0"/>
        <pt x="190" y="691" on="0"/>
        <pt x="190" y="623" on="0"/>
        <pt x="145" y="573" on="0"/>
        <pt x="83" y="573" on="0"/>
      </contour>
      <contour>
        <pt x="248" y="623" on="0"/>
        <pt x="248" y="691" on="0"/>
        <pt x="293" y="741" on="0"/>
        <pt x="355" y="741" on="0"/>
        <pt x="400" y="691" on="0"/>
        <pt x="400" y="623" on="0"/>
        <pt x="355" y="573" on="0"/>
        <pt x="293" y="573" on="0"/>
      </contour>
    </TTGlyph>
    <TTGlyph name="dieresis.case" xMin="38" yMin="723" xMax="400" yMax="891">
      <contour>
        <pt x="38" y="773" on="0"/>
        <pt x="38" y="841" on="0"/>
        <pt x="83" y="891" on="0"/>
        <pt x="145" y="891" on="0"/>
        <pt x="190" y="841" on="0"/>
        <pt x="190" y="773" on="0"/>
        <pt x="145" y="723" on="0"/>
        <pt x="83" y="723" on="0"/>
      </contour>
      <contour>
        <pt x="248" y="773" on="0"/>
        <pt x="248" y="841" on="0"/>
        <pt x="293" y="891" on="0"/>
        <pt x="355" y="891" on="0"/>
        <pt x="400" y="841" on="0"/>
        <pt x="400" y="773" on="0"/>
        <pt x="355" y="723" on="0"/>
        <pt x="293" y="723" on="0"/>
      </contour>
    </TTGlyph>
    <TTGlyph name="divide" xMin="90" yMin="74" xMax="522" yMax="570">
      <contour>
        <pt x="512" y="286" on="1"/>
        <pt x="90" y="259" on="1"/>
        <pt x="100" y="369" on="1"/>
        <pt x="522" y="369" on="1"/>
      </contour>
      <contour>
        <pt x="395" y="570" on="1"/>
        <pt x="395" y="499" on="0"/>
        <pt x="384" y="454" on="1"/>
        <pt x="341" y="439" on="0"/>
        <pt x="254" y="439" on="0"/>
        <pt x="235" y="444" on="1"/>
        <pt x="235" y="510" on="0"/>
        <pt x="260" y="559" on="1"/>
        <pt x="305" y="570" on="0"/>
      </contour>
      <contour>
        <pt x="375" y="205" on="1"/>
        <pt x="375" y="134" on="0"/>
        <pt x="364" y="89" on="1"/>
        <pt x="321" y="74" on="0"/>
        <pt x="234" y="74" on="0"/>
        <pt x="215" y="79" on="1"/>
        <pt x="215" y="145" on="0"/>
        <pt x="240" y="194" on="1"/>
        <pt x="285" y="205" on="0"/>
      </contour>
    </TTGlyph>
    <TTGlyph name="dollar" xMin="81" yMin="-112" xMax="522" yMax="749">
      <contour>
        <pt x="144" y="384" on="1"/>
        <pt x="144" y="486" on="0"/>
        <pt x="244" y="581" on="1"/>
        <pt x="230" y="749" on="1"/>
        <pt x="330" y="749" on="1"/>
        <pt x="321" y="645" on="1"/>
        <pt x="347" y="664" on="0"/>
        <pt x="401" y="700" on="1"/>
        <pt x="522" y="538" on="1"/>
        <pt x="444" y="511" on="0"/>
        <pt x="349" y="427" on="0"/>
        <pt x="349" y="381" on="1"/>
        <pt x="349" y="349" on="0"/>
        <pt x="396" y="208" on="0"/>
        <pt x="396" y="178" on="1"/>
        <pt x="396" y="95" on="0"/>
        <pt x="317" y="38" on="1"/>
        <pt x="330" y="-112" on="1"/>
        <pt x="230" y="-112" on="1"/>
        <pt x="239" y="-4" on="1"/>
        <pt x="187" y="-26" on="0"/>
        <pt x="102" y="-45" on="1"/>
        <pt x="81" y="20" on="1"/>
        <pt x="220" y="59" on="0"/>
        <pt x="220" y="159" on="1"/>
        <pt x="220" y="184" on="0"/>
        <pt x="182" y="256" on="0"/>
        <pt x="144" y="341" on="0"/>
      </contour>
    </TTGlyph>
    <TTGlyph name="dotaccent" xMin="67" yMin="588" xMax="244" yMax="733">
      <contour>
        <pt x="244" y="733" on="1"/>
        <pt x="244" y="653" on="0"/>
        <pt x="232" y="605" on="1"/>
        <pt x="187" y="588" on="0"/>
        <pt x="87" y="588" on="0"/>
        <pt x="67" y="593" on="1"/>
        <pt x="67" y="666" on="0"/>
        <pt x="95" y="721" on="1"/>
        <pt x="144" y="733" on="0"/>
      </contour>
    </TTGlyph>
    <TTGlyph name="dotaccent.case" xMin="67" yMin="738" xMax="244" yMax="883">
      <contour>
        <pt x="244" y="883" on="1"/>
        <pt x="244" y="803" on="0"/>
        <pt x="232" y="755" on="1"/>
        <pt x="187" y="738" on="0"/>
        <pt x="87" y="738" on="0"/>
        <pt x="67" y="743" on="1"/>
        <pt x="67" y="816" on="0"/>
        <pt x="95" y="871" on="1"/>
        <pt x="144" y="883" on="0"/>
      </contour>
    </TTGlyph>
    <TTGlyph name="dotlessi" xMin="70" yMin="-15" xMax="284" yMax="513">
      <contour>
        <pt x="121" y="-15" on="1"/>
        <pt x="70" y="480" on="1"/>
        <pt x="284" y="513" on="1"/>
        <pt x="220" y="-6" on="1"/>
      </contour>
    </TTGlyph>
    <TTGlyph name="e" xMin="50" yMin="-24" xMax="479" yMax="539">
      <contour>
        <pt x="237" y="539" on="1"/>
        <pt x="479" y="442" on="0"/>
        <pt x="479" y="298" on="1"/>
        <pt x="479" y="223" on="0"/>
        <pt x="394" y="156" on="0"/>
        <pt x="279" y="156" on="1"/>
        <pt x="206" y="156" on="0"/>
        <pt x="159" y="167" on="1"/>
        <pt x="140" y="120" on="0"/>
        <pt x="140" y="69" on="1"/>
        <pt x="185" y="63" on="0"/>
        <pt x="242" y="63" on="1"/>
        <pt x="346" y="63" on="0"/>
        <pt x="438" y="96" on="1"/>
        <pt x="468" y="-1" on="1"/>
        <pt x="395" y="-24" on="0"/>
        <pt x="304" y="-24" on="1"/>
        <pt x="142" y="-24" on="0"/>
        <pt x="66" y="35" on="1"/>
        <pt x="50" y="106" on="0"/>
        <pt x="50" y="169" on="1"/>
        <pt x="50" y="295" on="0"/>
        <pt x="161" y="497" on="0"/>
      </contour>
      <contour>
        <pt x="179" y="214" on="1"/>
        <pt x="192" y="213" on="0"/>
        <pt x="297" y="213" on="0"/>
        <pt x="365" y="227" on="1"/>
        <pt x="368" y="246" on="0"/>
        <pt x="368" y="265" on="1"/>
        <pt x="368" y="325" on="0"/>
        <pt x="335" y="380" on="1"/>
        <pt x="236" y="314" on="0"/>
      </contour>
    </TTGlyph>
    <TTGlyph name="eacute" xMin="50" yMin="-24" xMax="479" yMax="753">
      <contour>
        <pt x="237" y="539" on="1"/>
        <pt x="479" y="442" on="0"/>
        <pt x="479" y="298" on="1"/>
        <pt x="479" y="223" on="0"/>
        <pt x="394" y="156" on="0"/>
        <pt x="279" y="156" on="1"/>
        <pt x="206" y="156" on="0"/>
        <pt x="159" y="167" on="1"/>
        <pt x="140" y="120" on="0"/>
        <pt x="140" y="69" on="1"/>
        <pt x="185" y="63" on="0"/>
        <pt x="242" y="63" on="1"/>
        <pt x="346" y="63" on="0"/>
        <pt x="438" y="96" on="1"/>
        <pt x="468" y="-1" on="1"/>
        <pt x="395" y="-24" on="0"/>
        <pt x="304" y="-24" on="1"/>
        <pt x="142" y="-24" on="0"/>
        <pt x="66" y="35" on="1"/>
        <pt x="50" y="106" on="0"/>
        <pt x="50" y="169" on="1"/>
        <pt x="50" y="295" on="0"/>
        <pt x="161" y="497" on="0"/>
      </contour>
      <contour>
        <pt x="179" y="214" on="1"/>
        <pt x="192" y="213" on="0"/>
        <pt x="297" y="213" on="0"/>
        <pt x="365" y="227" on="1"/>
        <pt x="368" y="246" on="0"/>
        <pt x="368" y="265" on="1"/>
        <pt x="368" y="325" on="0"/>
        <pt x="335" y="380" on="1"/>
        <pt x="236" y="314" on="0"/>
      </contour>
      <contour>
        <pt x="183" y="631" on="1"/>
        <pt x="361" y="753" on="1"/>
        <pt x="421" y="628" on="1"/>
        <pt x="217" y="563" on="1"/>
      </contour>
    </TTGlyph>
    <TTGlyph name="ebreve" xMin="50" yMin="-24" xMax="479" yMax="738">
      <contour>
        <pt x="237" y="539" on="1"/>
        <pt x="479" y="442" on="0"/>
        <pt x="479" y="298" on="1"/>
        <pt x="479" y="223" on="0"/>
        <pt x="394" y="156" on="0"/>
        <pt x="279" y="156" on="1"/>
        <pt x="206" y="156" on="0"/>
        <pt x="159" y="167" on="1"/>
        <pt x="140" y="120" on="0"/>
        <pt x="140" y="69" on="1"/>
        <pt x="185" y="63" on="0"/>
        <pt x="242" y="63" on="1"/>
        <pt x="346" y="63" on="0"/>
        <pt x="438" y="96" on="1"/>
        <pt x="468" y="-1" on="1"/>
        <pt x="395" y="-24" on="0"/>
        <pt x="304" y="-24" on="1"/>
        <pt x="142" y="-24" on="0"/>
        <pt x="66" y="35" on="1"/>
        <pt x="50" y="106" on="0"/>
        <pt x="50" y="169" on="1"/>
        <pt x="50" y="295" on="0"/>
        <pt x="161" y="497" on="0"/>
      </contour>
      <contour>
        <pt x="179" y="214" on="1"/>
        <pt x="192" y="213" on="0"/>
        <pt x="297" y="213" on="0"/>
        <pt x="365" y="227" on="1"/>
        <pt x="368" y="246" on="0"/>
        <pt x="368" y="265" on="1"/>
        <pt x="368" y="325" on="0"/>
        <pt x="335" y="380" on="1"/>
        <pt x="236" y="314" on="0"/>
      </contour>
      <contour>
        <pt x="287" y="556" on="1"/>
        <pt x="236" y="556" on="0"/>
        <pt x="202" y="604" on="1"/>
        <pt x="176" y="641" on="0"/>
        <pt x="153" y="699" on="1"/>
        <pt x="206" y="732" on="1"/>
        <pt x="222" y="704" on="0"/>
        <pt x="239" y="679" on="0"/>
        <pt x="270" y="657" on="0"/>
        <pt x="318" y="657" on="0"/>
        <pt x="352" y="699" on="0"/>
        <pt x="368" y="738" on="1"/>
        <pt x="452" y="683" on="1"/>
        <pt x="377" y="556" on="0"/>
      </contour>
    </TTGlyph>
    <TTGlyph name="ecaron" xMin="50" yMin="-24" xMax="479" yMax="741">
      <contour>
        <pt x="237" y="539" on="1"/>
        <pt x="479" y="442" on="0"/>
        <pt x="479" y="298" on="1"/>
        <pt x="479" y="223" on="0"/>
        <pt x="394" y="156" on="0"/>
        <pt x="279" y="156" on="1"/>
        <pt x="206" y="156" on="0"/>
        <pt x="159" y="167" on="1"/>
        <pt x="140" y="120" on="0"/>
        <pt x="140" y="69" on="1"/>
        <pt x="185" y="63" on="0"/>
        <pt x="242" y="63" on="1"/>
        <pt x="346" y="63" on="0"/>
        <pt x="438" y="96" on="1"/>
        <pt x="468" y="-1" on="1"/>
        <pt x="395" y="-24" on="0"/>
        <pt x="304" y="-24" on="1"/>
        <pt x="142" y="-24" on="0"/>
        <pt x="66" y="35" on="1"/>
        <pt x="50" y="106" on="0"/>
        <pt x="50" y="169" on="1"/>
        <pt x="50" y="295" on="0"/>
        <pt x="161" y="497" on="0"/>
      </contour>
      <contour>
        <pt x="179" y="214" on="1"/>
        <pt x="192" y="213" on="0"/>
        <pt x="297" y="213" on="0"/>
        <pt x="365" y="227" on="1"/>
        <pt x="368" y="246" on="0"/>
        <pt x="368" y="265" on="1"/>
        <pt x="368" y="325" on="0"/>
        <pt x="335" y="380" on="1"/>
        <pt x="236" y="314" on="0"/>
      </contour>
      <contour>
        <pt x="453" y="648" on="1"/>
        <pt x="266" y="556" on="1"/>
        <pt x="150" y="693" on="1"/>
        <pt x="184" y="741" on="1"/>
        <pt x="302" y="676" on="1"/>
        <pt x="378" y="738" on="1"/>
      </contour>
    </TTGlyph>
    <TTGlyph name="ecircumflex" xMin="50" yMin="-24" xMax="479" yMax="751">
      <contour>
        <pt x="237" y="539" on="1"/>
        <pt x="479" y="442" on="0"/>
        <pt x="479" y="298" on="1"/>
        <pt x="479" y="223" on="0"/>
        <pt x="394" y="156" on="0"/>
        <pt x="279" y="156" on="1"/>
        <pt x="206" y="156" on="0"/>
        <pt x="159" y="167" on="1"/>
        <pt x="140" y="120" on="0"/>
        <pt x="140" y="69" on="1"/>
        <pt x="185" y="63" on="0"/>
        <pt x="242" y="63" on="1"/>
        <pt x="346" y="63" on="0"/>
        <pt x="438" y="96" on="1"/>
        <pt x="468" y="-1" on="1"/>
        <pt x="395" y="-24" on="0"/>
        <pt x="304" y="-24" on="1"/>
        <pt x="142" y="-24" on="0"/>
        <pt x="66" y="35" on="1"/>
        <pt x="50" y="106" on="0"/>
        <pt x="50" y="169" on="1"/>
        <pt x="50" y="295" on="0"/>
        <pt x="161" y="497" on="0"/>
      </contour>
      <contour>
        <pt x="179" y="214" on="1"/>
        <pt x="192" y="213" on="0"/>
        <pt x="297" y="213" on="0"/>
        <pt x="365" y="227" on="1"/>
        <pt x="368" y="246" on="0"/>
        <pt x="368" y="265" on="1"/>
        <pt x="368" y="325" on="0"/>
        <pt x="335" y="380" on="1"/>
        <pt x="236" y="314" on="0"/>
      </contour>
      <contour>
        <pt x="150" y="614" on="1"/>
        <pt x="266" y="751" on="1"/>
        <pt x="453" y="659" on="1"/>
        <pt x="378" y="569" on="1"/>
        <pt x="302" y="631" on="1"/>
        <pt x="184" y="566" on="1"/>
      </contour>
    </TTGlyph>
</ttFont>
